{"glyphs":{"0":{"ha":1669,"x_min":140,"x_max":1497,"o":"m 768 1 l 531 1 q 379 32 450 1 q 255 116 308 63 q 171 240 201 169 q 140 392 140 311 l 140 569 q 171 722 140 650 q 255 846 201 793 q 379 930 308 899 q 531 961 450 961 l 768 961 l 768 811 l 531 811 q 437 792 481 811 q 360 740 393 772 q 308 663 328 707 q 289 569 289 619 l 289 392 q 308 298 289 342 q 360 222 328 254 q 437 169 393 189 q 531 150 481 150 l 768 150 l 768 1 m 1106 961 q 1258 930 1186 961 q 1383 846 1329 899 q 1467 722 1436 793 q 1497 569 1497 650 l 1497 392 q 1467 240 1497 311 q 1383 116 1436 169 q 1258 32 1329 63 q 1106 1 1186 1 l 868 1 l 868 150 l 1106 150 q 1200 169 1156 150 q 1277 222 1244 189 q 1329 298 1310 254 q 1349 392 1349 342 l 1349 569 q 1329 663 1349 619 q 1277 740 1310 707 q 1200 792 1244 772 q 1106 811 1156 811 l 868 811 l 868 961 l 1106 961 z "},"1":{"ha":589,"x_min":74,"x_max":429,"o":"m 74 814 l 74 964 l 233 964 q 297 951 267 964 q 354 918 328 939 q 399 870 381 897 q 425 814 417 843 l 74 814 m 429 714 l 429 0 l 282 0 l 282 714 l 429 714 z "},"2":{"ha":1575,"x_min":139,"x_max":1435,"o":"m 290 601 l 142 601 l 142 756 q 160 839 142 801 q 210 904 179 876 q 281 947 242 932 q 361 963 321 963 l 1181 963 l 1181 811 l 365 811 q 315 797 340 811 q 290 750 290 782 l 290 601 m 288 0 l 139 0 l 139 256 q 156 340 139 301 q 203 408 174 378 q 272 457 233 438 q 354 483 311 476 l 1240 621 q 1265 629 1251 624 q 1279 653 1279 635 l 1279 947 q 1385 884 1342 928 q 1429 772 1429 840 l 1429 632 q 1412 562 1429 590 q 1367 514 1394 533 q 1306 484 1340 494 q 1236 468 1271 474 l 383 336 q 314 306 340 329 q 288 254 288 282 l 288 0 m 1435 149 l 1435 0 l 388 0 l 388 149 l 1435 149 z "},"3":{"ha":1586,"x_min":138,"x_max":1411,"o":"m 286 669 l 138 669 l 138 749 q 158 844 138 799 q 215 917 178 889 q 293 951 249 940 q 378 963 338 963 l 1163 963 l 1163 813 l 364 813 q 333 809 350 813 q 307 797 317 806 q 290 776 294 789 q 286 743 286 763 l 286 669 m 1261 947 q 1364 880 1324 925 q 1411 776 1404 835 l 1411 551 q 1401 504 1408 519 q 1381 474 1394 489 q 1406 429 1400 453 q 1411 379 1411 406 l 1411 249 l 1261 249 l 1261 364 q 1250 388 1261 379 q 1228 396 1239 396 l 311 396 l 311 547 l 1229 547 q 1250 553 1239 547 q 1261 579 1261 560 l 1261 758 l 1261 947 m 1404 149 q 1360 71 1393 106 q 1278 16 1324 32 q 1174 0 1232 0 l 378 0 q 345 2 365 0 q 303 10 325 4 q 260 24 282 15 q 221 43 238 32 q 138 218 138 107 l 138 293 l 286 293 l 286 211 q 310 163 286 176 q 364 149 333 149 l 1404 149 z "},"4":{"ha":1536,"x_min":119,"x_max":1363,"o":"m 197 332 q 155 344 174 332 q 128 375 136 356 q 124 418 119 396 q 144 458 128 440 l 636 961 l 847 961 l 229 332 l 197 332 m 1363 963 l 1363 0 l 1214 0 l 1214 332 l 368 332 l 514 481 l 1214 481 l 1214 963 l 1363 963 z "},"5":{"ha":1597,"x_min":140,"x_max":1442,"o":"m 331 460 q 235 494 276 467 q 169 565 199 518 q 140 697 140 613 l 140 963 l 289 963 l 289 697 q 300 649 289 667 q 324 623 311 632 q 349 612 338 614 q 364 610 361 610 l 1263 610 q 1351 586 1313 607 q 1413 528 1385 568 q 1442 417 1442 489 l 1442 249 l 1292 249 l 1292 417 q 1291 428 1292 421 q 1288 442 1290 435 q 1278 455 1285 450 q 1261 460 1272 460 l 331 460 m 1440 813 l 388 813 l 388 963 l 1440 963 l 1440 813 m 1435 149 q 1414 101 1428 128 q 1374 53 1400 75 q 1306 15 1347 31 q 1204 0 1265 0 l 381 0 q 363 1 381 0 q 317 9 344 3 q 260 29 290 15 q 202 68 229 43 q 158 131 175 93 q 140 224 140 168 l 140 344 l 289 344 l 289 224 q 301 183 289 199 q 328 161 313 168 q 367 149 344 151 l 1435 149 z "},"6":{"ha":1589,"x_min":139,"x_max":1426,"o":"m 376 0 q 256 24 301 0 q 183 79 210 47 q 148 144 157 111 q 139 197 139 178 l 139 776 q 188 886 146 839 q 289 953 229 933 l 289 578 q 301 580 294 579 q 318 581 307 581 l 1249 581 q 1281 576 1253 581 q 1342 552 1310 571 q 1400 497 1374 533 q 1426 399 1426 461 l 1426 214 q 1406 119 1426 164 q 1347 46 1386 74 q 1278 13 1313 22 l 1278 399 q 1265 426 1278 422 q 1249 431 1253 431 l 311 431 q 299 426 308 431 q 289 399 289 422 l 289 204 q 309 167 290 183 q 356 151 328 151 l 1178 151 l 1178 0 l 376 0 m 389 963 l 1203 963 q 1274 953 1238 963 q 1343 919 1311 943 q 1406 845 1386 889 q 1426 744 1426 801 l 1426 669 l 1278 669 l 1278 744 q 1274 773 1278 760 q 1258 797 1269 786 q 1230 810 1247 807 q 1196 814 1213 814 l 389 814 l 389 963 z "},"7":{"ha":1464,"x_min":110,"x_max":1357,"o":"m 1357 714 q 1328 647 1347 678 q 1283 599 1308 615 l 400 0 l 110 0 l 1186 714 l 1357 714 m 174 811 l 174 964 l 1179 964 q 1292 913 1246 956 q 1356 811 1339 869 l 174 811 z "},"8":{"ha":1586,"x_min":139,"x_max":1440,"o":"m 1440 563 q 1431 515 1438 531 q 1410 485 1424 500 q 1435 440 1429 464 q 1440 390 1440 417 l 1440 188 q 1426 129 1438 158 q 1389 72 1414 100 q 1290 13 1349 29 l 1290 389 q 1279 403 1290 400 q 1257 407 1268 407 l 321 407 q 299 403 310 407 q 288 389 288 400 l 288 196 q 315 161 288 171 q 375 149 343 151 l 1190 149 l 1190 0 l 354 0 q 276 15 314 0 q 210 55 239 29 q 162 115 181 81 q 139 188 143 149 l 139 390 q 144 440 139 417 q 168 485 149 464 q 149 514 156 499 q 139 563 142 529 l 139 778 q 185 883 144 836 q 288 950 225 929 l 288 575 q 298 563 288 567 q 319 558 308 558 l 1261 558 q 1279 562 1269 558 q 1290 575 1289 565 l 1290 746 q 1265 792 1290 772 q 1213 811 1239 811 l 386 811 l 386 963 l 1204 963 q 1291 947 1250 961 q 1364 908 1332 932 q 1416 850 1396 883 q 1440 778 1436 817 l 1440 563 z "},"9":{"ha":1599,"x_min":128,"x_max":1415,"o":"m 1178 963 q 1299 939 1253 963 q 1371 883 1344 915 q 1406 818 1397 851 q 1415 765 1415 785 l 1415 186 q 1367 76 1408 124 q 1265 10 1325 29 l 1265 385 q 1253 383 1260 383 q 1236 382 1247 382 l 306 382 q 273 387 301 382 q 213 410 244 392 q 154 465 181 429 q 128 564 128 501 l 128 749 q 148 844 128 799 q 207 917 168 889 q 276 950 242 940 l 276 564 q 289 536 276 540 q 306 532 301 532 l 1243 532 q 1256 536 1246 532 q 1265 564 1265 540 l 1265 758 q 1245 795 1264 779 q 1199 811 1226 811 l 376 811 l 376 963 l 1178 963 m 1165 0 l 351 0 q 280 10 317 0 q 211 43 243 19 q 148 117 168 74 q 128 218 128 161 l 128 293 l 276 293 l 276 218 q 281 190 276 203 q 296 165 285 176 q 324 152 307 156 q 358 149 342 149 l 1165 149 l 1165 0 z "}," ":{"ha":521,"x_min":0,"x_max":0,"o":""},"#":{"ha":1181,"x_min":142,"x_max":1090,"o":"m 461 78 l 317 78 l 317 201 l 142 201 l 142 344 l 317 344 l 317 656 l 142 656 l 142 800 l 317 800 l 317 922 l 461 922 l 461 344 l 461 78 m 915 656 l 915 344 l 1090 344 l 1090 201 l 915 201 l 915 78 l 772 78 l 772 201 l 560 201 l 560 344 l 772 344 l 772 656 l 560 656 l 560 800 l 772 800 l 772 922 l 915 922 l 915 800 l 1090 800 l 1090 656 l 915 656 z "},"$":{"ha":1407,"x_min":139,"x_max":1318,"o":"m 1046 547 q 1151 526 1101 547 q 1238 467 1201 504 q 1297 381 1275 431 q 1318 274 1318 331 q 1297 167 1318 217 q 1240 81 1276 118 q 1154 22 1203 44 q 1050 0 1106 0 l 1050 149 q 1134 186 1099 150 q 1169 272 1169 222 q 1134 361 1169 325 q 1046 397 1099 397 l 950 397 l 950 -110 l 800 -110 l 800 0 l 692 0 l 692 -110 l 542 -110 l 542 0 l 139 0 l 139 149 l 542 149 l 542 397 l 414 397 q 309 419 358 397 q 222 477 260 440 q 163 563 185 514 q 142 669 142 613 q 163 778 142 728 q 222 865 185 828 q 308 922 258 901 q 414 943 357 943 l 442 943 l 442 793 l 414 793 q 328 758 361 793 q 290 674 294 724 q 329 583 294 619 q 414 547 364 547 l 542 547 l 542 1050 l 692 1050 l 692 943 l 800 943 l 800 1050 l 950 1050 l 950 943 l 1267 943 l 1267 793 l 950 793 l 950 547 l 1046 547 m 800 397 l 692 397 l 692 149 l 800 149 l 800 397 m 800 793 l 692 793 l 692 547 l 800 547 l 800 793 z "},"%":{"ha":1642,"x_min":139,"x_max":1521,"o":"m 796 725 q 779 641 796 681 q 733 572 763 601 q 665 526 704 543 q 579 508 625 508 l 351 508 q 269 526 308 508 q 201 573 231 543 q 156 642 172 603 q 139 725 139 681 l 139 744 q 156 830 139 790 q 203 899 174 869 q 272 945 232 928 q 356 963 311 963 l 557 963 l 557 822 l 356 822 q 301 799 324 822 q 279 744 279 776 l 279 725 q 301 670 279 693 q 356 647 324 647 l 579 647 q 633 670 611 647 q 656 729 656 693 l 656 949 q 757 870 718 925 q 796 744 796 815 l 796 725 m 1224 976 l 603 0 l 432 0 l 1053 976 l 1224 976 m 1304 456 q 1388 438 1349 456 q 1457 391 1428 421 q 1503 322 1486 361 q 1521 236 1521 282 l 1521 217 q 1482 92 1521 147 q 1381 14 1443 38 l 1381 238 q 1358 292 1381 269 q 1304 315 1336 315 l 1082 315 q 1028 292 1049 315 q 1010 267 1017 281 q 1004 236 1004 253 l 1004 217 q 1027 163 1004 185 q 1082 140 1050 140 l 1282 140 l 1282 0 l 1079 0 q 996 17 1035 0 q 928 65 957 35 q 881 134 899 94 q 864 217 864 174 l 864 236 q 881 322 864 282 q 928 391 899 361 q 998 438 958 421 q 1082 456 1038 456 l 1304 456 z "},"&":{"ha":1575,"x_min":132,"x_max":1478,"o":"m 381 939 q 432 943 407 943 l 1342 943 l 1342 793 l 432 793 q 381 785 406 793 l 381 939 m 1478 564 l 1478 414 l 1349 414 l 1349 0 l 428 0 q 307 22 361 0 q 214 83 253 44 q 153 172 175 121 q 132 282 132 224 q 156 393 132 340 q 224 485 181 446 q 156 571 179 519 q 132 679 132 622 q 144 763 132 726 q 176 828 156 800 q 224 877 197 857 q 281 911 251 897 l 281 676 q 294 629 281 650 q 328 594 307 608 q 375 572 349 579 q 426 564 401 564 l 1100 564 l 1100 413 l 425 413 q 369 402 396 413 q 324 374 343 392 q 292 331 304 356 q 281 281 281 307 q 287 249 281 271 q 310 204 293 226 q 354 165 326 182 q 425 149 382 149 l 1199 149 l 1199 564 l 1478 564 z "},"’":{"ha":454,"x_min":133,"x_max":388,"o":"m 133 614 l 225 951 l 388 951 l 294 614 l 133 614 z "},"(":{"ha":660,"x_min":119,"x_max":485,"o":"m 321 -79 q 218 -47 263 -79 q 149 33 174 -14 q 127 92 135 61 q 119 160 119 124 l 119 785 q 133 873 119 832 q 171 946 147 914 q 236 1003 197 982 q 321 1024 275 1024 l 485 1024 l 485 875 l 321 875 q 283 842 297 871 q 269 785 269 818 l 269 160 q 290 89 269 114 q 322 69 306 71 l 485 69 l 485 -79 l 321 -79 l 321 -79 z "},")":{"ha":665,"x_min":119,"x_max":485,"o":"m 119 -79 l 119 69 l 285 69 q 314 89 299 71 q 330 119 324 100 q 336 160 336 138 l 336 785 q 333 815 336 801 q 322 842 329 829 q 285 875 307 871 l 119 875 l 119 1024 l 285 1024 q 368 1003 329 1024 q 433 946 407 982 q 471 873 457 914 q 485 785 485 832 l 485 160 q 456 33 485 89 q 388 -47 432 -14 q 285 -79 343 -79 l 119 -79 z "},"*":{"ha":665,"x_min":81,"x_max":583,"o":"m 583 724 l 428 724 l 536 614 l 481 557 l 371 668 l 371 514 l 290 514 l 290 669 l 181 561 l 124 617 l 233 726 l 81 726 l 81 807 l 236 807 l 126 917 l 183 974 l 294 864 l 294 1017 l 374 1017 l 374 861 l 483 971 l 540 914 l 429 803 l 583 803 l 583 724 z "},"+":{"ha":992,"x_min":138,"x_max":831,"o":"m 831 407 l 551 407 l 551 128 l 418 128 l 418 407 l 138 407 l 138 540 l 418 540 l 418 821 l 551 821 l 551 540 l 831 540 l 831 407 z "},",":{"ha":432,"x_min":122,"x_max":332,"o":"m 122 -151 l 168 125 l 332 125 l 285 -151 l 122 -151 z "},"-":{"ha":938,"x_min":94,"x_max":808,"o":"m 94 547 l 808 547 l 808 419 l 94 419 l 94 547 z "},".":{"ha":435,"x_min":138,"x_max":300,"o":"m 138 0 l 138 167 l 300 167 l 300 0 l 138 0 z "},"/":{"ha":825,"x_min":74,"x_max":788,"o":"m 74 -71 l 639 1039 l 788 1039 l 222 -71 l 74 -71 z "},":":{"ha":419,"x_min":139,"x_max":293,"o":"m 293 211 l 293 0 l 139 0 l 139 211 l 293 211 m 293 583 l 293 374 l 139 374 l 139 583 l 293 583 z "},";":{"ha":447,"x_min":90,"x_max":324,"o":"m 154 374 l 154 540 l 324 540 l 324 374 l 154 374 m 90 -147 l 175 165 l 313 165 l 226 -147 l 90 -147 z "},"<":{"ha":868,"x_min":0,"x_max":0,"o":""},"=":{"ha":938,"x_min":122,"x_max":822,"o":"m 122 407 l 822 407 l 822 265 l 122 265 l 122 407 m 122 664 l 822 664 l 822 522 l 122 522 l 122 664 z "},">":{"ha":857,"x_min":0,"x_max":0,"o":""},"?":{"ha":1449,"x_min":138,"x_max":1297,"o":"m 289 757 q 286 742 286 743 l 286 601 l 138 601 l 138 742 q 151 830 138 793 q 187 891 165 867 q 235 929 208 915 q 289 950 263 943 l 289 757 m 388 961 l 1061 961 q 1112 956 1074 961 q 1192 930 1150 951 q 1265 865 1233 908 q 1297 742 1297 821 l 1297 701 l 1149 701 l 1149 744 q 1147 760 1149 749 q 1136 782 1144 771 q 1110 802 1128 793 q 1061 811 1092 811 l 388 811 l 388 961 m 521 147 l 669 147 l 669 0 l 521 0 l 521 147 m 1297 601 q 1263 518 1290 547 q 1203 474 1235 489 q 1121 453 1167 457 l 749 453 q 703 442 719 453 q 680 419 688 432 q 671 393 672 406 q 669 375 669 381 l 669 224 l 521 224 l 521 375 q 551 503 521 457 q 622 570 582 549 q 699 597 661 592 q 750 601 736 601 l 1297 601 z "},"@":{"ha":1531,"x_min":139,"x_max":1336,"o":"m 303 206 q 328 188 314 194 q 357 182 342 182 l 1326 182 l 1326 42 l 357 42 q 273 59 313 42 q 204 106 233 76 q 156 176 174 136 q 139 260 139 215 l 139 707 q 178 833 139 778 q 281 911 218 888 l 281 711 q 279 707 279 710 l 279 260 q 303 206 279 229 m 1272 861 q 1319 792 1303 832 q 1336 707 1336 753 l 1336 438 q 1311 325 1336 375 q 1252 252 1289 283 q 1163 221 1215 221 q 1085 240 1121 221 q 1026 293 1050 258 q 985 438 985 354 l 985 503 q 961 558 985 535 q 935 574 950 568 q 906 581 921 581 l 539 581 q 508 574 522 581 q 483 558 494 568 q 461 503 461 536 l 461 456 q 483 400 461 422 q 508 384 494 390 q 539 378 522 378 l 943 378 l 943 236 l 539 236 q 454 253 494 236 q 383 301 414 271 q 337 371 353 331 q 321 456 321 411 l 321 503 q 383 657 321 594 q 454 704 414 688 q 539 721 494 721 l 906 721 q 990 704 950 721 q 1060 657 1031 688 q 1106 587 1089 626 q 1124 503 1124 547 l 1124 438 q 1124 419 1124 432 q 1128 394 1125 407 q 1138 372 1131 382 q 1158 363 1146 363 q 1178 369 1171 363 q 1190 385 1186 375 q 1194 408 1193 396 q 1196 432 1196 419 l 1196 707 q 1174 761 1196 739 q 1119 785 1150 785 l 379 785 l 379 926 l 1119 926 q 1202 909 1163 926 q 1272 861 1242 892 z "},"[":{"ha":571,"x_min":115,"x_max":431,"o":"m 115 -96 l 115 1039 l 418 1039 l 418 890 l 264 890 l 264 53 l 431 53 l 431 -96 l 115 -96 z "},"\\":{"ha":803,"x_min":69,"x_max":733,"o":"m 733 -69 l 642 -69 l 69 1042 l 161 1042 l 733 -69 z "},"]":{"ha":614,"x_min":114,"x_max":431,"o":"m 115 -96 l 115 53 l 282 53 l 282 890 l 114 890 l 114 1039 l 431 1039 l 431 -96 l 115 -96 z "},"^":{"ha":906,"x_min":56,"x_max":850,"o":"m 506 972 l 850 332 l 756 332 l 453 903 l 150 332 l 56 332 l 400 972 l 506 972 z "},"_":{"ha":1389,"x_min":0,"x_max":1389,"o":"m 0 -97 l 1389 -97 l 1389 -181 l 0 -181 l 0 -97 z "},"‘":{"ha":447,"x_min":119,"x_max":374,"o":"m 211 614 l 119 951 l 281 951 l 374 614 l 211 614 z "},"a":{"ha":1475,"x_min":129,"x_max":1325,"o":"m 1011 961 q 1133 937 1076 961 q 1233 870 1190 913 q 1301 771 1276 828 q 1325 649 1325 714 l 1325 0 l 1176 0 l 1176 446 l 440 446 q 379 435 410 446 l 379 592 q 436 596 408 596 l 1176 596 l 1176 649 q 1163 712 1176 682 q 1126 764 1149 742 q 1074 799 1104 786 q 1011 811 1044 811 l 339 811 l 339 961 l 1011 961 m 1076 0 l 440 0 q 323 24 379 0 q 224 88 267 47 q 155 183 181 129 q 129 297 129 236 q 172 447 129 381 q 281 553 214 514 l 281 296 q 293 238 281 265 q 327 192 306 211 q 376 160 349 172 q 436 149 404 149 l 1076 149 l 1076 0 z "},"b":{"ha":1535,"x_min":139,"x_max":1385,"o":"m 1290 496 q 1360 402 1335 456 q 1385 288 1385 349 q 1360 175 1385 228 q 1294 83 1336 122 q 1198 22 1253 44 q 1083 0 1143 0 l 390 0 l 390 153 l 1086 153 q 1140 163 1114 153 q 1188 191 1167 174 q 1221 233 1208 208 q 1233 286 1233 257 q 1222 338 1233 313 q 1189 381 1210 363 q 1142 411 1168 400 q 1086 422 1115 422 l 290 422 l 290 0 l 139 0 l 139 963 l 290 963 l 290 575 l 1085 575 q 1138 583 1111 575 q 1185 607 1164 592 q 1220 644 1207 622 q 1233 693 1233 665 q 1219 742 1233 721 q 1184 779 1206 764 q 1135 803 1163 794 q 1079 811 1107 811 l 390 811 l 390 963 l 1079 963 q 1192 944 1138 963 q 1290 890 1247 925 q 1359 804 1333 854 q 1385 693 1385 754 q 1360 585 1385 638 q 1290 496 1336 532 z "},"c":{"ha":1436,"x_min":163,"x_max":1371,"o":"m 281 117 q 194 244 225 172 q 163 400 163 317 l 163 564 q 203 741 163 660 q 315 876 244 822 l 315 400 q 335 305 315 350 q 388 226 354 260 q 465 172 421 192 q 561 153 510 153 l 1371 153 l 1371 0 l 564 0 q 408 31 481 0 q 281 117 335 63 m 564 963 l 1371 963 l 1371 811 l 564 811 q 467 792 513 811 l 467 950 q 564 963 513 963 z "},"d":{"ha":1454,"x_min":139,"x_max":1392,"o":"m 290 0 l 139 0 l 139 963 l 290 963 l 290 0 m 992 963 q 1148 931 1075 963 q 1275 844 1221 899 q 1360 718 1329 790 q 1392 564 1392 646 l 1392 400 q 1360 244 1392 317 q 1274 117 1328 171 q 1147 31 1219 63 q 992 0 1074 0 l 390 0 l 390 153 l 994 153 q 1089 172 1044 153 q 1167 225 1133 192 q 1219 303 1200 258 q 1239 400 1239 349 l 1239 567 q 1219 661 1239 617 q 1166 739 1200 706 q 1087 792 1132 772 q 992 811 1042 811 l 390 811 l 390 963 l 992 963 z "},"e":{"ha":1490,"x_min":139,"x_max":1360,"o":"m 288 36 q 182 120 225 67 q 139 247 139 174 l 139 671 q 180 813 139 749 q 288 917 221 878 l 288 514 l 1053 514 q 1113 526 1083 514 q 1163 557 1142 538 q 1198 603 1185 576 q 1211 663 1211 631 q 1198 722 1211 694 q 1163 768 1185 749 q 1111 799 1140 788 q 1050 810 1082 810 l 1047 810 l 436 810 l 436 960 l 451 961 l 1053 961 q 1169 938 1114 961 q 1267 873 1225 914 q 1335 778 1310 832 q 1360 663 1360 724 q 1335 546 1360 600 q 1267 451 1310 492 q 1167 387 1224 410 q 1047 364 1110 364 l 288 364 l 288 251 l 288 36 m 1333 149 l 1333 0 l 436 0 l 436 149 l 1333 149 z "},"f":{"ha":1435,"x_min":139,"x_max":1332,"o":"m 292 553 l 1274 553 l 1274 401 l 292 401 l 292 0 l 139 0 l 139 563 q 170 718 139 646 q 256 844 201 790 q 292 876 272 861 l 292 563 l 292 553 m 1332 963 l 1332 811 l 539 811 q 443 792 489 811 l 443 951 q 539 963 492 963 l 1332 963 z "},"h":{"ha":1413,"x_min":138,"x_max":1283,"o":"m 286 813 l 286 0 l 138 0 l 138 1156 l 286 1156 l 286 963 l 893 963 q 1066 922 986 963 q 1199 813 1146 882 l 286 813 m 1256 714 q 1283 569 1283 646 l 1283 0 l 1135 0 l 1135 569 q 1122 647 1135 610 q 1088 714 1110 683 l 1256 714 z "},"i":{"ha":368,"x_min":139,"x_max":292,"o":"m 139 0 l 139 963 l 292 963 l 292 0 l 139 0 z "},"j":{"ha":1418,"x_min":135,"x_max":1281,"o":"m 1032 28 q 890 0 964 0 l 526 0 q 374 31 444 0 q 250 114 303 61 q 165 240 196 168 q 135 390 135 311 l 135 493 l 283 493 l 283 390 q 302 298 283 342 q 353 221 321 254 q 430 168 386 188 q 524 149 474 149 l 890 149 q 966 161 931 149 q 1032 196 1001 174 l 1032 28 m 1281 961 l 1281 390 q 1250 240 1281 311 q 1165 114 1219 168 l 1132 85 l 1132 811 l 293 811 l 293 961 l 1281 961 z "},"k":{"ha":1510,"x_min":139,"x_max":1393,"o":"m 1035 536 q 1150 483 1097 519 q 1241 397 1203 447 q 1301 286 1279 347 q 1322 158 1322 225 l 1322 0 l 1174 0 l 1174 161 q 1154 253 1174 210 q 1101 330 1135 297 q 1024 381 1068 363 q 931 400 981 400 l 388 400 l 388 550 l 849 550 q 1020 756 933 650 q 1190 961 1107 861 l 1393 961 l 1035 536 m 288 0 l 139 0 l 139 961 l 288 961 l 288 0 z "},"l":{"ha":1346,"x_min":139,"x_max":1307,"o":"m 529 149 l 1307 149 l 1307 0 l 529 0 q 482 2 506 0 q 436 11 458 4 l 436 167 q 529 149 481 149 m 288 963 l 288 83 q 269 99 278 90 q 253 115 261 107 q 169 240 200 168 q 139 392 139 311 l 139 963 l 288 963 z "},"m":{"ha":2094,"x_min":138,"x_max":1915,"o":"m 1767 876 q 1875 744 1835 824 q 1915 569 1915 664 l 1915 0 l 1767 0 l 1767 569 l 1767 876 m 910 961 l 1525 961 q 1598 954 1563 961 q 1667 935 1633 947 l 1667 765 q 1601 800 1636 788 q 1528 813 1567 813 l 1060 813 l 1060 0 l 910 0 l 910 813 l 910 961 m 138 0 l 138 961 l 810 961 l 810 813 l 286 813 l 286 0 l 138 0 z "},"n":{"ha":1447,"x_min":139,"x_max":1313,"o":"m 288 811 l 288 0 l 139 0 l 139 963 l 922 963 q 1095 922 1015 963 q 1228 811 1175 881 l 288 811 m 1285 714 q 1313 569 1313 646 l 1313 0 l 1164 0 l 1164 569 q 1151 647 1164 610 q 1117 714 1139 683 l 1285 714 z "},"p":{"ha":1458,"x_min":139,"x_max":1407,"o":"m 290 0 l 139 0 l 139 961 l 1101 961 q 1131 960 1117 961 q 1158 956 1144 958 l 1158 799 q 1094 811 1129 811 l 290 811 l 290 0 m 1258 917 q 1366 809 1325 876 q 1407 663 1407 742 q 1381 546 1407 600 q 1313 451 1356 492 q 1213 387 1269 410 q 1094 364 1156 364 l 390 364 l 390 513 l 1097 513 q 1158 524 1129 513 q 1210 556 1188 536 q 1245 603 1232 576 q 1258 661 1258 631 l 1258 917 z "},"q":{"ha":1733,"x_min":140,"x_max":1585,"o":"m 932 -193 l 783 -193 l 783 0 l 531 0 q 379 31 450 0 q 255 115 308 61 q 171 239 201 168 q 140 390 140 310 l 140 568 q 167 710 140 642 l 336 710 q 301 644 314 679 q 289 568 289 608 l 289 390 q 308 297 289 340 q 360 220 328 253 q 437 168 393 188 q 531 149 481 149 l 783 149 l 783 325 l 932 325 l 932 149 l 932 -193 m 1192 961 q 1344 930 1272 961 q 1469 845 1417 899 q 1553 720 1522 792 q 1585 568 1585 649 l 1585 390 q 1553 239 1585 310 q 1469 115 1522 168 q 1344 31 1417 61 q 1192 0 1272 0 l 1032 0 l 1032 149 l 1192 149 q 1286 168 1242 149 q 1364 220 1331 188 q 1416 297 1397 253 q 1435 390 1435 340 l 1435 568 q 1416 662 1435 618 q 1364 739 1397 706 q 1286 792 1331 772 q 1192 811 1242 811 l 224 811 q 357 921 278 881 q 531 961 436 961 l 1192 961 z "},"r":{"ha":1363,"x_min":138,"x_max":1331,"o":"m 290 0 l 138 0 l 138 561 q 178 739 138 658 q 290 876 219 819 l 290 0 m 538 810 q 457 796 494 810 q 389 758 419 782 l 389 933 q 460 955 424 947 q 538 963 497 963 l 1331 963 l 1331 810 l 538 810 z "},"s":{"ha":1414,"x_min":89,"x_max":1313,"o":"m 342 964 l 368 965 l 1263 965 l 1263 814 l 368 814 q 355 813 361 814 q 342 811 349 813 l 342 964 m 1035 558 q 1142 536 1092 558 q 1231 476 1193 514 q 1290 388 1268 439 q 1313 281 1313 338 q 1270 131 1313 197 q 1160 29 1228 64 l 1160 279 q 1124 369 1160 332 q 1035 406 1088 406 l 368 406 q 260 427 311 406 q 172 487 210 449 q 111 576 133 525 q 89 685 89 626 q 131 833 89 768 q 242 935 172 899 l 242 688 q 281 596 246 633 q 368 558 317 558 l 1035 558 m 1060 1 q 1047 0 1053 0 q 1035 0 1042 0 l 139 0 l 139 153 l 1035 153 q 1047 153 1042 153 q 1060 156 1053 153 l 1060 1 z "},"t":{"ha":1449,"x_min":139,"x_max":1307,"o":"m 288 85 q 178 219 217 139 q 139 392 139 299 l 139 1113 l 288 1113 l 288 961 l 1139 961 l 1139 811 l 288 811 l 288 85 m 1307 149 l 1307 0 l 529 0 q 386 28 454 0 l 386 194 q 453 161 417 174 q 529 149 489 149 l 1307 149 z "},"u":{"ha":1479,"x_min":139,"x_max":1313,"o":"m 288 85 q 179 219 219 139 q 139 393 139 300 l 139 963 l 288 963 l 288 85 m 1313 963 l 1313 0 l 529 0 q 386 28 454 0 l 386 197 q 452 163 417 175 q 526 150 488 150 l 1164 150 l 1164 963 l 1313 963 z "},"v":{"ha":1628,"x_min":-3,"x_max":1510,"o":"m 606 151 l -3 961 l 186 961 l 696 275 l 606 151 m 1324 961 l 1510 961 l 797 0 l 718 0 l 667 68 l 1324 961 z "},"w":{"ha":2094,"x_min":138,"x_max":1915,"o":"m 286 85 q 178 217 218 138 q 138 392 138 297 l 138 961 l 286 961 l 286 392 l 286 85 m 1143 0 l 528 0 q 455 7 490 0 q 386 26 419 14 l 386 196 q 451 161 417 174 q 525 149 486 149 l 993 149 l 993 961 l 1143 961 l 1143 149 l 1143 0 m 1915 961 l 1915 0 l 1243 0 l 1243 149 l 1767 149 l 1767 961 l 1915 961 z "},"x":{"ha":1413,"x_min":139,"x_max":1311,"o":"m 340 308 q 304 239 317 276 q 292 161 292 201 l 292 0 l 139 0 l 139 161 q 167 308 139 238 l 340 308 m 1110 660 q 1146 729 1133 692 q 1158 808 1158 767 l 1158 963 l 1311 963 l 1311 808 q 1283 660 1311 731 l 1110 660 m 292 963 l 292 806 q 310 713 292 757 q 361 635 329 668 q 436 581 393 601 q 528 561 479 561 l 1225 561 q 1189 520 1207 538 q 1147 485 1171 503 q 1170 466 1158 476 q 1193 444 1182 456 q 1280 317 1249 389 q 1311 161 1311 244 l 1311 0 l 1158 0 l 1158 164 q 1139 258 1158 214 q 1085 336 1119 303 q 1007 389 1051 369 q 913 408 963 408 l 225 408 q 240 426 232 418 q 257 444 249 435 q 278 465 268 456 q 304 483 289 474 q 281 503 292 493 q 257 525 269 514 q 170 653 201 581 q 139 808 139 725 l 139 963 l 292 963 z "},"y":{"ha":1413,"x_min":110,"x_max":1256,"o":"m 500 386 q 349 417 419 386 q 224 501 278 449 q 140 626 171 554 q 110 778 110 697 l 110 963 l 258 963 l 258 778 q 277 685 258 729 q 328 607 296 640 q 405 554 361 574 q 497 535 449 535 l 1107 535 l 1107 963 l 1256 963 l 1256 390 q 1249 317 1256 353 q 1229 249 1243 281 l 1060 249 q 1094 313 1082 278 q 1107 386 1107 347 l 500 386 m 1172 149 q 1040 40 1119 81 q 865 0 960 0 l 138 0 l 138 149 l 867 149 l 1172 149 z "},"z":{"ha":1571,"x_min":139,"x_max":1435,"o":"m 954 811 l 142 811 l 142 963 l 1175 963 l 954 811 m 1417 149 l 1417 0 l 139 0 l 139 139 l 154 149 l 426 149 l 1417 149 m 1353 963 l 1435 963 l 1435 831 l 574 247 l 301 247 l 1353 963 z "},"{":{"ha":869,"x_min":0,"x_max":0,"o":""},"|":{"ha":590,"x_min":217,"x_max":351,"o":"m 217 1015 l 351 1015 l 351 -64 l 217 -64 l 217 1015 z "},"}":{"ha":869,"x_min":0,"x_max":0,"o":""},"~":{"ha":979,"x_min":138,"x_max":936,"o":"m 781 615 q 717 625 751 615 q 650 651 682 635 q 500 727 578 688 q 349 804 422 767 q 299 819 318 819 q 292 815 296 819 q 288 789 288 810 l 288 638 l 138 638 l 138 781 q 182 914 138 867 q 293 958 224 958 q 357 949 324 958 q 424 924 390 939 l 725 771 q 775 753 756 753 q 783 758 779 753 q 786 783 786 764 l 786 936 l 936 936 l 936 792 q 892 660 936 707 q 781 615 851 615 z "},"¡":{"ha":540,"x_min":222,"x_max":318,"o":"m 222 0 l 222 681 l 318 681 l 318 0 l 222 0 m 222 800 l 222 972 l 318 972 l 318 800 l 222 800 z "},"£":{"ha":1564,"x_min":163,"x_max":1371,"o":"m 1371 149 l 1371 0 l 163 0 l 163 149 q 237 153 208 149 q 281 170 265 157 q 303 208 297 183 q 310 274 308 233 l 185 274 l 185 424 l 310 424 l 310 442 l 185 442 l 185 589 l 310 589 q 346 733 314 665 q 431 851 378 801 q 553 931 483 901 q 701 960 622 960 l 1339 960 l 1339 811 l 701 811 q 612 794 654 811 q 537 747 569 776 q 483 676 504 717 q 458 589 463 635 l 1150 589 l 1150 442 l 458 442 l 458 424 l 1150 424 l 1150 274 l 458 274 q 442 149 458 199 l 1371 149 z "},"⁄":{"ha":1086,"x_min":42,"x_max":1044,"o":"m 940 972 l 1044 972 l 146 0 l 42 0 l 940 972 z "},"'":{"ha":358,"x_min":126,"x_max":261,"o":"m 126 614 l 126 951 l 261 951 l 261 614 l 126 614 z "},"“":{"ha":693,"x_min":124,"x_max":610,"o":"m 447 711 l 356 1049 l 517 1049 l 610 711 l 447 711 m 217 711 l 124 1049 l 286 1049 l 378 711 l 217 711 z "},"ﬁ":{"ha":1638,"x_min":139,"x_max":1564,"o":"m 292 553 l 1274 553 l 1274 401 l 292 401 l 292 0 l 139 0 l 139 563 q 170 718 139 646 q 256 844 201 790 q 292 876 272 861 l 292 563 l 292 553 m 1332 963 l 1332 811 l 539 811 q 443 792 489 811 l 443 951 q 539 963 492 963 l 1332 963 m 1411 0 l 1411 963 l 1564 963 l 1564 0 l 1411 0 z "},"–":{"ha":1333,"x_min":142,"x_max":1211,"o":"m 142 547 l 1211 547 l 1211 419 l 142 419 l 142 547 z "},"†":{"ha":715,"x_min":0,"x_max":0,"o":""},"‡":{"ha":715,"x_min":0,"x_max":0,"o":""},"·":{"ha":406,"x_min":139,"x_max":267,"o":"m 139 404 l 139 528 l 267 528 l 267 404 l 139 404 z "},"•":{"ha":653,"x_min":142,"x_max":592,"o":"m 142 476 q 159 563 142 522 q 207 635 176 604 q 278 683 238 665 q 367 701 319 701 q 455 683 414 701 q 526 635 496 665 q 574 563 557 604 q 592 476 592 522 q 574 388 592 429 q 526 317 557 347 q 455 269 496 286 q 367 251 414 251 q 278 269 319 251 q 207 317 238 286 q 159 388 176 347 q 142 476 142 429 m 367 590 q 286 557 319 590 q 253 476 253 524 q 286 394 253 428 q 367 361 319 361 q 449 394 415 361 q 482 476 482 428 q 449 557 482 524 q 367 590 415 590 z "},"‚":{"ha":389,"x_min":90,"x_max":311,"o":"m 90 -147 l 175 165 l 311 165 l 226 -147 l 90 -147 z "},"„":{"ha":708,"x_min":138,"x_max":600,"o":"m 138 -147 l 224 165 l 360 165 l 275 -147 l 138 -147 m 378 -147 l 464 165 l 600 165 l 515 -147 l 378 -147 z "},"”":{"ha":682,"x_min":124,"x_max":610,"o":"m 124 700 l 217 1038 l 378 1038 l 286 700 l 124 700 m 356 700 l 447 1038 l 610 1038 l 517 700 l 356 700 z "},"…":{"ha":1078,"x_min":138,"x_max":956,"o":"m 138 0 l 138 165 l 307 165 l 307 0 l 138 0 m 463 0 l 463 165 l 632 165 l 632 0 l 463 0 m 786 0 l 786 165 l 956 165 l 956 0 l 786 0 z "},"¿":{"ha":1438,"x_min":147,"x_max":1307,"o":"m 296 357 q 301 374 296 368 q 313 383 306 381 q 331 389 319 388 l 694 389 q 746 394 708 389 q 823 420 783 399 q 893 488 863 442 q 924 615 924 533 l 924 767 l 775 767 l 775 615 q 774 597 775 610 q 765 572 772 585 q 741 548 757 558 q 696 538 725 538 l 324 538 q 235 514 274 533 q 174 463 201 497 q 147 367 147 429 l 147 265 q 179 142 147 186 q 253 77 211 99 q 333 51 294 56 q 383 46 371 46 l 1078 46 q 1112 48 1090 46 q 1159 57 1133 50 q 1211 78 1185 64 q 1259 117 1238 93 q 1294 178 1281 142 q 1307 265 1307 214 l 1307 406 l 1158 406 l 1158 265 q 1156 249 1158 260 q 1146 226 1154 238 q 1119 205 1138 214 q 1071 196 1101 196 l 383 196 q 334 205 351 196 q 308 225 317 214 q 298 247 300 236 q 296 263 296 258 l 296 357 m 924 990 l 924 843 l 775 843 l 775 990 l 924 990 z "},"`":{"ha":724,"x_min":185,"x_max":556,"o":"m 290 1376 l 556 1113 l 451 1007 l 185 1272 l 290 1376 z "},"´":{"ha":724,"x_min":207,"x_max":579,"o":"m 579 1272 l 313 1007 l 207 1113 l 474 1376 l 579 1272 z "},"ˆ":{"ha":1089,"x_min":121,"x_max":1001,"o":"m 561 1222 l 167 1035 l 121 1131 l 561 1339 l 1001 1131 l 956 1035 l 561 1222 z "},"˜":{"ha":921,"x_min":158,"x_max":885,"o":"m 742 963 q 682 970 713 963 q 621 994 651 978 l 622 994 q 486 1064 554 1029 q 350 1132 418 1099 q 326 1142 336 1139 q 307 1144 315 1144 q 301 1142 304 1144 q 299 1122 299 1139 l 299 982 l 158 982 l 158 1124 q 169 1194 158 1164 q 199 1246 179 1225 q 301 1285 240 1285 q 419 1253 360 1285 q 556 1185 486 1221 q 692 1115 625 1149 q 735 1101 719 1101 q 740 1106 738 1101 q 743 1125 743 1110 l 743 1265 l 885 1265 l 885 1124 q 842 1003 885 1046 l 843 1003 q 742 963 804 963 z "},"¯":{"ha":914,"x_min":139,"x_max":782,"o":"m 139 1163 l 782 1163 l 782 1057 l 139 1057 l 139 1163 z "},"˘":{"ha":953,"x_min":214,"x_max":810,"o":"m 342 1178 q 359 1133 342 1151 q 403 1115 376 1115 l 619 1115 q 663 1133 644 1115 q 682 1178 682 1151 l 682 1219 l 810 1219 l 810 1178 q 795 1105 810 1139 q 754 1045 781 1071 q 693 1004 728 1019 q 619 989 658 989 l 403 989 q 269 1043 326 989 q 228 1104 243 1069 q 214 1178 214 1139 l 214 1219 l 342 1219 l 342 1178 z "},"˙":{"ha":461,"x_min":139,"x_max":322,"o":"m 139 1253 l 322 1253 l 322 1101 l 139 1101 l 139 1253 z "},"¨":{"ha":824,"x_min":136,"x_max":671,"o":"m 136 1015 l 136 1183 l 297 1183 l 297 1015 l 136 1015 m 508 1015 l 508 1183 l 671 1183 l 671 1015 l 508 1015 z "},"˚":{"ha":757,"x_min":129,"x_max":699,"o":"m 318 994 q 185 1050 240 994 q 144 1110 158 1076 q 129 1183 129 1144 l 129 1201 q 144 1275 129 1240 q 184 1335 158 1310 q 244 1376 210 1361 q 318 1392 279 1392 l 508 1392 q 582 1376 547 1392 q 642 1335 617 1361 q 683 1275 668 1310 q 699 1201 699 1240 l 699 1183 q 684 1110 699 1144 q 643 1051 669 1076 q 582 1010 617 1025 q 508 994 547 994 l 318 994 m 275 1246 q 257 1201 257 1228 l 257 1183 q 274 1140 257 1157 q 318 1122 292 1122 l 508 1122 q 553 1140 535 1122 q 572 1183 572 1157 l 572 1201 q 553 1246 572 1228 q 508 1264 535 1264 l 318 1264 q 293 1258 304 1264 q 275 1246 282 1253 z "},"¸":{"ha":663,"x_min":136,"x_max":488,"o":"m 136 -358 l 136 -215 l 292 -215 q 330 -198 315 -215 q 344 -158 344 -181 l 344 1 l 488 1 l 488 -158 q 472 -233 488 -197 q 428 -297 456 -269 q 365 -342 401 -325 q 288 -358 329 -358 l 136 -358 z "},"˝":{"ha":1072,"x_min":288,"x_max":932,"o":"m 626 1256 l 363 993 l 288 1068 l 551 1331 l 626 1256 m 932 1256 l 668 993 l 593 1068 l 857 1331 l 932 1256 z "},"˛":{"ha":663,"x_min":139,"x_max":565,"o":"m 294 -278 q 238 -267 265 -278 q 188 -239 210 -257 q 152 -195 165 -221 q 139 -139 139 -169 l 139 -136 q 161 -48 139 -89 q 219 21 183 -7 l 250 49 l 403 49 l 288 -61 q 259 -94 272 -76 q 246 -129 246 -111 q 250 -146 246 -137 q 269 -165 258 -161 q 299 -171 281 -168 l 565 -171 l 565 -278 l 294 -278 z "},"ˇ":{"ha":1089,"x_min":121,"x_max":1001,"o":"m 956 1339 l 1001 1243 l 561 1035 l 121 1243 l 167 1339 l 561 1151 l 956 1339 z "},"—":{"ha":1707,"x_min":150,"x_max":1575,"o":"m 150 547 l 1575 547 l 1575 419 l 150 419 l 150 547 z "},"Ł":{"ha":1361,"x_min":74,"x_max":1479,"o":"m 1479 154 l 1479 1 l 686 1 q 609 9 646 1 q 538 31 572 17 l 538 206 q 606 168 568 182 q 686 154 643 154 l 1479 154 m 439 553 l 439 88 q 326 224 367 139 q 286 403 286 310 l 286 492 l 74 404 l 74 557 l 286 644 l 286 964 l 439 964 l 439 706 l 654 793 l 654 640 l 439 553 z "},"Ø":{"ha":1756,"x_min":139,"x_max":1496,"o":"m 1104 960 q 1256 928 1185 960 q 1381 844 1328 897 q 1465 720 1435 792 q 1496 568 1496 649 l 1496 390 q 1456 217 1496 297 q 1347 85 1415 138 l 1347 568 q 1338 631 1347 600 q 1314 688 1329 661 l 436 167 q 481 153 458 158 q 529 149 504 149 l 1104 149 q 1181 161 1144 149 q 1247 196 1217 174 l 1247 26 q 1178 7 1214 14 q 1104 0 1142 0 l 529 0 q 378 31 449 0 q 253 115 307 61 q 169 239 200 168 q 139 390 139 310 l 139 568 q 178 741 139 661 q 288 875 218 821 l 288 390 q 318 271 288 328 l 1196 792 q 1104 810 1149 810 l 529 810 q 453 797 489 810 q 386 763 417 785 l 386 933 q 455 953 419 946 q 529 960 490 960 l 1104 960 l 1104 960 z "},"Œ":{"ha":2649,"x_min":142,"x_max":2436,"o":"m 1486 554 l 2436 554 l 2436 401 l 1486 401 l 1486 392 q 1506 298 1486 342 q 1560 221 1526 254 q 1639 169 1594 188 q 1733 150 1683 150 l 2436 150 l 2436 -3 l 1733 -3 q 1549 42 1633 -3 q 1410 163 1464 86 q 1271 42 1356 86 q 1086 -3 1186 -3 l 542 -3 q 385 29 458 -3 q 258 115 313 61 q 173 242 204 169 q 142 397 142 315 l 142 564 q 173 719 142 647 q 258 846 204 792 q 385 931 313 900 q 542 963 458 963 l 1086 963 q 1271 917 1186 963 q 1410 796 1356 871 q 1474 860 1438 829 q 1553 913 1511 890 q 1642 948 1596 935 q 1733 961 1688 961 l 2436 961 l 2436 808 l 1733 808 q 1637 789 1682 808 q 1558 736 1592 769 q 1506 659 1525 703 q 1486 567 1488 615 l 1486 554 m 1333 564 q 1314 659 1333 614 q 1261 738 1294 704 q 1183 792 1228 772 q 1086 811 1138 811 l 542 811 q 447 792 492 811 q 367 738 401 772 q 314 659 333 704 q 294 564 294 614 l 294 397 q 314 301 294 346 q 367 222 333 256 q 447 169 401 189 q 542 150 492 150 l 1086 150 q 1183 169 1138 150 q 1261 222 1228 189 q 1314 301 1294 256 q 1333 397 1333 346 l 1333 564 z "},"æ":{"ha":2504,"x_min":89,"x_max":2357,"o":"m 1036 800 q 971 813 1007 813 l 271 813 l 271 963 l 971 963 q 1004 961 988 963 q 1036 956 1021 960 l 1036 800 m 1385 156 q 1449 147 1414 147 l 2289 147 l 2289 -1 l 1442 -1 q 1413 0 1426 -1 q 1385 4 1399 1 l 1385 156 m 1285 0 l 400 0 q 338 7 369 0 l 338 160 q 394 149 367 149 l 1136 149 l 1136 446 l 400 446 q 340 435 369 446 q 288 404 311 424 q 251 358 265 385 q 238 300 238 332 l 238 47 q 166 106 197 71 q 115 181 135 140 q 89 297 89 238 q 114 414 89 360 q 181 509 139 468 q 278 573 222 550 q 394 596 333 596 l 1136 596 l 1136 915 q 1208 853 1176 892 q 1315 932 1253 903 q 1449 961 1378 961 l 2050 961 q 2108 956 2082 961 l 2108 800 q 2044 811 2078 811 l 1449 811 q 1395 800 1424 811 q 1342 769 1367 789 q 1301 723 1318 750 q 1285 665 1285 696 l 1285 493 l 2050 493 q 2150 527 2106 493 q 2208 613 2194 561 l 2208 917 q 2316 810 2275 876 q 2357 661 2357 743 q 2332 541 2357 599 q 2264 440 2307 483 q 2164 369 2221 396 q 2044 343 2107 343 l 1285 343 l 1285 0 z "},"ı":{"ha":335,"x_min":139,"x_max":292,"o":"m 139 0 l 139 963 l 292 963 l 292 0 l 139 0 z "},"ł":{"ha":1361,"x_min":74,"x_max":1479,"o":"m 1479 154 l 1479 1 l 686 1 q 609 9 646 1 q 538 31 572 17 l 538 206 q 606 168 568 182 q 686 154 643 154 l 1479 154 m 439 553 l 439 88 q 326 224 367 139 q 286 403 286 310 l 286 492 l 74 404 l 74 557 l 286 644 l 286 964 l 439 964 l 439 706 l 654 793 l 654 640 l 439 553 z "},"ø":{"ha":1721,"x_min":139,"x_max":1496,"o":"m 1104 960 q 1256 928 1185 960 q 1381 844 1328 897 q 1465 720 1435 792 q 1496 568 1496 649 l 1496 390 q 1468 249 1496 317 l 1300 249 q 1335 315 1322 279 q 1347 390 1347 350 l 1347 568 q 1338 631 1347 600 q 1314 688 1329 661 l 436 168 q 529 149 482 149 l 1411 149 q 1278 40 1358 81 q 1104 0 1199 0 l 529 0 q 378 31 449 0 q 253 115 307 61 q 169 239 200 168 q 139 390 139 310 l 139 568 q 146 642 139 606 q 165 711 153 678 l 335 711 q 288 568 288 649 l 288 390 q 319 272 288 325 l 1196 792 q 1104 810 1154 810 l 222 810 q 355 919 275 879 q 529 960 435 960 l 1104 960 l 1104 960 z "},"œ":{"ha":2801,"x_min":139,"x_max":2501,"o":"m 1429 251 q 1448 206 1433 225 q 1485 174 1463 186 q 1535 155 1507 161 q 1592 149 1563 149 l 2433 149 l 2433 0 l 1586 0 q 1439 32 1511 0 q 1322 124 1367 64 q 1301 103 1311 113 q 1279 85 1290 93 l 1279 571 q 1260 665 1279 621 q 1208 742 1242 708 q 1131 794 1175 775 q 1036 813 1086 813 l 531 813 q 454 800 490 813 q 388 765 418 788 l 388 935 q 531 963 456 963 l 1036 963 q 1201 926 1125 963 q 1331 826 1278 889 q 1444 922 1375 886 q 1592 958 1513 958 l 2194 958 q 2253 951 2221 958 l 2253 797 q 2222 806 2238 803 q 2189 810 2206 810 l 1592 810 q 1538 799 1567 810 q 1485 768 1510 788 q 1445 722 1461 749 q 1429 664 1429 694 l 1429 514 l 2194 514 q 2253 524 2225 514 q 2304 553 2282 535 q 2340 598 2326 572 q 2353 654 2353 624 l 2353 914 q 2460 807 2419 874 q 2501 660 2501 740 q 2476 543 2501 597 q 2408 449 2450 489 q 2308 387 2365 410 q 2189 364 2251 364 l 1429 364 l 1429 251 m 1179 26 q 1110 7 1146 14 q 1036 0 1074 0 l 531 0 q 378 31 449 0 q 253 115 307 61 q 169 239 200 168 q 139 390 139 310 l 139 571 q 179 744 139 664 q 288 878 219 824 l 288 390 q 307 297 288 340 q 359 220 326 253 q 436 168 392 188 q 531 149 481 149 l 1036 149 q 1113 160 1076 149 q 1179 194 1149 172 l 1179 26 z "},"ß":{"ha":3039,"x_min":0,"x_max":0,"o":""},"Ð":{"ha":1713,"x_min":76,"x_max":1569,"o":"m 1171 963 q 1326 931 1254 963 q 1453 844 1399 899 q 1538 718 1507 790 q 1569 564 1569 646 l 1569 400 q 1538 244 1569 317 q 1451 117 1506 171 q 1325 31 1397 63 q 1171 0 1253 0 l 331 0 l 331 406 l 76 406 l 76 558 l 331 558 l 331 963 l 1171 963 m 1417 567 q 1397 661 1417 617 q 1344 739 1378 706 q 1265 792 1310 772 q 1171 811 1221 811 l 483 811 l 483 558 l 806 558 l 806 406 l 483 406 l 483 153 l 1172 153 q 1267 172 1222 153 q 1344 225 1311 192 q 1397 303 1378 258 q 1417 400 1417 349 l 1417 567 z "},"½":{"ha":1556,"x_min":0,"x_max":0,"o":""},"Þ":{"ha":1576,"x_min":139,"x_max":1397,"o":"m 390 836 l 1042 836 q 1178 810 1114 836 q 1293 733 1243 783 q 1371 617 1344 682 q 1397 481 1397 551 q 1394 428 1397 454 q 1382 376 1390 401 l 1217 376 q 1238 426 1231 400 q 1246 481 1246 453 q 1230 560 1246 522 q 1186 625 1214 597 q 1121 669 1158 653 q 1042 685 1083 685 l 390 685 l 390 836 m 1333 276 q 1206 165 1283 206 q 1042 125 1129 125 l 292 125 l 292 0 l 139 0 l 139 963 l 292 963 l 292 276 l 1042 276 l 1333 276 z "},"¼":{"ha":1539,"x_min":0,"x_max":0,"o":""},"¾":{"ha":1761,"x_min":0,"x_max":0,"o":""},"²":{"ha":821,"x_min":0,"x_max":0,"o":""},"ð":{"ha":1713,"x_min":58,"x_max":1519,"o":"m 1128 963 q 1280 931 1208 963 q 1405 847 1351 900 q 1489 722 1458 793 q 1519 571 1519 651 l 1519 390 q 1488 239 1519 310 q 1403 115 1457 168 q 1279 31 1350 61 q 1128 0 1208 0 l 307 0 l 307 411 l 58 411 l 58 561 l 307 561 l 307 963 l 1128 963 m 1369 574 q 1350 667 1369 624 q 1298 742 1331 710 q 1222 794 1265 775 q 1128 813 1178 813 l 456 813 l 456 561 l 771 561 l 771 411 l 456 411 l 456 149 l 1131 149 q 1223 168 1179 149 q 1299 220 1267 188 q 1351 297 1332 253 q 1369 390 1369 340 l 1369 574 z "},"³":{"ha":821,"x_min":0,"x_max":0,"o":""},"©":{"ha":1694,"x_min":0,"x_max":0,"o":""},"Á":{"ha":1489,"x_min":139,"x_max":1410,"o":"m 1292 846 q 1378 718 1346 790 q 1410 564 1410 646 l 1410 0 l 1257 0 l 1257 418 l 290 418 l 290 0 l 139 0 l 139 564 q 180 740 139 660 q 290 876 221 821 l 290 571 l 1257 571 q 1235 663 1256 619 q 1182 740 1215 707 q 1104 792 1149 772 q 1010 811 1060 811 l 535 811 q 458 798 494 811 q 390 761 421 785 l 390 933 q 538 963 458 963 l 1010 963 q 1164 931 1092 963 q 1292 846 1236 900 m 943 1272 l 676 1007 l 571 1113 l 838 1376 l 943 1272 z "},"Â":{"ha":1489,"x_min":139,"x_max":1410,"o":"m 761 1185 l 367 997 l 321 1093 l 761 1301 l 1201 1093 l 1156 997 l 761 1185 m 1292 846 q 1378 718 1346 790 q 1410 564 1410 646 l 1410 0 l 1257 0 l 1257 418 l 290 418 l 290 0 l 139 0 l 139 564 q 180 740 139 660 q 290 876 221 821 l 290 571 l 1257 571 q 1235 663 1256 619 q 1182 740 1215 707 q 1104 792 1149 772 q 1010 811 1060 811 l 535 811 q 458 798 494 811 q 390 761 421 785 l 390 933 q 538 963 458 963 l 1010 963 q 1164 931 1092 963 q 1292 846 1236 900 z "},"Ä":{"ha":1494,"x_min":139,"x_max":1410,"o":"m 1292 846 q 1378 718 1346 790 q 1410 564 1410 646 l 1410 0 l 1257 0 l 1257 418 l 290 418 l 290 0 l 139 0 l 139 564 q 180 740 139 660 q 290 876 221 821 l 290 571 l 1257 571 q 1235 663 1256 619 q 1182 740 1215 707 q 1104 792 1149 772 q 1010 811 1060 811 l 535 811 q 458 798 494 811 q 390 761 421 785 l 390 933 q 538 963 458 963 l 1010 963 q 1164 931 1092 963 q 1292 846 1236 900 m 510 1015 l 510 1183 l 671 1183 l 671 1015 l 510 1015 m 882 1015 l 882 1183 l 1044 1183 l 1044 1015 l 882 1015 z "},"À":{"ha":1489,"x_min":139,"x_max":1410,"o":"m 632 1379 l 897 1115 l 793 1010 l 526 1275 l 632 1379 m 1292 846 q 1378 718 1346 790 q 1410 564 1410 646 l 1410 0 l 1257 0 l 1257 418 l 290 418 l 290 0 l 139 0 l 139 564 q 180 740 139 660 q 290 876 221 821 l 290 571 l 1257 571 q 1235 663 1256 619 q 1182 740 1215 707 q 1104 792 1149 772 q 1010 811 1060 811 l 535 811 q 458 798 494 811 q 390 761 421 785 l 390 933 q 538 963 458 963 l 1010 963 q 1164 931 1092 963 q 1292 846 1236 900 z "},"Å":{"ha":1488,"x_min":139,"x_max":1410,"o":"m 1292 846 q 1378 718 1346 790 q 1410 564 1410 646 l 1410 0 l 1257 0 l 1257 418 l 290 418 l 290 0 l 139 0 l 139 564 q 180 740 139 660 q 290 876 221 821 l 290 571 l 1257 571 q 1235 663 1256 619 q 1182 740 1215 707 q 1104 792 1149 772 q 1010 811 1060 811 l 535 811 q 458 798 494 811 q 390 761 421 785 l 390 933 q 538 963 458 963 l 1010 963 q 1164 931 1092 963 q 1292 846 1236 900 m 668 1028 q 551 1078 600 1028 q 514 1131 527 1101 q 502 1196 502 1161 l 502 1212 q 514 1277 502 1246 q 550 1330 527 1307 q 603 1366 573 1353 q 668 1380 634 1380 l 837 1380 q 902 1366 871 1380 q 955 1330 932 1353 q 991 1277 978 1307 q 1005 1212 1005 1246 l 1005 1196 q 992 1131 1005 1161 q 956 1078 979 1101 q 902 1042 932 1055 q 837 1028 871 1028 l 668 1028 m 630 1251 q 614 1212 614 1235 l 614 1196 q 630 1157 614 1172 q 668 1142 645 1142 l 837 1142 q 876 1157 860 1142 q 893 1196 893 1172 l 893 1212 q 876 1251 893 1235 q 837 1267 860 1267 l 668 1267 q 646 1262 656 1267 q 630 1251 637 1257 z "},"Ã":{"ha":1489,"x_min":139,"x_max":1410,"o":"m 975 990 q 915 998 946 990 q 854 1022 885 1006 l 856 1022 q 719 1092 788 1057 q 583 1160 651 1126 q 559 1169 569 1167 q 540 1172 549 1172 q 535 1169 538 1172 q 532 1150 532 1167 l 532 1010 l 392 1010 l 392 1151 q 402 1222 392 1192 q 432 1274 413 1253 q 535 1313 474 1313 q 653 1281 593 1313 q 789 1213 719 1249 q 925 1143 858 1176 q 968 1129 953 1129 q 974 1133 971 1129 q 976 1153 976 1138 l 976 1293 l 1118 1293 l 1118 1151 q 1075 1031 1118 1074 l 1076 1031 q 975 990 1038 990 m 1292 846 q 1378 718 1346 790 q 1410 564 1410 646 l 1410 0 l 1257 0 l 1257 418 l 290 418 l 290 0 l 139 0 l 139 564 q 180 740 139 660 q 290 876 221 821 l 290 571 l 1257 571 q 1235 663 1256 619 q 1182 740 1215 707 q 1104 792 1149 772 q 1010 811 1060 811 l 535 811 q 458 798 494 811 q 390 761 421 785 l 390 933 q 538 963 458 963 l 1010 963 q 1164 931 1092 963 q 1292 846 1236 900 z "},"Ç":{"ha":1588,"x_min":163,"x_max":1371,"o":"m 560 -356 l 560 -212 l 715 -212 q 753 -195 739 -212 q 768 -156 768 -178 l 768 4 l 911 4 l 911 -156 q 895 -231 911 -194 q 852 -294 879 -267 q 789 -339 825 -322 q 711 -356 753 -356 l 560 -356 m 281 117 q 194 244 225 172 q 163 400 163 317 l 163 564 q 203 741 163 660 q 315 876 244 822 l 315 400 q 335 305 315 350 q 388 226 354 260 q 465 172 421 192 q 561 153 510 153 l 1371 153 l 1371 0 l 564 0 q 408 31 481 0 q 281 117 335 63 m 564 963 l 1371 963 l 1371 811 l 564 811 q 467 792 513 811 l 467 950 q 564 963 513 963 z "},"É":{"ha":1468,"x_min":133,"x_max":1328,"o":"m 1021 1275 l 754 1010 l 649 1115 l 915 1379 l 1021 1275 m 286 557 l 1328 557 l 1328 404 l 286 404 l 286 86 q 174 223 215 142 q 133 400 133 304 l 133 564 q 174 740 133 660 q 286 876 215 821 l 286 557 m 1328 963 l 1328 811 l 533 811 q 454 798 492 811 q 386 763 417 785 l 386 933 q 458 955 421 947 q 533 963 494 963 l 1328 963 m 386 201 q 454 165 417 178 q 533 153 492 153 l 1328 153 l 1328 0 l 533 0 q 386 28 457 0 l 386 201 z "},"Ê":{"ha":1468,"x_min":133,"x_max":1328,"o":"m 818 1225 l 424 1038 l 378 1133 l 818 1342 l 1258 1133 l 1213 1038 l 818 1225 m 286 557 l 1328 557 l 1328 404 l 286 404 l 286 86 q 174 223 215 142 q 133 400 133 304 l 133 564 q 174 740 133 660 q 286 876 215 821 l 286 557 m 1328 963 l 1328 811 l 533 811 q 454 798 492 811 q 386 763 417 785 l 386 933 q 458 955 421 947 q 533 963 494 963 l 1328 963 m 386 201 q 454 165 417 178 q 533 153 492 153 l 1328 153 l 1328 0 l 533 0 q 386 28 457 0 l 386 201 z "},"Ë":{"ha":1468,"x_min":133,"x_max":1328,"o":"m 575 1042 l 575 1210 l 736 1210 l 736 1042 l 575 1042 m 947 1042 l 947 1210 l 1110 1210 l 1110 1042 l 947 1042 m 286 557 l 1328 557 l 1328 404 l 286 404 l 286 86 q 174 223 215 142 q 133 400 133 304 l 133 564 q 174 740 133 660 q 286 876 215 821 l 286 557 m 1328 963 l 1328 811 l 533 811 q 454 798 492 811 q 386 763 417 785 l 386 933 q 458 955 421 947 q 533 963 494 963 l 1328 963 m 386 201 q 454 165 417 178 q 533 153 492 153 l 1328 153 l 1328 0 l 533 0 q 386 28 457 0 l 386 201 z "},"È":{"ha":1468,"x_min":133,"x_max":1328,"o":"m 657 1379 l 922 1115 l 818 1010 l 551 1275 l 657 1379 m 286 557 l 1328 557 l 1328 404 l 286 404 l 286 86 q 174 223 215 142 q 133 400 133 304 l 133 564 q 174 740 133 660 q 286 876 215 821 l 286 557 m 1328 963 l 1328 811 l 533 811 q 454 798 492 811 q 386 763 417 785 l 386 933 q 458 955 421 947 q 533 963 494 963 l 1328 963 m 386 201 q 454 165 417 178 q 533 153 492 153 l 1328 153 l 1328 0 l 533 0 q 386 28 457 0 l 386 201 z "},"Í":{"ha":335,"x_min":-28,"x_max":344,"o":"m 139 0 l 139 963 l 292 963 l 292 0 l 139 0 m 344 1272 l 78 1007 l -28 1113 l 239 1376 l 344 1272 z "},"Î":{"ha":335,"x_min":-242,"x_max":639,"o":"m 139 0 l 139 963 l 292 963 l 292 0 l 139 0 m 199 1194 l -196 1007 l -242 1103 l 199 1311 l 639 1103 l 593 1007 l 199 1194 z "},"Ï":{"ha":361,"x_min":-57,"x_max":478,"o":"m 139 0 l 139 963 l 292 963 l 292 0 l 139 0 m -57 1032 l -57 1200 l 104 1200 l 104 1032 l -57 1032 m 315 1032 l 315 1200 l 478 1200 l 478 1032 l 315 1032 z "},"Ì":{"ha":335,"x_min":-36,"x_max":335,"o":"m 139 0 l 139 963 l 292 963 l 292 0 l 139 0 m 69 1376 l 335 1113 l 231 1007 l -36 1272 l 69 1376 z "},"Ñ":{"ha":1615,"x_min":139,"x_max":1386,"o":"m 1024 990 q 964 998 994 990 q 903 1022 933 1006 l 904 1022 q 768 1092 836 1057 q 632 1160 700 1126 q 608 1169 618 1167 q 589 1172 597 1172 q 583 1169 586 1172 q 581 1150 581 1167 l 581 1010 l 440 1010 l 440 1151 q 451 1222 440 1192 q 481 1274 461 1253 q 583 1313 522 1313 q 701 1281 642 1313 q 838 1213 768 1249 q 974 1143 907 1176 q 1017 1129 1001 1129 q 1022 1133 1019 1129 q 1025 1153 1025 1138 l 1025 1293 l 1167 1293 l 1167 1151 q 1124 1031 1167 1074 l 1125 1031 q 1024 990 1086 990 m 1386 965 l 1386 179 q 1335 63 1378 110 q 1233 -1 1292 15 l 1233 965 l 1386 965 m 290 0 l 139 0 l 139 781 q 146 844 140 813 q 167 901 151 875 q 211 946 182 928 q 290 971 240 964 l 290 0 m 1133 -6 q 1018 65 1069 6 q 703 435 860 251 q 389 804 547 618 l 389 971 q 453 948 422 965 q 510 901 485 931 q 820 532 665 715 q 1133 164 975 349 l 1133 -6 z "},"Ó":{"ha":1700,"x_min":138,"x_max":1494,"o":"m 1019 1275 l 753 1010 l 647 1115 l 914 1379 l 1019 1275 m 1246 26 q 1176 7 1213 14 q 1103 0 1140 0 l 528 0 q 376 31 447 0 q 252 115 306 61 q 168 239 199 168 q 138 390 138 310 l 138 571 q 177 744 138 664 q 286 878 217 824 l 286 390 q 306 297 286 340 q 358 220 325 253 q 434 168 390 188 q 528 149 478 149 l 1103 149 q 1179 161 1143 149 q 1246 196 1215 174 l 1246 26 m 1103 963 q 1255 931 1183 963 q 1380 847 1326 900 q 1464 723 1433 794 q 1494 571 1494 651 l 1494 390 q 1454 217 1494 297 q 1346 85 1414 138 l 1346 571 q 1326 665 1346 621 q 1274 741 1307 708 q 1197 793 1242 774 q 1103 813 1153 813 l 528 813 q 451 800 488 813 q 385 765 415 788 l 385 936 q 453 956 418 949 q 528 963 489 963 l 1103 963 z "},"Ô":{"ha":1700,"x_min":138,"x_max":1494,"o":"m 867 1225 l 472 1038 l 426 1133 l 867 1342 l 1307 1133 l 1261 1038 l 867 1225 m 1246 26 q 1176 7 1213 14 q 1103 0 1140 0 l 528 0 q 376 31 447 0 q 252 115 306 61 q 168 239 199 168 q 138 390 138 310 l 138 571 q 177 744 138 664 q 286 878 217 824 l 286 390 q 306 297 286 340 q 358 220 325 253 q 434 168 390 188 q 528 149 478 149 l 1103 149 q 1179 161 1143 149 q 1246 196 1215 174 l 1246 26 m 1103 963 q 1255 931 1183 963 q 1380 847 1326 900 q 1464 723 1433 794 q 1494 571 1494 651 l 1494 390 q 1454 217 1494 297 q 1346 85 1414 138 l 1346 571 q 1326 665 1346 621 q 1274 741 1307 708 q 1197 793 1242 774 q 1103 813 1153 813 l 528 813 q 451 800 488 813 q 385 765 415 788 l 385 936 q 453 956 418 949 q 528 963 489 963 l 1103 963 z "},"Ö":{"ha":1700,"x_min":138,"x_max":1494,"o":"m 617 1042 l 617 1210 l 778 1210 l 778 1042 l 617 1042 m 989 1042 l 989 1210 l 1151 1210 l 1151 1042 l 989 1042 m 1246 26 q 1176 7 1213 14 q 1103 0 1140 0 l 528 0 q 376 31 447 0 q 252 115 306 61 q 168 239 199 168 q 138 390 138 310 l 138 571 q 177 744 138 664 q 286 878 217 824 l 286 390 q 306 297 286 340 q 358 220 325 253 q 434 168 390 188 q 528 149 478 149 l 1103 149 q 1179 161 1143 149 q 1246 196 1215 174 l 1246 26 m 1103 963 q 1255 931 1183 963 q 1380 847 1326 900 q 1464 723 1433 794 q 1494 571 1494 651 l 1494 390 q 1454 217 1494 297 q 1346 85 1414 138 l 1346 571 q 1326 665 1346 621 q 1274 741 1307 708 q 1197 793 1242 774 q 1103 813 1153 813 l 528 813 q 451 800 488 813 q 385 765 415 788 l 385 936 q 453 956 418 949 q 528 963 489 963 l 1103 963 z "},"Ò":{"ha":1700,"x_min":138,"x_max":1494,"o":"m 710 1379 l 975 1115 l 871 1010 l 604 1275 l 710 1379 m 1246 26 q 1176 7 1213 14 q 1103 0 1140 0 l 528 0 q 376 31 447 0 q 252 115 306 61 q 168 239 199 168 q 138 390 138 310 l 138 571 q 177 744 138 664 q 286 878 217 824 l 286 390 q 306 297 286 340 q 358 220 325 253 q 434 168 390 188 q 528 149 478 149 l 1103 149 q 1179 161 1143 149 q 1246 196 1215 174 l 1246 26 m 1103 963 q 1255 931 1183 963 q 1380 847 1326 900 q 1464 723 1433 794 q 1494 571 1494 651 l 1494 390 q 1454 217 1494 297 q 1346 85 1414 138 l 1346 571 q 1326 665 1346 621 q 1274 741 1307 708 q 1197 793 1242 774 q 1103 813 1153 813 l 528 813 q 451 800 488 813 q 385 765 415 788 l 385 936 q 453 956 418 949 q 528 963 489 963 l 1103 963 z "},"Õ":{"ha":1700,"x_min":138,"x_max":1494,"o":"m 1032 990 q 972 998 1003 990 q 911 1022 942 1006 l 913 1022 q 776 1092 844 1057 q 640 1160 708 1126 q 616 1169 626 1167 q 597 1172 606 1172 q 592 1169 594 1172 q 589 1150 589 1167 l 589 1010 l 449 1010 l 449 1151 q 459 1222 449 1192 q 489 1274 469 1253 q 592 1313 531 1313 q 710 1281 650 1313 q 846 1213 776 1249 q 982 1143 915 1176 q 1025 1129 1010 1129 q 1031 1133 1028 1129 q 1033 1153 1033 1138 l 1033 1293 l 1175 1293 l 1175 1151 q 1132 1031 1175 1074 l 1133 1031 q 1032 990 1094 990 m 1246 26 q 1176 7 1213 14 q 1103 0 1140 0 l 528 0 q 376 31 447 0 q 252 115 306 61 q 168 239 199 168 q 138 390 138 310 l 138 571 q 177 744 138 664 q 286 878 217 824 l 286 390 q 306 297 286 340 q 358 220 325 253 q 434 168 390 188 q 528 149 478 149 l 1103 149 q 1179 161 1143 149 q 1246 196 1215 174 l 1246 26 m 1103 963 q 1255 931 1183 963 q 1380 847 1326 900 q 1464 723 1433 794 q 1494 571 1494 651 l 1494 390 q 1454 217 1494 297 q 1346 85 1414 138 l 1346 571 q 1326 665 1346 621 q 1274 741 1307 708 q 1197 793 1242 774 q 1103 813 1153 813 l 528 813 q 451 800 488 813 q 385 765 415 788 l 385 936 q 453 956 418 949 q 528 963 489 963 l 1103 963 z "},"Š":{"ha":1486,"x_min":89,"x_max":1313,"o":"m 1096 1342 l 1142 1246 l 701 1038 l 261 1246 l 307 1342 l 701 1154 l 1096 1342 m 342 964 l 368 965 l 1263 965 l 1263 814 l 368 814 q 355 813 361 814 q 342 811 349 813 l 342 964 m 1035 558 q 1142 536 1092 558 q 1231 476 1193 514 q 1290 388 1268 439 q 1313 281 1313 338 q 1270 131 1313 197 q 1160 29 1228 64 l 1160 279 q 1124 369 1160 332 q 1035 406 1088 406 l 368 406 q 260 427 311 406 q 172 487 210 449 q 111 576 133 525 q 89 685 89 626 q 131 833 89 768 q 242 935 172 899 l 242 688 q 281 596 246 633 q 368 558 317 558 l 1035 558 m 1060 1 q 1047 0 1053 0 q 1035 0 1042 0 l 139 0 l 139 153 l 1035 153 q 1047 153 1042 153 q 1060 156 1053 153 l 1060 1 z "},"Ú":{"ha":1475,"x_min":151,"x_max":1379,"o":"m 918 1271 l 651 1006 l 546 1111 l 813 1375 l 918 1271 m 1126 28 q 979 0 1058 0 l 551 0 q 396 31 468 0 q 269 117 324 63 q 183 244 214 172 q 151 400 151 317 l 151 963 l 304 963 l 304 400 q 324 305 304 350 q 376 226 343 260 q 454 172 410 192 q 550 153 499 153 l 979 153 q 1058 165 1021 153 q 1126 201 1096 178 l 1126 28 m 1379 963 l 1379 400 q 1340 224 1379 304 q 1226 85 1300 143 l 1226 963 l 1379 963 z "},"Û":{"ha":1506,"x_min":151,"x_max":1379,"o":"m 739 1225 l 344 1038 l 299 1133 l 739 1342 l 1179 1133 l 1133 1038 l 739 1225 m 1126 28 q 979 0 1058 0 l 551 0 q 396 31 468 0 q 269 117 324 63 q 183 244 214 172 q 151 400 151 317 l 151 963 l 304 963 l 304 400 q 324 305 304 350 q 376 226 343 260 q 454 172 410 192 q 550 153 499 153 l 979 153 q 1058 165 1021 153 q 1126 201 1096 178 l 1126 28 m 1379 963 l 1379 400 q 1340 224 1379 304 q 1226 85 1300 143 l 1226 963 l 1379 963 z "},"Ü":{"ha":1529,"x_min":151,"x_max":1379,"o":"m 465 975 l 465 1143 l 626 1143 l 626 975 l 465 975 m 838 975 l 838 1143 l 1000 1143 l 1000 975 l 838 975 m 1126 28 q 979 0 1058 0 l 551 0 q 396 31 468 0 q 269 117 324 63 q 183 244 214 172 q 151 400 151 317 l 151 963 l 304 963 l 304 400 q 324 305 304 350 q 376 226 343 260 q 454 172 410 192 q 550 153 499 153 l 979 153 q 1058 165 1021 153 q 1126 201 1096 178 l 1126 28 m 1379 963 l 1379 400 q 1340 224 1379 304 q 1226 85 1300 143 l 1226 963 l 1379 963 z "},"Ù":{"ha":1429,"x_min":151,"x_max":1379,"o":"m 589 1379 l 854 1115 l 750 1010 l 483 1275 l 589 1379 m 1126 28 q 979 0 1058 0 l 551 0 q 396 31 468 0 q 269 117 324 63 q 183 244 214 172 q 151 400 151 317 l 151 963 l 304 963 l 304 400 q 324 305 304 350 q 376 226 343 260 q 454 172 410 192 q 550 153 499 153 l 979 153 q 1058 165 1021 153 q 1126 201 1096 178 l 1126 28 m 1379 963 l 1379 400 q 1340 224 1379 304 q 1226 85 1300 143 l 1226 963 l 1379 963 z "},"Ý":{"ha":1508,"x_min":125,"x_max":1297,"o":"m 901 1272 l 635 1007 l 529 1113 l 796 1376 l 901 1272 m 639 0 l 639 289 l 525 289 q 476 291 500 289 q 429 300 453 293 l 429 460 q 524 442 471 442 l 897 442 q 992 461 947 442 q 1072 514 1038 481 q 1125 592 1106 547 q 1144 686 1144 636 l 1144 963 l 1297 963 l 1297 689 q 1266 533 1297 606 q 1179 406 1235 461 q 1053 320 1125 351 q 897 289 981 289 l 792 289 l 792 0 l 639 0 m 243 406 q 156 533 188 461 q 125 689 125 606 l 125 963 l 278 963 l 278 374 q 260 389 268 381 q 243 406 251 397 z "},"Ÿ":{"ha":1508,"x_min":125,"x_max":1297,"o":"m 472 767 l 472 935 l 633 935 l 633 767 l 472 767 m 844 767 l 844 935 l 1007 935 l 1007 767 l 844 767 m 639 0 l 639 289 l 525 289 q 476 291 500 289 q 429 300 453 293 l 429 460 q 524 442 471 442 l 897 442 q 992 461 947 442 q 1072 514 1038 481 q 1125 592 1106 547 q 1144 686 1144 636 l 1144 963 l 1297 963 l 1297 689 q 1266 533 1297 606 q 1179 406 1235 461 q 1053 320 1125 351 q 897 289 981 289 l 792 289 l 792 0 l 639 0 m 243 406 q 156 533 188 461 q 125 689 125 606 l 125 963 l 278 963 l 278 374 q 260 389 268 381 q 243 406 251 397 z "},"Ž":{"ha":1514,"x_min":125,"x_max":1347,"o":"m 1119 1342 l 1165 1246 l 725 1038 l 285 1246 l 331 1342 l 725 1154 l 1119 1342 m 1097 811 l 133 811 l 133 963 l 1097 963 l 1097 811 m 275 6 q 210 35 238 14 q 163 85 182 57 q 135 147 144 114 q 125 214 125 181 q 144 301 125 267 q 188 357 164 336 q 250 394 214 382 q 469 470 356 431 q 699 551 583 510 q 928 631 814 592 q 1149 708 1043 671 q 1180 723 1164 714 q 1196 756 1196 732 l 1196 958 q 1277 920 1247 950 q 1322 856 1307 890 q 1342 793 1338 822 q 1347 757 1347 764 q 1331 672 1347 706 q 1296 618 1315 638 q 1246 581 1274 593 l 303 251 q 281 233 288 244 q 275 208 275 221 l 275 6 m 375 153 l 1339 153 l 1339 0 l 375 0 l 375 153 z "},"á":{"ha":1611,"x_min":129,"x_max":1325,"o":"m 1011 961 q 1133 937 1076 961 q 1233 870 1190 913 q 1301 771 1276 828 q 1325 649 1325 714 l 1325 0 l 1176 0 l 1176 446 l 440 446 q 379 435 410 446 l 379 592 q 436 596 408 596 l 1176 596 l 1176 649 q 1163 712 1176 682 q 1126 764 1149 742 q 1074 799 1104 786 q 1011 811 1044 811 l 339 811 l 339 961 l 1011 961 m 1076 0 l 440 0 q 323 24 379 0 q 224 88 267 47 q 155 183 181 129 q 129 297 129 236 q 172 447 129 381 q 281 553 214 514 l 281 296 q 293 238 281 265 q 327 192 306 211 q 376 160 349 172 q 436 149 404 149 l 1076 149 l 1076 0 m 938 1275 l 671 1010 l 565 1115 l 832 1379 l 938 1275 z "},"â":{"ha":1611,"x_min":129,"x_max":1325,"o":"m 1011 961 q 1133 937 1076 961 q 1233 870 1190 913 q 1301 771 1276 828 q 1325 649 1325 714 l 1325 0 l 1176 0 l 1176 446 l 440 446 q 379 435 410 446 l 379 592 q 436 596 408 596 l 1176 596 l 1176 649 q 1163 712 1176 682 q 1126 764 1149 742 q 1074 799 1104 786 q 1011 811 1044 811 l 339 811 l 339 961 l 1011 961 m 1076 0 l 440 0 q 323 24 379 0 q 224 88 267 47 q 155 183 181 129 q 129 297 129 236 q 172 447 129 381 q 281 553 214 514 l 281 296 q 293 238 281 265 q 327 192 306 211 q 376 160 349 172 q 436 149 404 149 l 1076 149 l 1076 0 m 754 1225 l 360 1038 l 314 1133 l 754 1342 l 1194 1133 l 1149 1038 l 754 1225 z "},"ä":{"ha":1611,"x_min":129,"x_max":1325,"o":"m 1011 961 q 1133 937 1076 961 q 1233 870 1190 913 q 1301 771 1276 828 q 1325 649 1325 714 l 1325 0 l 1176 0 l 1176 446 l 440 446 q 379 435 410 446 l 379 592 q 436 596 408 596 l 1176 596 l 1176 649 q 1163 712 1176 682 q 1126 764 1149 742 q 1074 799 1104 786 q 1011 811 1044 811 l 339 811 l 339 961 l 1011 961 m 1076 0 l 440 0 q 323 24 379 0 q 224 88 267 47 q 155 183 181 129 q 129 297 129 236 q 172 447 129 381 q 281 553 214 514 l 281 296 q 293 238 281 265 q 327 192 306 211 q 376 160 349 172 q 436 149 404 149 l 1076 149 l 1076 0 m 500 1024 l 500 1192 l 661 1192 l 661 1024 l 500 1024 m 872 1024 l 872 1192 l 1035 1192 l 1035 1024 l 872 1024 z "},"à":{"ha":1611,"x_min":129,"x_max":1325,"o":"m 1011 961 q 1133 937 1076 961 q 1233 870 1190 913 q 1301 771 1276 828 q 1325 649 1325 714 l 1325 0 l 1176 0 l 1176 446 l 440 446 q 379 435 410 446 l 379 592 q 436 596 408 596 l 1176 596 l 1176 649 q 1163 712 1176 682 q 1126 764 1149 742 q 1074 799 1104 786 q 1011 811 1044 811 l 339 811 l 339 961 l 1011 961 m 1076 0 l 440 0 q 323 24 379 0 q 224 88 267 47 q 155 183 181 129 q 129 297 129 236 q 172 447 129 381 q 281 553 214 514 l 281 296 q 293 238 281 265 q 327 192 306 211 q 376 160 349 172 q 436 149 404 149 l 1076 149 l 1076 0 m 651 1379 l 917 1115 l 813 1010 l 546 1275 l 651 1379 z "},"å":{"ha":1611,"x_min":129,"x_max":1325,"o":"m 1011 961 q 1133 937 1076 961 q 1233 870 1190 913 q 1301 771 1276 828 q 1325 649 1325 714 l 1325 0 l 1176 0 l 1176 446 l 440 446 q 379 435 410 446 l 379 592 q 436 596 408 596 l 1176 596 l 1176 649 q 1163 712 1176 682 q 1126 764 1149 742 q 1074 799 1104 786 q 1011 811 1044 811 l 339 811 l 339 961 l 1011 961 m 1076 0 l 440 0 q 323 24 379 0 q 224 88 267 47 q 155 183 181 129 q 129 297 129 236 q 172 447 129 381 q 281 553 214 514 l 281 296 q 293 238 281 265 q 327 192 306 211 q 376 160 349 172 q 436 149 404 149 l 1076 149 l 1076 0 m 656 1033 q 522 1089 578 1033 q 481 1149 496 1115 q 467 1222 467 1183 l 467 1240 q 481 1314 467 1279 q 522 1374 496 1349 q 582 1415 547 1400 q 656 1431 617 1431 l 846 1431 q 919 1415 885 1431 q 980 1374 954 1400 q 1021 1314 1006 1349 q 1036 1240 1036 1279 l 1036 1222 q 1022 1149 1036 1183 q 981 1090 1007 1115 q 919 1049 954 1064 q 846 1033 885 1033 l 656 1033 m 613 1285 q 594 1240 594 1267 l 594 1222 q 612 1178 594 1196 q 656 1161 629 1161 l 846 1161 q 891 1178 872 1161 q 910 1222 910 1196 l 910 1240 q 891 1285 910 1267 q 846 1303 872 1303 l 656 1303 q 631 1297 642 1303 q 613 1285 619 1292 z "},"ã":{"ha":1611,"x_min":129,"x_max":1325,"o":"m 1011 961 q 1133 937 1076 961 q 1233 870 1190 913 q 1301 771 1276 828 q 1325 649 1325 714 l 1325 0 l 1176 0 l 1176 446 l 440 446 q 379 435 410 446 l 379 592 q 436 596 408 596 l 1176 596 l 1176 649 q 1163 712 1176 682 q 1126 764 1149 742 q 1074 799 1104 786 q 1011 811 1044 811 l 339 811 l 339 961 l 1011 961 m 1076 0 l 440 0 q 323 24 379 0 q 224 88 267 47 q 155 183 181 129 q 129 297 129 236 q 172 447 129 381 q 281 553 214 514 l 281 296 q 293 238 281 265 q 327 192 306 211 q 376 160 349 172 q 436 149 404 149 l 1076 149 l 1076 0 m 967 1024 q 907 1031 938 1024 q 846 1056 876 1039 l 847 1056 q 711 1125 779 1090 q 575 1193 643 1160 q 551 1203 561 1200 q 532 1206 540 1206 q 526 1203 529 1206 q 524 1183 524 1200 l 524 1043 l 383 1043 l 383 1185 q 394 1256 383 1225 q 424 1307 404 1286 q 526 1346 465 1346 q 644 1314 585 1346 q 781 1246 711 1282 q 917 1176 850 1210 q 960 1163 944 1163 q 965 1167 963 1163 q 968 1186 968 1171 l 968 1326 l 1110 1326 l 1110 1185 q 1067 1064 1110 1107 l 1068 1064 q 967 1024 1029 1024 z "},"ç":{"ha":1588,"x_min":163,"x_max":1371,"o":"m 560 -358 l 560 -215 l 715 -215 q 753 -198 739 -215 q 768 -158 768 -181 l 768 1 l 911 1 l 911 -158 q 895 -233 911 -197 q 852 -297 879 -269 q 789 -342 825 -325 q 711 -358 753 -358 l 560 -358 m 281 117 q 194 244 225 172 q 163 400 163 317 l 163 564 q 203 741 163 660 q 315 876 244 822 l 315 400 q 335 305 315 350 q 388 226 354 260 q 465 172 421 192 q 561 153 510 153 l 1371 153 l 1371 0 l 564 0 q 408 31 481 0 q 281 117 335 63 m 564 963 l 1371 963 l 1371 811 l 564 811 q 467 792 513 811 l 467 950 q 564 963 513 963 z "},"é":{"ha":1478,"x_min":139,"x_max":1360,"o":"m 288 36 q 182 120 225 67 q 139 247 139 174 l 139 671 q 180 813 139 749 q 288 917 221 878 l 288 514 l 1053 514 q 1113 526 1083 514 q 1163 557 1142 538 q 1198 603 1185 576 q 1211 663 1211 631 q 1198 722 1211 694 q 1163 768 1185 749 q 1111 799 1140 788 q 1050 810 1082 810 l 1047 810 l 436 810 l 436 960 l 451 961 l 1053 961 q 1169 938 1114 961 q 1267 873 1225 914 q 1335 778 1310 832 q 1360 663 1360 724 q 1335 546 1360 600 q 1267 451 1310 492 q 1167 387 1224 410 q 1047 364 1110 364 l 288 364 l 288 251 l 288 36 m 1333 149 l 1333 0 l 436 0 l 436 149 l 1333 149 m 926 1272 l 660 1007 l 554 1113 l 821 1376 l 926 1272 z "},"ê":{"ha":1474,"x_min":140,"x_max":1361,"o":"m 289 36 q 183 120 226 67 q 140 247 140 174 l 140 671 q 181 813 140 749 q 289 917 222 878 l 289 514 l 1054 514 q 1114 526 1085 514 q 1165 557 1143 538 q 1199 603 1186 576 q 1213 663 1213 631 q 1199 722 1213 694 q 1164 768 1186 749 q 1113 799 1142 788 q 1051 810 1083 810 l 1049 810 l 438 810 l 438 960 l 453 961 l 1054 961 q 1171 938 1115 961 q 1269 873 1226 914 q 1336 778 1311 832 q 1361 663 1361 724 q 1336 546 1361 600 q 1268 451 1311 492 q 1168 387 1225 410 q 1049 364 1111 364 l 289 364 l 289 251 l 289 36 m 1335 149 l 1335 0 l 438 0 l 438 149 l 1335 149 m 768 1225 l 374 1038 l 328 1133 l 768 1342 l 1208 1133 l 1163 1038 l 768 1225 z "},"ë":{"ha":1474,"x_min":140,"x_max":1361,"o":"m 289 36 q 183 120 226 67 q 140 247 140 174 l 140 671 q 181 813 140 749 q 289 917 222 878 l 289 514 l 1054 514 q 1114 526 1085 514 q 1165 557 1143 538 q 1199 603 1186 576 q 1213 663 1213 631 q 1199 722 1213 694 q 1164 768 1186 749 q 1113 799 1142 788 q 1051 810 1083 810 l 1049 810 l 438 810 l 438 960 l 453 961 l 1054 961 q 1171 938 1115 961 q 1269 873 1226 914 q 1336 778 1311 832 q 1361 663 1361 724 q 1336 546 1361 600 q 1268 451 1311 492 q 1168 387 1225 410 q 1049 364 1111 364 l 289 364 l 289 251 l 289 36 m 1335 149 l 1335 0 l 438 0 l 438 149 l 1335 149 m 479 1039 l 479 1207 l 640 1207 l 640 1039 l 479 1039 m 851 1039 l 851 1207 l 1014 1207 l 1014 1039 l 851 1039 z "},"è":{"ha":1600,"x_min":139,"x_max":1360,"o":"m 594 1378 l 860 1114 l 756 1008 l 489 1274 l 594 1378 m 288 36 q 182 120 225 67 q 139 247 139 174 l 139 671 q 180 813 139 749 q 288 917 221 878 l 288 514 l 1053 514 q 1113 526 1083 514 q 1163 557 1142 538 q 1198 603 1185 576 q 1211 663 1211 631 q 1198 722 1211 694 q 1163 768 1185 749 q 1111 799 1140 788 q 1050 810 1082 810 l 1047 810 l 436 810 l 436 960 l 451 961 l 1053 961 q 1169 938 1114 961 q 1267 873 1225 914 q 1335 778 1310 832 q 1360 663 1360 724 q 1335 546 1360 600 q 1267 451 1310 492 q 1167 387 1224 410 q 1047 364 1110 364 l 288 364 l 288 251 l 288 36 m 1333 149 l 1333 0 l 436 0 l 436 149 l 1333 149 z "},"í":{"ha":368,"x_min":0,"x_max":372,"o":"m 139 0 l 139 963 l 292 963 l 292 0 l 139 0 m 372 1342 l 106 1076 l 0 1182 l 267 1446 l 372 1342 z "},"î":{"ha":368,"x_min":-250,"x_max":631,"o":"m 139 0 l 139 963 l 292 963 l 292 0 l 139 0 m 190 1222 l -204 1035 l -250 1131 l 190 1339 l 631 1131 l 585 1035 l 190 1222 z "},"ï":{"ha":368,"x_min":-71,"x_max":464,"o":"m 139 0 l 139 963 l 292 963 l 292 0 l 139 0 m -71 1043 l -71 1211 l 90 1211 l 90 1043 l -71 1043 m 301 1043 l 301 1211 l 464 1211 l 464 1043 l 301 1043 z "},"ì":{"ha":368,"x_min":-11,"x_max":360,"o":"m 139 0 l 139 963 l 292 963 l 292 0 l 139 0 m 94 1376 l 360 1113 l 256 1007 l -11 1272 l 94 1376 z "},"ñ":{"ha":1615,"x_min":139,"x_max":1313,"o":"m 288 811 l 288 0 l 139 0 l 139 963 l 922 963 q 1095 922 1015 963 q 1228 811 1175 881 l 288 811 m 1285 714 q 1313 569 1313 646 l 1313 0 l 1164 0 l 1164 569 q 1151 647 1164 610 q 1117 714 1139 683 l 1285 714 m 875 1032 q 815 1040 846 1032 q 754 1064 785 1047 l 756 1064 q 619 1133 688 1099 q 483 1201 551 1168 q 459 1211 469 1208 q 440 1214 449 1214 q 435 1211 438 1214 q 432 1192 432 1208 l 432 1051 l 292 1051 l 292 1193 q 302 1264 292 1233 q 332 1315 313 1294 q 435 1354 374 1354 q 553 1322 493 1354 q 689 1254 619 1290 q 825 1185 758 1218 q 868 1171 853 1171 q 874 1175 871 1171 q 876 1194 876 1179 l 876 1335 l 1018 1335 l 1018 1193 q 975 1072 1018 1115 l 976 1072 q 875 1032 938 1032 z "},"ó":{"ha":1700,"x_min":138,"x_max":1494,"o":"m 1246 26 q 1176 7 1213 14 q 1103 0 1140 0 l 528 0 q 376 31 447 0 q 252 115 306 61 q 168 239 199 168 q 138 390 138 310 l 138 571 q 177 744 138 664 q 286 878 217 824 l 286 390 q 306 297 286 340 q 358 220 325 253 q 434 168 390 188 q 528 149 478 149 l 1103 149 q 1179 161 1143 149 q 1246 196 1215 174 l 1246 26 m 1103 963 q 1255 931 1183 963 q 1380 847 1326 900 q 1464 723 1433 794 q 1494 571 1494 651 l 1494 390 q 1454 217 1494 297 q 1346 85 1414 138 l 1346 571 q 1326 665 1346 621 q 1274 741 1307 708 q 1197 793 1242 774 q 1103 813 1153 813 l 528 813 q 451 800 488 813 q 385 765 415 788 l 385 936 q 453 956 418 949 q 528 963 489 963 l 1103 963 m 989 1272 l 722 1007 l 617 1113 l 883 1376 l 989 1272 z "},"ô":{"ha":1700,"x_min":138,"x_max":1494,"o":"m 867 1225 l 472 1038 l 426 1133 l 867 1342 l 1307 1133 l 1261 1038 l 867 1225 m 1246 26 q 1176 7 1213 14 q 1103 0 1140 0 l 528 0 q 376 31 447 0 q 252 115 306 61 q 168 239 199 168 q 138 390 138 310 l 138 571 q 177 744 138 664 q 286 878 217 824 l 286 390 q 306 297 286 340 q 358 220 325 253 q 434 168 390 188 q 528 149 478 149 l 1103 149 q 1179 161 1143 149 q 1246 196 1215 174 l 1246 26 m 1103 963 q 1255 931 1183 963 q 1380 847 1326 900 q 1464 723 1433 794 q 1494 571 1494 651 l 1494 390 q 1454 217 1494 297 q 1346 85 1414 138 l 1346 571 q 1326 665 1346 621 q 1274 741 1307 708 q 1197 793 1242 774 q 1103 813 1153 813 l 528 813 q 451 800 488 813 q 385 765 415 788 l 385 936 q 453 956 418 949 q 528 963 489 963 l 1103 963 z "},"ö":{"ha":1788,"x_min":138,"x_max":1494,"o":"m 1246 26 q 1176 7 1213 14 q 1103 0 1140 0 l 528 0 q 376 31 447 0 q 252 115 306 61 q 168 239 199 168 q 138 390 138 310 l 138 571 q 177 744 138 664 q 286 878 217 824 l 286 390 q 306 297 286 340 q 358 220 325 253 q 434 168 390 188 q 528 149 478 149 l 1103 149 q 1179 161 1143 149 q 1246 196 1215 174 l 1246 26 m 1103 963 q 1255 931 1183 963 q 1380 847 1326 900 q 1464 723 1433 794 q 1494 571 1494 651 l 1494 390 q 1454 217 1494 297 q 1346 85 1414 138 l 1346 571 q 1326 665 1346 621 q 1274 741 1307 708 q 1197 793 1242 774 q 1103 813 1153 813 l 528 813 q 451 800 488 813 q 385 765 415 788 l 385 936 q 453 956 418 949 q 528 963 489 963 l 1103 963 m 565 1067 l 565 1235 l 726 1235 l 726 1067 l 565 1067 m 938 1067 l 938 1235 l 1100 1235 l 1100 1067 l 938 1067 z "},"ò":{"ha":1700,"x_min":138,"x_max":1494,"o":"m 710 1379 l 975 1115 l 871 1010 l 604 1275 l 710 1379 m 1246 26 q 1176 7 1213 14 q 1103 0 1140 0 l 528 0 q 376 31 447 0 q 252 115 306 61 q 168 239 199 168 q 138 390 138 310 l 138 571 q 177 744 138 664 q 286 878 217 824 l 286 390 q 306 297 286 340 q 358 220 325 253 q 434 168 390 188 q 528 149 478 149 l 1103 149 q 1179 161 1143 149 q 1246 196 1215 174 l 1246 26 m 1103 963 q 1255 931 1183 963 q 1380 847 1326 900 q 1464 723 1433 794 q 1494 571 1494 651 l 1494 390 q 1454 217 1494 297 q 1346 85 1414 138 l 1346 571 q 1326 665 1346 621 q 1274 741 1307 708 q 1197 793 1242 774 q 1103 813 1153 813 l 528 813 q 451 800 488 813 q 385 765 415 788 l 385 936 q 453 956 418 949 q 528 963 489 963 l 1103 963 z "},"õ":{"ha":1700,"x_min":138,"x_max":1494,"o":"m 1081 1004 q 1021 1012 1051 1004 q 960 1036 990 1019 l 961 1036 q 825 1106 893 1071 q 689 1174 757 1140 q 665 1183 675 1181 q 646 1186 654 1186 q 640 1183 643 1186 q 638 1164 638 1181 l 638 1024 l 497 1024 l 497 1165 q 508 1236 497 1206 q 538 1288 518 1267 q 640 1326 579 1326 q 758 1294 699 1326 q 894 1226 825 1263 q 1031 1157 964 1190 q 1074 1143 1058 1143 q 1079 1147 1076 1143 q 1082 1167 1082 1151 l 1082 1307 l 1224 1307 l 1224 1165 q 1181 1044 1224 1088 l 1182 1044 q 1081 1004 1143 1004 m 1246 26 q 1176 7 1213 14 q 1103 0 1140 0 l 528 0 q 376 31 447 0 q 252 115 306 61 q 168 239 199 168 q 138 390 138 310 l 138 571 q 177 744 138 664 q 286 878 217 824 l 286 390 q 306 297 286 340 q 358 220 325 253 q 434 168 390 188 q 528 149 478 149 l 1103 149 q 1179 161 1143 149 q 1246 196 1215 174 l 1246 26 m 1103 963 q 1255 931 1183 963 q 1380 847 1326 900 q 1464 723 1433 794 q 1494 571 1494 651 l 1494 390 q 1454 217 1494 297 q 1346 85 1414 138 l 1346 571 q 1326 665 1346 621 q 1274 741 1307 708 q 1197 793 1242 774 q 1103 813 1153 813 l 528 813 q 451 800 488 813 q 385 765 415 788 l 385 936 q 453 956 418 949 q 528 963 489 963 l 1103 963 z "},"š":{"ha":1486,"x_min":89,"x_max":1313,"o":"m 1106 1342 l 1151 1246 l 711 1038 l 271 1246 l 317 1342 l 711 1154 l 1106 1342 m 342 964 l 368 965 l 1263 965 l 1263 814 l 368 814 q 355 813 361 814 q 342 811 349 813 l 342 964 m 1035 558 q 1142 536 1092 558 q 1231 476 1193 514 q 1290 388 1268 439 q 1313 281 1313 338 q 1270 131 1313 197 q 1160 29 1228 64 l 1160 279 q 1124 369 1160 332 q 1035 406 1088 406 l 368 406 q 260 427 311 406 q 172 487 210 449 q 111 576 133 525 q 89 685 89 626 q 131 833 89 768 q 242 935 172 899 l 242 688 q 281 596 246 633 q 368 558 317 558 l 1035 558 m 1060 1 q 1047 0 1053 0 q 1035 0 1042 0 l 139 0 l 139 153 l 1035 153 q 1047 153 1042 153 q 1060 156 1053 153 l 1060 1 z "},"ú":{"ha":1475,"x_min":139,"x_max":1313,"o":"m 288 85 q 179 219 219 139 q 139 393 139 300 l 139 963 l 288 963 l 288 85 m 1313 963 l 1313 0 l 529 0 q 386 28 454 0 l 386 197 q 452 163 417 175 q 526 150 488 150 l 1164 150 l 1164 963 l 1313 963 m 956 1249 l 689 983 l 583 1089 l 850 1353 l 956 1249 z "},"û":{"ha":1493,"x_min":139,"x_max":1313,"o":"m 288 85 q 179 219 219 139 q 139 393 139 300 l 139 963 l 288 963 l 288 85 m 1313 963 l 1313 0 l 529 0 q 386 28 454 0 l 386 197 q 452 163 417 175 q 526 150 488 150 l 1164 150 l 1164 963 l 1313 963 m 699 1213 l 304 1025 l 258 1121 l 699 1329 l 1139 1121 l 1093 1025 l 699 1213 z "},"ü":{"ha":1475,"x_min":139,"x_max":1313,"o":"m 288 85 q 179 219 219 139 q 139 393 139 300 l 139 963 l 288 963 l 288 85 m 1313 963 l 1313 0 l 529 0 q 386 28 454 0 l 386 197 q 452 163 417 175 q 526 150 488 150 l 1164 150 l 1164 963 l 1313 963 m 456 964 l 456 1132 l 617 1132 l 617 964 l 456 964 m 828 964 l 828 1132 l 990 1132 l 990 964 l 828 964 z "},"ù":{"ha":1493,"x_min":139,"x_max":1313,"o":"m 583 1353 l 849 1089 l 744 983 l 478 1249 l 583 1353 m 288 85 q 179 219 219 139 q 139 393 139 300 l 139 963 l 288 963 l 288 85 m 1313 963 l 1313 0 l 529 0 q 386 28 454 0 l 386 197 q 452 163 417 175 q 526 150 488 150 l 1164 150 l 1164 963 l 1313 963 z "},"ý":{"ha":1493,"x_min":110,"x_max":1256,"o":"m 500 386 q 349 417 419 386 q 224 501 278 449 q 140 626 171 554 q 110 778 110 697 l 110 963 l 258 963 l 258 778 q 277 685 258 729 q 328 607 296 640 q 405 554 361 574 q 497 535 449 535 l 1107 535 l 1107 963 l 1256 963 l 1256 390 q 1249 317 1256 353 q 1229 249 1243 281 l 1060 249 q 1094 313 1082 278 q 1107 386 1107 347 l 500 386 m 1172 149 q 1040 40 1119 81 q 865 0 960 0 l 138 0 l 138 149 l 867 149 l 1172 149 m 897 1275 l 631 1010 l 525 1115 l 792 1379 l 897 1275 z "},"ÿ":{"ha":1467,"x_min":110,"x_max":1256,"o":"m 500 386 q 349 417 419 386 q 224 501 278 449 q 140 626 171 554 q 110 778 110 697 l 110 963 l 258 963 l 258 778 q 277 685 258 729 q 328 607 296 640 q 405 554 361 574 q 497 535 449 535 l 1107 535 l 1107 963 l 1256 963 l 1256 390 q 1249 317 1256 353 q 1229 249 1243 281 l 1060 249 q 1094 313 1082 278 q 1107 386 1107 347 l 500 386 m 1172 149 q 1040 40 1119 81 q 865 0 960 0 l 138 0 l 138 149 l 867 149 l 1172 149 m 436 947 l 436 1115 l 597 1115 l 597 947 l 436 947 m 808 947 l 808 1115 l 971 1115 l 971 947 l 808 947 z "},"ž":{"ha":1514,"x_min":139,"x_max":1435,"o":"m 954 811 l 142 811 l 142 963 l 1175 963 l 954 811 m 1417 149 l 1417 0 l 139 0 l 139 139 l 154 149 l 426 149 l 1417 149 m 1353 963 l 1435 963 l 1435 831 l 574 247 l 301 247 l 1353 963 m 1175 1342 l 1221 1246 l 781 1038 l 340 1246 l 386 1342 l 781 1154 l 1175 1342 z "}," ":{"ha":521,"x_min":0,"x_max":0,"o":""},"€":{"ha":1560,"x_min":103,"x_max":1376,"o":"m 600 810 q 464 767 525 810 q 375 658 403 725 l 1344 658 l 1344 510 l 357 510 l 357 450 l 1344 450 l 1344 301 l 374 301 q 462 192 401 235 q 597 149 522 149 l 1376 149 l 1376 0 l 600 0 q 448 31 519 0 q 324 114 376 61 q 260 201 288 151 q 219 301 233 250 l 103 301 l 103 450 l 207 450 l 207 510 l 103 510 l 103 658 l 218 658 q 267 778 232 724 q 353 874 303 833 q 467 937 404 914 q 600 960 529 960 l 1376 960 l 1376 810 l 600 810 l 600 810 z "},"Ă":{"ha":1489,"x_min":139,"x_max":1410,"o":"m 610 1219 q 627 1175 610 1193 q 671 1157 644 1157 l 888 1157 q 931 1175 913 1157 q 950 1219 950 1193 l 950 1261 l 1078 1261 l 1078 1219 q 1063 1147 1078 1181 q 1022 1087 1049 1113 q 961 1046 996 1061 q 888 1031 926 1031 l 671 1031 q 538 1085 594 1031 q 497 1146 511 1111 q 482 1219 482 1181 l 482 1261 l 610 1261 l 610 1219 m 1292 846 q 1378 718 1346 790 q 1410 564 1410 646 l 1410 0 l 1257 0 l 1257 418 l 290 418 l 290 0 l 139 0 l 139 564 q 180 740 139 660 q 290 876 221 821 l 290 571 l 1257 571 q 1235 663 1256 619 q 1182 740 1215 707 q 1104 792 1149 772 q 1010 811 1060 811 l 535 811 q 458 798 494 811 q 390 761 421 785 l 390 933 q 538 963 458 963 l 1010 963 q 1164 931 1092 963 q 1292 846 1236 900 z "},"Ā":{"ha":1489,"x_min":139,"x_max":1410,"o":"m 439 1144 l 1082 1144 l 1082 1039 l 439 1039 l 439 1144 m 1292 846 q 1378 718 1346 790 q 1410 564 1410 646 l 1410 0 l 1257 0 l 1257 418 l 290 418 l 290 0 l 139 0 l 139 564 q 180 740 139 660 q 290 876 221 821 l 290 571 l 1257 571 q 1235 663 1256 619 q 1182 740 1215 707 q 1104 792 1149 772 q 1010 811 1060 811 l 535 811 q 458 798 494 811 q 390 761 421 785 l 390 933 q 538 963 458 963 l 1010 963 q 1164 931 1092 963 q 1292 846 1236 900 z "},"Ą":{"ha":1488,"x_min":139,"x_max":1528,"o":"m 1292 846 q 1378 718 1346 790 q 1410 564 1410 646 l 1410 0 l 1257 0 l 1257 418 l 290 418 l 290 0 l 139 0 l 139 564 q 180 740 139 660 q 290 876 221 821 l 290 571 l 1257 571 q 1235 663 1256 619 q 1182 740 1215 707 q 1104 792 1149 772 q 1010 811 1060 811 l 535 811 q 458 798 494 811 q 390 761 421 785 l 390 933 q 538 963 458 963 l 1010 963 q 1164 931 1092 963 q 1292 846 1236 900 m 1316 -254 q 1271 -245 1293 -254 q 1232 -223 1249 -237 q 1204 -189 1214 -209 q 1194 -145 1194 -169 l 1194 -143 q 1211 -74 1194 -106 q 1257 -20 1229 -42 l 1281 2 l 1401 2 l 1310 -84 q 1288 -110 1298 -96 q 1278 -137 1278 -123 q 1281 -150 1278 -144 q 1296 -165 1288 -162 q 1319 -170 1305 -168 l 1528 -170 l 1528 -254 l 1316 -254 z "},"Ć":{"ha":1493,"x_min":163,"x_max":1371,"o":"m 1015 1372 l 749 1107 l 643 1213 l 910 1476 l 1015 1372 m 281 117 q 194 244 225 172 q 163 400 163 317 l 163 564 q 203 741 163 660 q 315 876 244 822 l 315 400 q 335 305 315 350 q 388 226 354 260 q 465 172 421 192 q 561 153 510 153 l 1371 153 l 1371 0 l 564 0 q 408 31 481 0 q 281 117 335 63 m 564 963 l 1371 963 l 1371 811 l 564 811 q 467 792 513 811 l 467 950 q 564 963 513 963 z "},"Č":{"ha":1588,"x_min":163,"x_max":1371,"o":"m 1208 1342 l 1254 1246 l 814 1038 l 374 1246 l 419 1342 l 814 1154 l 1208 1342 m 281 117 q 194 244 225 172 q 163 400 163 317 l 163 564 q 203 741 163 660 q 315 876 244 822 l 315 400 q 335 305 315 350 q 388 226 354 260 q 465 172 421 192 q 561 153 510 153 l 1371 153 l 1371 0 l 564 0 q 408 31 481 0 q 281 117 335 63 m 564 963 l 1371 963 l 1371 811 l 564 811 q 467 792 513 811 l 467 950 q 564 963 513 963 z "},"Ĉ":{"ha":1493,"x_min":163,"x_max":1371,"o":"m 814 1225 l 419 1038 l 374 1133 l 814 1342 l 1254 1133 l 1208 1038 l 814 1225 m 281 117 q 194 244 225 172 q 163 400 163 317 l 163 564 q 203 741 163 660 q 315 876 244 822 l 315 400 q 335 305 315 350 q 388 226 354 260 q 465 172 421 192 q 561 153 510 153 l 1371 153 l 1371 0 l 564 0 q 408 31 481 0 q 281 117 335 63 m 564 963 l 1371 963 l 1371 811 l 564 811 q 467 792 513 811 l 467 950 q 564 963 513 963 z "},"Ď":{"ha":1565,"x_min":142,"x_max":1450,"o":"m 1090 1342 l 1136 1246 l 696 1038 l 256 1246 l 301 1342 l 696 1154 l 1090 1342 m 1050 963 q 1206 931 1133 963 q 1333 844 1279 899 q 1419 718 1388 790 q 1450 564 1450 646 l 1450 400 q 1408 223 1450 304 q 1297 86 1367 142 l 1297 567 q 1278 661 1297 617 q 1224 739 1258 706 q 1145 792 1190 772 q 1050 811 1100 811 l 293 811 l 293 153 l 1053 153 q 1129 165 1093 153 q 1197 201 1165 178 l 1197 28 q 1050 0 1126 0 l 142 0 l 142 963 l 1050 963 l 1050 963 z "},"Đ":{"ha":1511,"x_min":142,"x_max":1450,"o":"m 1050 963 q 1206 931 1133 963 q 1333 844 1279 899 q 1419 718 1388 790 q 1450 564 1450 646 l 1450 400 q 1408 223 1450 304 q 1297 86 1367 142 l 1297 567 q 1278 661 1297 617 q 1224 739 1258 706 q 1145 792 1190 772 q 1050 811 1100 811 l 293 811 l 293 153 l 1053 153 q 1129 165 1093 153 q 1197 201 1165 178 l 1197 28 q 1050 0 1126 0 l 142 0 l 142 963 l 1050 963 l 1050 963 z "},"Ě":{"ha":1468,"x_min":133,"x_max":1328,"o":"m 1186 1342 l 1232 1246 l 792 1038 l 351 1246 l 397 1342 l 792 1154 l 1186 1342 m 286 557 l 1328 557 l 1328 404 l 286 404 l 286 86 q 174 223 215 142 q 133 400 133 304 l 133 564 q 174 740 133 660 q 286 876 215 821 l 286 557 m 1328 963 l 1328 811 l 533 811 q 454 798 492 811 q 386 763 417 785 l 386 933 q 458 955 421 947 q 533 963 494 963 l 1328 963 m 386 201 q 454 165 417 178 q 533 153 492 153 l 1328 153 l 1328 0 l 533 0 q 386 28 457 0 l 386 201 z "},"Ė":{"ha":1468,"x_min":133,"x_max":1328,"o":"m 739 1194 l 922 1194 l 922 1043 l 739 1043 l 739 1194 m 286 557 l 1328 557 l 1328 404 l 286 404 l 286 86 q 174 223 215 142 q 133 400 133 304 l 133 564 q 174 740 133 660 q 286 876 215 821 l 286 557 m 1328 963 l 1328 811 l 533 811 q 454 798 492 811 q 386 763 417 785 l 386 933 q 458 955 421 947 q 533 963 494 963 l 1328 963 m 386 201 q 454 165 417 178 q 533 153 492 153 l 1328 153 l 1328 0 l 533 0 q 386 28 457 0 l 386 201 z "},"Ē":{"ha":1468,"x_min":133,"x_max":1328,"o":"m 499 1144 l 1142 1144 l 1142 1039 l 499 1039 l 499 1144 m 286 557 l 1328 557 l 1328 404 l 286 404 l 286 86 q 174 223 215 142 q 133 400 133 304 l 133 564 q 174 740 133 660 q 286 876 215 821 l 286 557 m 1328 963 l 1328 811 l 533 811 q 454 798 492 811 q 386 763 417 785 l 386 933 q 458 955 421 947 q 533 963 494 963 l 1328 963 m 386 201 q 454 165 417 178 q 533 153 492 153 l 1328 153 l 1328 0 l 533 0 q 386 28 457 0 l 386 201 z "},"Ę":{"ha":1475,"x_min":139,"x_max":1481,"o":"m 292 556 l 1333 556 l 1333 403 l 292 403 l 292 85 q 180 222 221 140 q 139 399 139 303 l 139 563 q 180 739 139 658 q 292 875 221 819 l 292 556 m 1333 961 l 1333 810 l 539 810 q 460 797 497 810 q 392 761 422 783 l 392 932 q 463 953 426 946 q 539 961 500 961 l 1333 961 m 1481 -192 l 1481 -299 l 1210 -299 q 1153 -288 1181 -299 q 1103 -260 1125 -278 q 1067 -216 1081 -242 q 1054 -160 1054 -190 q 1076 -70 1054 -111 q 1133 -1 1099 -29 l 539 -1 q 392 26 463 -1 l 392 200 q 460 164 422 176 q 539 151 497 151 l 1333 151 l 1333 -1 l 1288 -1 l 1203 -82 q 1174 -115 1188 -97 q 1161 -150 1161 -132 q 1165 -167 1161 -158 q 1185 -185 1174 -182 q 1214 -192 1196 -189 l 1481 -192 z "},"Ğ":{"ha":1553,"x_min":111,"x_max":1396,"o":"m 571 1219 q 588 1175 571 1193 q 632 1157 606 1157 l 849 1157 q 892 1175 874 1157 q 911 1219 911 1193 l 911 1261 l 1039 1261 l 1039 1219 q 1024 1147 1039 1181 q 983 1087 1010 1113 q 922 1046 957 1061 q 849 1031 888 1031 l 632 1031 q 499 1085 556 1031 q 458 1146 472 1111 q 443 1219 443 1181 l 443 1261 l 571 1261 l 571 1219 m 363 933 q 510 963 431 963 l 1129 963 l 1129 811 l 510 811 q 432 798 469 811 q 363 761 394 785 l 363 933 m 1396 561 l 1396 400 q 1365 245 1396 318 q 1279 118 1333 172 q 1152 32 1225 64 q 996 0 1079 0 l 510 0 q 356 31 428 0 q 229 117 283 63 q 143 244 175 171 q 111 400 111 317 l 111 564 q 152 740 111 658 q 263 876 193 821 l 263 400 q 282 305 263 350 q 335 226 301 260 q 413 172 368 192 q 507 153 457 153 l 996 153 q 1091 172 1046 153 q 1169 225 1136 192 q 1223 303 1203 258 q 1243 397 1243 347 l 1243 408 l 828 408 l 828 561 l 1396 561 z "},"Ĝ":{"ha":1476,"x_min":144,"x_max":1314,"o":"m 785 1225 l 390 1038 l 344 1133 l 785 1342 l 1225 1133 l 1179 1038 l 785 1225 m 589 549 l 1314 549 l 1314 0 l 536 0 q 384 31 456 0 q 260 115 313 63 q 176 238 207 168 q 144 388 144 308 l 144 569 q 185 742 144 663 q 293 875 225 822 l 293 390 q 312 298 293 342 q 363 221 331 254 q 440 168 396 188 q 533 149 483 149 l 1164 149 l 1164 400 l 589 400 l 589 549 m 1314 961 l 1314 811 l 536 811 q 459 799 496 811 q 392 764 422 786 l 392 933 q 536 961 460 961 l 1314 961 z "},"Ģ":{"ha":1488,"x_min":111,"x_max":1396,"o":"m 363 933 q 510 963 431 963 l 1129 963 l 1129 811 l 510 811 q 432 798 469 811 q 363 761 394 785 l 363 933 m 1396 561 l 1396 400 q 1365 245 1396 318 q 1279 118 1333 172 q 1152 32 1225 64 q 996 0 1079 0 l 510 0 q 356 31 428 0 q 229 117 283 63 q 143 244 175 171 q 111 400 111 317 l 111 564 q 152 740 111 658 q 263 876 193 821 l 263 400 q 282 305 263 350 q 335 226 301 260 q 413 172 368 192 q 507 153 457 153 l 996 153 q 1091 172 1046 153 q 1169 225 1136 192 q 1223 303 1203 258 q 1243 397 1243 347 l 1243 408 l 828 408 l 828 561 l 1396 561 m 618 -293 l 739 -35 l 835 -79 l 714 -337 l 618 -293 z "},"Ĥ":{"ha":1563,"x_min":139,"x_max":1308,"o":"m 729 1225 l 335 1038 l 289 1133 l 729 1342 l 1169 1133 l 1124 1038 l 729 1225 m 292 0 l 139 0 l 139 963 l 292 963 l 292 0 m 442 594 l 1154 594 l 1154 963 l 1308 963 l 1308 0 l 1154 0 l 1154 440 l 443 440 l 442 594 z "},"İ":{"ha":376,"x_min":107,"x_max":292,"o":"m 107 1236 l 290 1236 l 290 1085 l 107 1085 l 107 1236 m 139 0 l 139 963 l 292 963 l 292 0 l 139 0 z "},"Ī":{"ha":626,"x_min":-121,"x_max":522,"o":"m -121 1144 l 522 1144 l 522 1039 l -121 1039 l -121 1144 m 139 0 l 139 963 l 292 963 l 292 0 l 139 0 z "},"Į":{"ha":335,"x_min":47,"x_max":386,"o":"m 139 0 l 139 963 l 292 963 l 292 0 l 139 0 m 172 -259 q 126 -250 148 -259 q 87 -228 104 -242 q 58 -193 69 -213 q 48 -148 48 -172 l 48 -146 q 66 -76 48 -108 q 112 -21 83 -43 l 136 1 l 258 1 l 166 -86 q 143 -112 154 -98 q 133 -140 133 -126 q 136 -154 133 -147 q 152 -168 143 -166 q 175 -173 160 -171 l 387 -173 l 387 -259 l 172 -259 z "},"Ĵ":{"ha":1413,"x_min":139,"x_max":1708,"o":"m 257 117 q 170 244 201 172 q 139 400 139 317 l 139 503 l 292 503 l 292 400 q 311 305 292 350 q 364 226 331 260 q 442 172 397 192 q 538 153 486 153 l 911 153 q 1007 172 960 153 l 1007 11 q 959 2 983 4 q 911 0 935 0 l 539 0 q 383 31 456 0 q 257 117 311 63 m 1158 963 l 1311 963 l 1311 400 q 1280 244 1311 317 q 1193 117 1249 172 q 1176 100 1185 108 q 1158 85 1168 92 l 1158 963 m 1268 1222 l 874 1035 l 828 1131 l 1268 1339 l 1708 1131 l 1663 1035 l 1268 1222 z "},"Ķ":{"ha":1444,"x_min":139,"x_max":1335,"o":"m 1335 814 q 1289 629 1335 714 q 1168 490 1243 544 q 1289 349 1243 435 q 1335 165 1335 264 l 1335 0 l 1182 0 l 1182 165 q 1162 262 1182 217 q 1108 340 1142 307 q 1030 393 1075 374 q 933 413 985 413 l 392 413 l 392 567 l 933 567 q 1030 586 985 567 q 1109 639 1075 606 q 1163 717 1143 672 q 1182 814 1182 763 l 1182 963 l 1335 963 l 1335 814 m 292 0 l 139 0 l 139 963 l 292 963 l 292 0 m 599 -210 l 719 49 l 815 4 l 694 -254 l 599 -210 z "},"Ľ":{"ha":1403,"x_min":125,"x_max":1318,"o":"m 667 690 l 743 972 l 833 972 l 757 690 l 667 690 m 278 86 q 165 223 206 138 q 125 401 125 308 l 125 963 l 278 963 l 278 86 m 1318 153 l 1318 0 l 525 0 q 448 8 485 0 q 376 29 411 15 l 376 204 q 444 167 407 181 q 525 153 482 153 l 1318 153 z "},"Ń":{"ha":1615,"x_min":139,"x_max":1386,"o":"m 1094 1275 l 828 1010 l 722 1115 l 989 1379 l 1094 1275 m 1386 965 l 1386 179 q 1335 63 1378 110 q 1233 -1 1292 15 l 1233 965 l 1386 965 m 290 0 l 139 0 l 139 781 q 146 844 140 813 q 167 901 151 875 q 211 946 182 928 q 290 971 240 964 l 290 0 m 1133 -6 q 1018 65 1069 6 q 703 435 860 251 q 389 804 547 618 l 389 971 q 453 948 422 965 q 510 901 485 931 q 820 532 665 715 q 1133 164 975 349 l 1133 -6 z "},"Ň":{"ha":1615,"x_min":139,"x_max":1386,"o":"m 1176 1315 l 1222 1219 l 782 1011 l 342 1219 l 388 1315 l 782 1128 l 1176 1315 m 1386 965 l 1386 179 q 1335 63 1378 110 q 1233 -1 1292 15 l 1233 965 l 1386 965 m 290 0 l 139 0 l 139 781 q 146 844 140 813 q 167 901 151 875 q 211 946 182 928 q 290 971 240 964 l 290 0 m 1133 -6 q 1018 65 1069 6 q 703 435 860 251 q 389 804 547 618 l 389 971 q 453 948 422 965 q 510 901 485 931 q 820 532 665 715 q 1133 164 975 349 l 1133 -6 z "},"Ņ":{"ha":1615,"x_min":139,"x_max":1386,"o":"m 1386 965 l 1386 179 q 1335 63 1378 110 q 1233 -1 1292 15 l 1233 965 l 1386 965 m 290 0 l 139 0 l 139 781 q 146 844 140 813 q 167 901 151 875 q 211 946 182 928 q 290 971 240 964 l 290 0 m 1133 -6 q 1018 65 1069 6 q 703 435 860 251 q 389 804 547 618 l 389 971 q 453 948 422 965 q 510 901 485 931 q 820 532 665 715 q 1133 164 975 349 l 1133 -6 m 636 -210 l 757 49 l 853 4 l 732 -254 l 636 -210 z "},"Ő":{"ha":1700,"x_min":138,"x_max":1494,"o":"m 917 1258 l 653 996 l 578 1071 l 842 1333 l 917 1258 m 1222 1258 l 958 996 l 883 1071 l 1147 1333 l 1222 1258 m 1246 26 q 1176 7 1213 14 q 1103 0 1140 0 l 528 0 q 376 31 447 0 q 252 115 306 61 q 168 239 199 168 q 138 390 138 310 l 138 571 q 177 744 138 664 q 286 878 217 824 l 286 390 q 306 297 286 340 q 358 220 325 253 q 434 168 390 188 q 528 149 478 149 l 1103 149 q 1179 161 1143 149 q 1246 196 1215 174 l 1246 26 m 1103 963 q 1255 931 1183 963 q 1380 847 1326 900 q 1464 723 1433 794 q 1494 571 1494 651 l 1494 390 q 1454 217 1494 297 q 1346 85 1414 138 l 1346 571 q 1326 665 1346 621 q 1274 741 1307 708 q 1197 793 1242 774 q 1103 813 1153 813 l 528 813 q 451 800 488 813 q 385 765 415 788 l 385 936 q 453 956 418 949 q 528 963 489 963 l 1103 963 z "},"Ō":{"ha":1700,"x_min":138,"x_max":1494,"o":"m 476 1144 l 1119 1144 l 1119 1039 l 476 1039 l 476 1144 m 1246 26 q 1176 7 1213 14 q 1103 0 1140 0 l 528 0 q 376 31 447 0 q 252 115 306 61 q 168 239 199 168 q 138 390 138 310 l 138 571 q 177 744 138 664 q 286 878 217 824 l 286 390 q 306 297 286 340 q 358 220 325 253 q 434 168 390 188 q 528 149 478 149 l 1103 149 q 1179 161 1143 149 q 1246 196 1215 174 l 1246 26 m 1103 963 q 1255 931 1183 963 q 1380 847 1326 900 q 1464 723 1433 794 q 1494 571 1494 651 l 1494 390 q 1454 217 1494 297 q 1346 85 1414 138 l 1346 571 q 1326 665 1346 621 q 1274 741 1307 708 q 1197 793 1242 774 q 1103 813 1153 813 l 528 813 q 451 800 488 813 q 385 765 415 788 l 385 936 q 453 956 418 949 q 528 963 489 963 l 1103 963 z "},"Ŕ":{"ha":1592,"x_min":139,"x_max":1478,"o":"m 939 1372 l 672 1107 l 567 1213 l 833 1476 l 939 1372 m 289 0 l 139 0 l 139 963 l 289 963 l 289 0 m 1478 0 l 1286 0 l 1022 353 l 389 353 l 389 506 l 1118 506 q 1180 517 1150 506 q 1232 550 1210 529 q 1267 599 1254 571 q 1281 658 1281 626 q 1267 718 1281 690 q 1230 767 1253 746 q 1177 799 1207 788 q 1114 811 1147 811 l 389 811 l 389 963 l 1114 963 q 1289 913 1211 963 q 1393 805 1354 872 q 1432 658 1432 738 q 1374 471 1432 542 q 1203 367 1317 400 l 1478 0 z "},"Ř":{"ha":1624,"x_min":139,"x_max":1478,"o":"m 1131 1342 l 1176 1246 l 736 1038 l 296 1246 l 342 1342 l 736 1154 l 1131 1342 m 289 0 l 139 0 l 139 963 l 289 963 l 289 0 m 1478 0 l 1286 0 l 1022 353 l 389 353 l 389 506 l 1118 506 q 1180 517 1150 506 q 1232 550 1210 529 q 1267 599 1254 571 q 1281 658 1281 626 q 1267 718 1281 690 q 1230 767 1253 746 q 1177 799 1207 788 q 1114 811 1147 811 l 389 811 l 389 963 l 1114 963 q 1289 913 1211 963 q 1393 805 1354 872 q 1432 658 1432 738 q 1374 471 1432 542 q 1203 367 1317 400 l 1478 0 z "},"Ŗ":{"ha":1561,"x_min":139,"x_max":1478,"o":"m 289 0 l 139 0 l 139 963 l 289 963 l 289 0 m 1478 0 l 1286 0 l 1022 353 l 389 353 l 389 506 l 1118 506 q 1180 517 1150 506 q 1232 550 1210 529 q 1267 599 1254 571 q 1281 658 1281 626 q 1267 718 1281 690 q 1230 767 1253 746 q 1177 799 1207 788 q 1114 811 1147 811 l 389 811 l 389 963 l 1114 963 q 1289 913 1211 963 q 1393 805 1354 872 q 1432 658 1432 738 q 1374 471 1432 542 q 1203 367 1317 400 l 1478 0 z "},"Ś":{"ha":1519,"x_min":89,"x_max":1313,"o":"m 908 1275 l 642 1010 l 536 1115 l 803 1379 l 908 1275 m 342 964 l 368 965 l 1263 965 l 1263 814 l 368 814 q 355 813 361 814 q 342 811 349 813 l 342 964 m 1035 558 q 1142 536 1092 558 q 1231 476 1193 514 q 1290 388 1268 439 q 1313 281 1313 338 q 1270 131 1313 197 q 1160 29 1228 64 l 1160 279 q 1124 369 1160 332 q 1035 406 1088 406 l 368 406 q 260 427 311 406 q 172 487 210 449 q 111 576 133 525 q 89 685 89 626 q 131 833 89 768 q 242 935 172 899 l 242 688 q 281 596 246 633 q 368 558 317 558 l 1035 558 m 1060 1 q 1047 0 1053 0 q 1035 0 1042 0 l 139 0 l 139 153 l 1035 153 q 1047 153 1042 153 q 1060 156 1053 153 l 1060 1 z "},"Ş":{"ha":1519,"x_min":89,"x_max":1313,"o":"m 449 -356 l 449 -212 l 604 -212 q 642 -195 628 -212 q 657 -156 657 -178 l 657 4 l 800 4 l 800 -156 q 784 -231 800 -194 q 741 -294 768 -267 q 678 -339 714 -322 q 600 -356 642 -356 l 449 -356 m 342 964 l 368 965 l 1263 965 l 1263 814 l 368 814 q 355 813 361 814 q 342 811 349 813 l 342 964 m 1035 558 q 1142 536 1092 558 q 1231 476 1193 514 q 1290 388 1268 439 q 1313 281 1313 338 q 1270 131 1313 197 q 1160 29 1228 64 l 1160 279 q 1124 369 1160 332 q 1035 406 1088 406 l 368 406 q 260 427 311 406 q 172 487 210 449 q 111 576 133 525 q 89 685 89 626 q 131 833 89 768 q 242 935 172 899 l 242 688 q 281 596 246 633 q 368 558 317 558 l 1035 558 m 1060 1 q 1047 0 1053 0 q 1035 0 1042 0 l 139 0 l 139 153 l 1035 153 q 1047 153 1042 153 q 1060 156 1053 153 l 1060 1 z "},"Ŝ":{"ha":1519,"x_min":89,"x_max":1313,"o":"m 707 1225 l 313 1038 l 267 1133 l 707 1342 l 1147 1133 l 1101 1038 l 707 1225 m 342 964 l 368 965 l 1263 965 l 1263 814 l 368 814 q 355 813 361 814 q 342 811 349 813 l 342 964 m 1035 558 q 1142 536 1092 558 q 1231 476 1193 514 q 1290 388 1268 439 q 1313 281 1313 338 q 1270 131 1313 197 q 1160 29 1228 64 l 1160 279 q 1124 369 1160 332 q 1035 406 1088 406 l 368 406 q 260 427 311 406 q 172 487 210 449 q 111 576 133 525 q 89 685 89 626 q 131 833 89 768 q 242 935 172 899 l 242 688 q 281 596 246 633 q 368 558 317 558 l 1035 558 m 1060 1 q 1047 0 1053 0 q 1035 0 1042 0 l 139 0 l 139 153 l 1035 153 q 1047 153 1042 153 q 1060 156 1053 153 l 1060 1 z "},"Ș":{"ha":1489,"x_min":89,"x_max":1313,"o":"m 342 964 l 368 965 l 1263 965 l 1263 814 l 368 814 q 355 813 361 814 q 342 811 349 813 l 342 964 m 1035 558 q 1142 536 1092 558 q 1231 476 1193 514 q 1290 388 1268 439 q 1313 281 1313 338 q 1270 131 1313 197 q 1160 29 1228 64 l 1160 279 q 1124 369 1160 332 q 1035 406 1088 406 l 368 406 q 260 427 311 406 q 172 487 210 449 q 111 576 133 525 q 89 685 89 626 q 131 833 89 768 q 242 935 172 899 l 242 688 q 281 596 246 633 q 368 558 317 558 l 1035 558 m 1060 1 q 1047 0 1053 0 q 1035 0 1042 0 l 139 0 l 139 153 l 1035 153 q 1047 153 1042 153 q 1060 156 1053 153 l 1060 1 m 585 -310 l 706 -51 l 801 -96 l 681 -354 l 585 -310 z "},"Ț":{"ha":1449,"x_min":118,"x_max":1308,"o":"m 789 711 l 789 0 l 638 0 l 638 711 l 789 711 m 1308 963 l 1308 811 l 118 811 l 118 963 l 1308 963 m 613 -274 l 733 -15 l 829 -60 l 708 -318 l 613 -274 z "},"Ŭ":{"ha":1413,"x_min":151,"x_max":1379,"o":"m 554 1192 q 572 1147 554 1165 q 615 1129 589 1129 l 832 1129 q 876 1147 857 1129 q 894 1192 894 1165 l 894 1233 l 1022 1233 l 1022 1192 q 1008 1119 1022 1153 q 967 1059 993 1085 q 906 1018 940 1033 q 832 1003 871 1003 l 615 1003 q 482 1057 539 1003 q 441 1118 456 1083 q 426 1192 426 1153 l 426 1233 l 554 1233 l 554 1192 m 1126 28 q 979 0 1058 0 l 551 0 q 396 31 468 0 q 269 117 324 63 q 183 244 214 172 q 151 400 151 317 l 151 963 l 304 963 l 304 400 q 324 305 304 350 q 376 226 343 260 q 454 172 410 192 q 550 153 499 153 l 979 153 q 1058 165 1021 153 q 1126 201 1096 178 l 1126 28 m 1379 963 l 1379 400 q 1340 224 1379 304 q 1226 85 1300 143 l 1226 963 l 1379 963 z "},"Ű":{"ha":1653,"x_min":151,"x_max":1379,"o":"m 764 1258 l 500 996 l 425 1071 l 689 1333 l 764 1258 m 1069 1258 l 806 996 l 731 1071 l 994 1333 l 1069 1258 m 1126 28 q 979 0 1058 0 l 551 0 q 396 31 468 0 q 269 117 324 63 q 183 244 214 172 q 151 400 151 317 l 151 963 l 304 963 l 304 400 q 324 305 304 350 q 376 226 343 260 q 454 172 410 192 q 550 153 499 153 l 979 153 q 1058 165 1021 153 q 1126 201 1096 178 l 1126 28 m 1379 963 l 1379 400 q 1340 224 1379 304 q 1226 85 1300 143 l 1226 963 l 1379 963 z "},"Ū":{"ha":1413,"x_min":151,"x_max":1379,"o":"m 411 1144 l 1054 1144 l 1054 1039 l 411 1039 l 411 1144 m 1126 28 q 979 0 1058 0 l 551 0 q 396 31 468 0 q 269 117 324 63 q 183 244 214 172 q 151 400 151 317 l 151 963 l 304 963 l 304 400 q 324 305 304 350 q 376 226 343 260 q 454 172 410 192 q 550 153 499 153 l 979 153 q 1058 165 1021 153 q 1126 201 1096 178 l 1126 28 m 1379 963 l 1379 400 q 1340 224 1379 304 q 1226 85 1300 143 l 1226 963 l 1379 963 z "},"Ų":{"ha":1469,"x_min":151,"x_max":1379,"o":"m 699 -325 q 642 -315 669 -325 q 592 -286 614 -304 q 556 -242 569 -268 q 543 -186 543 -217 l 543 -183 q 565 -95 543 -136 q 624 -26 588 -54 l 654 1 l 807 1 l 692 -108 q 663 -141 676 -124 q 650 -176 650 -158 q 654 -193 650 -185 q 674 -212 663 -208 q 703 -218 685 -215 l 969 -218 l 969 -325 l 699 -325 m 1126 28 q 979 0 1058 0 l 551 0 q 396 31 468 0 q 269 117 324 63 q 183 244 214 172 q 151 400 151 317 l 151 963 l 304 963 l 304 400 q 324 305 304 350 q 376 226 343 260 q 454 172 410 192 q 550 153 499 153 l 979 153 q 1058 165 1021 153 q 1126 201 1096 178 l 1126 28 m 1379 963 l 1379 400 q 1340 224 1379 304 q 1226 85 1300 143 l 1226 963 l 1379 963 z "},"Ů":{"ha":1653,"x_min":151,"x_max":1379,"o":"m 638 1011 q 504 1067 560 1011 q 463 1127 478 1093 q 449 1200 449 1161 l 449 1218 q 463 1292 449 1257 q 503 1352 478 1326 q 564 1393 529 1378 q 638 1408 599 1408 l 828 1408 q 901 1393 867 1408 q 962 1352 936 1378 q 1003 1292 988 1326 q 1018 1218 1018 1257 l 1018 1200 q 1003 1127 1018 1161 q 963 1067 989 1093 q 901 1026 936 1042 q 828 1011 867 1011 l 638 1011 m 594 1263 q 576 1218 576 1244 l 576 1200 q 594 1156 576 1174 q 638 1139 611 1139 l 828 1139 q 873 1156 854 1139 q 892 1200 892 1174 l 892 1218 q 873 1263 892 1244 q 828 1281 854 1281 l 638 1281 q 613 1275 624 1281 q 594 1263 601 1269 m 1126 28 q 979 0 1058 0 l 551 0 q 396 31 468 0 q 269 117 324 63 q 183 244 214 172 q 151 400 151 317 l 151 963 l 304 963 l 304 400 q 324 305 304 350 q 376 226 343 260 q 454 172 410 192 q 550 153 499 153 l 979 153 q 1058 165 1021 153 q 1126 201 1096 178 l 1126 28 m 1379 963 l 1379 400 q 1340 224 1379 304 q 1226 85 1300 143 l 1226 963 l 1379 963 z "},"Ź":{"ha":1514,"x_min":125,"x_max":1347,"o":"m 989 1275 l 722 1010 l 617 1115 l 883 1379 l 989 1275 m 1097 811 l 133 811 l 133 963 l 1097 963 l 1097 811 m 275 6 q 210 35 238 14 q 163 85 182 57 q 135 147 144 114 q 125 214 125 181 q 144 301 125 267 q 188 357 164 336 q 250 394 214 382 q 469 470 356 431 q 699 551 583 510 q 928 631 814 592 q 1149 708 1043 671 q 1180 723 1164 714 q 1196 756 1196 732 l 1196 958 q 1277 920 1247 950 q 1322 856 1307 890 q 1342 793 1338 822 q 1347 757 1347 764 q 1331 672 1347 706 q 1296 618 1315 638 q 1246 581 1274 593 l 303 251 q 281 233 288 244 q 275 208 275 221 l 275 6 m 375 153 l 1339 153 l 1339 0 l 375 0 l 375 153 z "},"Ż":{"ha":1514,"x_min":125,"x_max":1347,"o":"m 635 1219 l 818 1219 l 818 1068 l 635 1068 l 635 1219 m 1097 811 l 133 811 l 133 963 l 1097 963 l 1097 811 m 275 6 q 210 35 238 14 q 163 85 182 57 q 135 147 144 114 q 125 214 125 181 q 144 301 125 267 q 188 357 164 336 q 250 394 214 382 q 469 470 356 431 q 699 551 583 510 q 928 631 814 592 q 1149 708 1043 671 q 1180 723 1164 714 q 1196 756 1196 732 l 1196 958 q 1277 920 1247 950 q 1322 856 1307 890 q 1342 793 1338 822 q 1347 757 1347 764 q 1331 672 1347 706 q 1296 618 1315 638 q 1246 581 1274 593 l 303 251 q 281 233 288 244 q 275 208 275 221 l 275 6 m 375 153 l 1339 153 l 1339 0 l 375 0 l 375 153 z "},"ă":{"ha":1503,"x_min":129,"x_max":1325,"o":"m 1011 961 q 1133 937 1076 961 q 1233 870 1190 913 q 1301 771 1276 828 q 1325 649 1325 714 l 1325 0 l 1176 0 l 1176 446 l 440 446 q 379 435 410 446 l 379 592 q 436 596 408 596 l 1176 596 l 1176 649 q 1163 712 1176 682 q 1126 764 1149 742 q 1074 799 1104 786 q 1011 811 1044 811 l 339 811 l 339 961 l 1011 961 m 1076 0 l 440 0 q 323 24 379 0 q 224 88 267 47 q 155 183 181 129 q 129 297 129 236 q 172 447 129 381 q 281 553 214 514 l 281 296 q 293 238 281 265 q 327 192 306 211 q 376 160 349 172 q 436 149 404 149 l 1076 149 l 1076 0 m 601 1219 q 619 1175 601 1193 q 663 1157 636 1157 l 879 1157 q 923 1175 904 1157 q 942 1219 942 1193 l 942 1261 l 1069 1261 l 1069 1219 q 1055 1147 1069 1181 q 1014 1087 1040 1113 q 953 1046 988 1061 q 879 1031 918 1031 l 663 1031 q 529 1085 586 1031 q 488 1146 503 1111 q 474 1219 474 1181 l 474 1261 l 601 1261 l 601 1219 z "},"ā":{"ha":1503,"x_min":129,"x_max":1325,"o":"m 1011 961 q 1133 937 1076 961 q 1233 870 1190 913 q 1301 771 1276 828 q 1325 649 1325 714 l 1325 0 l 1176 0 l 1176 446 l 440 446 q 379 435 410 446 l 379 592 q 436 596 408 596 l 1176 596 l 1176 649 q 1163 712 1176 682 q 1126 764 1149 742 q 1074 799 1104 786 q 1011 811 1044 811 l 339 811 l 339 961 l 1011 961 m 1076 0 l 440 0 q 323 24 379 0 q 224 88 267 47 q 155 183 181 129 q 129 297 129 236 q 172 447 129 381 q 281 553 214 514 l 281 296 q 293 238 281 265 q 327 192 306 211 q 376 160 349 172 q 436 149 404 149 l 1076 149 l 1076 0 m 457 1158 l 1100 1158 l 1100 1053 l 457 1053 l 457 1158 z "},"ą":{"ha":1504,"x_min":129,"x_max":1457,"o":"m 1011 961 q 1133 937 1076 961 q 1233 870 1190 913 q 1301 771 1276 828 q 1325 649 1325 714 l 1325 0 l 1176 0 l 1176 446 l 440 446 q 379 435 410 446 l 379 592 q 436 596 408 596 l 1176 596 l 1176 649 q 1163 712 1176 682 q 1126 764 1149 742 q 1074 799 1104 786 q 1011 811 1044 811 l 339 811 l 339 961 l 1011 961 m 1076 0 l 440 0 q 323 24 379 0 q 224 88 267 47 q 155 183 181 129 q 129 297 129 236 q 172 447 129 381 q 281 553 214 514 l 281 296 q 293 238 281 265 q 327 192 306 211 q 376 160 349 172 q 436 149 404 149 l 1076 149 l 1076 0 m 1220 -275 q 1171 -266 1195 -275 q 1127 -241 1146 -257 q 1096 -203 1107 -226 q 1084 -154 1084 -180 l 1084 -151 q 1104 -74 1084 -110 q 1155 -14 1123 -38 l 1182 11 l 1315 11 l 1214 -86 q 1189 -114 1201 -99 q 1178 -145 1178 -129 q 1182 -160 1178 -152 q 1199 -176 1189 -173 q 1224 -182 1208 -179 l 1458 -182 l 1458 -275 l 1220 -275 z "},"ć":{"ha":1493,"x_min":163,"x_max":1371,"o":"m 1001 1386 l 735 1121 l 629 1226 l 896 1490 l 1001 1386 m 281 117 q 194 244 225 172 q 163 400 163 317 l 163 564 q 203 741 163 660 q 315 876 244 822 l 315 400 q 335 305 315 350 q 388 226 354 260 q 465 172 421 192 q 561 153 510 153 l 1371 153 l 1371 0 l 564 0 q 408 31 481 0 q 281 117 335 63 m 564 963 l 1371 963 l 1371 811 l 564 811 q 467 792 513 811 l 467 950 q 564 963 513 963 z "},"č":{"ha":1588,"x_min":163,"x_max":1371,"o":"m 1208 1342 l 1254 1246 l 814 1038 l 374 1246 l 419 1342 l 814 1154 l 1208 1342 m 281 117 q 194 244 225 172 q 163 400 163 317 l 163 564 q 203 741 163 660 q 315 876 244 822 l 315 400 q 335 305 315 350 q 388 226 354 260 q 465 172 421 192 q 561 153 510 153 l 1371 153 l 1371 0 l 564 0 q 408 31 481 0 q 281 117 335 63 m 564 963 l 1371 963 l 1371 811 l 564 811 q 467 792 513 811 l 467 950 q 564 963 513 963 z "},"ĉ":{"ha":1467,"x_min":163,"x_max":1371,"o":"m 814 1225 l 419 1038 l 374 1133 l 814 1342 l 1254 1133 l 1208 1038 l 814 1225 m 281 117 q 194 244 225 172 q 163 400 163 317 l 163 564 q 203 741 163 660 q 315 876 244 822 l 315 400 q 335 305 315 350 q 388 226 354 260 q 465 172 421 192 q 561 153 510 153 l 1371 153 l 1371 0 l 564 0 q 408 31 481 0 q 281 117 335 63 m 564 963 l 1371 963 l 1371 811 l 564 811 q 467 792 513 811 l 467 950 q 564 963 513 963 z "},"":{"ha":375,"x_min":67,"x_max":283,"o":"m 67 -210 l 188 49 l 283 4 l 163 -254 l 67 -210 z "},"ď":{"ha":1542,"x_min":142,"x_max":1450,"o":"m 1108 1342 l 1154 1246 l 714 1038 l 274 1246 l 319 1342 l 714 1154 l 1108 1342 m 1050 963 q 1206 931 1133 963 q 1333 844 1279 899 q 1419 718 1388 790 q 1450 564 1450 646 l 1450 400 q 1408 223 1450 304 q 1297 86 1367 142 l 1297 567 q 1278 661 1297 617 q 1224 739 1258 706 q 1145 792 1190 772 q 1050 811 1100 811 l 293 811 l 293 153 l 1053 153 q 1129 165 1093 153 q 1197 201 1165 178 l 1197 28 q 1050 0 1126 0 l 142 0 l 142 963 l 1050 963 l 1050 963 z "},"đ":{"ha":1510,"x_min":142,"x_max":1450,"o":"m 1050 963 q 1206 931 1133 963 q 1333 844 1279 899 q 1419 718 1388 790 q 1450 564 1450 646 l 1450 400 q 1408 223 1450 304 q 1297 86 1367 142 l 1297 567 q 1278 661 1297 617 q 1224 739 1258 706 q 1145 792 1190 772 q 1050 811 1100 811 l 293 811 l 293 153 l 1053 153 q 1129 165 1093 153 q 1197 201 1165 178 l 1197 28 q 1050 0 1126 0 l 142 0 l 142 963 l 1050 963 l 1050 963 z "},"":{"ha":1433,"x_min":124,"x_max":1296,"o":"m 242 117 q 155 244 186 172 q 124 400 124 317 l 124 503 l 276 503 l 276 400 q 296 305 276 350 q 349 226 315 260 q 426 172 382 192 q 522 153 471 153 l 896 153 q 992 172 944 153 l 992 11 q 944 2 968 4 q 896 0 919 0 l 524 0 q 368 31 440 0 q 242 117 296 63 m 1143 963 l 1296 963 l 1296 400 q 1265 244 1296 317 q 1178 117 1233 172 q 1161 100 1169 108 q 1143 85 1153 92 l 1143 963 z "},"ě":{"ha":1519,"x_min":139,"x_max":1360,"o":"m 288 36 q 182 120 225 67 q 139 247 139 174 l 139 671 q 180 813 139 749 q 288 917 221 878 l 288 514 l 1053 514 q 1113 526 1083 514 q 1163 557 1142 538 q 1198 603 1185 576 q 1211 663 1211 631 q 1198 722 1211 694 q 1163 768 1185 749 q 1111 799 1140 788 q 1050 810 1082 810 l 1047 810 l 436 810 l 436 960 l 451 961 l 1053 961 q 1169 938 1114 961 q 1267 873 1225 914 q 1335 778 1310 832 q 1360 663 1360 724 q 1335 546 1360 600 q 1267 451 1310 492 q 1167 387 1224 410 q 1047 364 1110 364 l 288 364 l 288 251 l 288 36 m 1333 149 l 1333 0 l 436 0 l 436 149 l 1333 149 m 1133 1342 l 1179 1246 l 739 1038 l 299 1246 l 344 1342 l 739 1154 l 1133 1342 z "},"ė":{"ha":1485,"x_min":111,"x_max":1332,"o":"m 260 36 q 154 120 197 67 q 111 247 111 174 l 111 671 q 152 813 111 749 q 260 917 193 878 l 260 514 l 1025 514 q 1085 526 1056 514 q 1135 557 1114 538 q 1170 603 1157 576 q 1183 663 1183 631 q 1170 722 1183 694 q 1135 768 1157 749 q 1083 799 1113 788 q 1022 810 1054 810 l 1019 810 l 408 810 l 408 960 l 424 961 l 1025 961 q 1142 938 1086 961 q 1240 873 1197 914 q 1307 778 1282 832 q 1332 663 1332 724 q 1307 546 1332 600 q 1239 451 1282 492 q 1139 387 1196 410 q 1019 364 1082 364 l 260 364 l 260 251 l 260 36 m 1306 149 l 1306 0 l 408 0 l 408 149 l 1306 149 m 646 1194 l 829 1194 l 829 1043 l 646 1043 l 646 1194 z "},"ē":{"ha":1475,"x_min":111,"x_max":1332,"o":"m 260 36 q 154 120 197 67 q 111 247 111 174 l 111 671 q 152 813 111 749 q 260 917 193 878 l 260 514 l 1025 514 q 1085 526 1056 514 q 1135 557 1114 538 q 1170 603 1157 576 q 1183 663 1183 631 q 1170 722 1183 694 q 1135 768 1157 749 q 1083 799 1113 788 q 1022 810 1054 810 l 1019 810 l 408 810 l 408 960 l 424 961 l 1025 961 q 1142 938 1086 961 q 1240 873 1197 914 q 1307 778 1282 832 q 1332 663 1332 724 q 1307 546 1332 600 q 1239 451 1282 492 q 1139 387 1196 410 q 1019 364 1082 364 l 260 364 l 260 251 l 260 36 m 1306 149 l 1306 0 l 408 0 l 408 149 l 1306 149 m 419 1144 l 1063 1144 l 1063 1039 l 419 1039 l 419 1144 z "},"ę":{"ha":1558,"x_min":139,"x_max":1360,"o":"m 288 36 q 182 120 225 67 q 139 247 139 174 l 139 671 q 180 813 139 749 q 288 917 221 878 l 288 514 l 1053 514 q 1113 526 1083 514 q 1163 557 1142 538 q 1198 603 1185 576 q 1211 663 1211 631 q 1198 722 1211 694 q 1163 768 1185 749 q 1111 799 1140 788 q 1050 810 1082 810 l 1047 810 l 436 810 l 436 960 l 451 961 l 1053 961 q 1169 938 1114 961 q 1267 873 1225 914 q 1335 778 1310 832 q 1360 663 1360 724 q 1335 546 1360 600 q 1267 451 1310 492 q 1167 387 1224 410 q 1047 364 1110 364 l 288 364 l 288 251 l 288 36 m 1333 149 l 1333 0 l 436 0 l 436 149 l 1333 149 m 726 -325 q 669 -315 697 -325 q 619 -286 642 -304 q 584 -242 597 -268 q 571 -186 571 -217 l 571 -183 q 593 -95 571 -136 q 651 -26 615 -54 l 682 1 l 835 1 l 719 -108 q 691 -141 704 -124 q 678 -176 678 -158 q 682 -193 678 -185 q 701 -212 690 -208 q 731 -218 713 -215 l 997 -218 l 997 -325 l 726 -325 z "},"ğ":{"ha":1604,"x_min":532,"x_max":1128,"o":"m 660 1192 q 677 1147 660 1165 q 721 1129 694 1129 l 938 1129 q 981 1147 963 1129 q 1000 1192 1000 1165 l 1000 1233 l 1128 1233 l 1128 1192 q 1113 1119 1128 1153 q 1072 1059 1099 1085 q 1011 1018 1046 1033 q 938 1003 976 1003 l 721 1003 q 588 1057 644 1003 q 547 1118 561 1083 q 532 1192 532 1153 l 532 1233 l 660 1233 l 660 1192 z "},"ĝ":{"ha":1604,"x_min":371,"x_max":1251,"o":"m 811 1225 l 417 1038 l 371 1133 l 811 1342 l 1251 1133 l 1206 1038 l 811 1225 z "},"ģ":{"ha":1475,"x_min":144,"x_max":1314,"o":"m 589 549 l 1314 549 l 1314 0 l 536 0 q 384 31 456 0 q 260 115 313 63 q 176 238 207 168 q 144 388 144 308 l 144 569 q 185 742 144 663 q 293 875 225 822 l 293 390 q 312 298 293 342 q 363 221 331 254 q 440 168 396 188 q 533 149 483 149 l 1164 149 l 1164 400 l 589 400 l 589 549 m 1314 961 l 1314 811 l 536 811 q 459 799 496 811 q 392 764 422 786 l 392 933 q 536 961 460 961 l 1314 961 m 689 -301 l 810 -43 l 906 -87 l 785 -346 l 689 -301 z "},"ĥ":{"ha":1615,"x_min":138,"x_max":1283,"o":"m 286 813 l 286 0 l 138 0 l 138 1156 l 286 1156 l 286 963 l 893 963 q 1066 922 986 963 q 1199 813 1146 882 l 286 813 m 1256 714 q 1283 569 1283 646 l 1283 0 l 1135 0 l 1135 569 q 1122 647 1135 610 q 1088 714 1110 683 l 1256 714 m 782 1225 l 388 1038 l 342 1133 l 782 1342 l 1222 1133 l 1176 1038 l 782 1225 z "},"ī":{"ha":646,"x_min":-125,"x_max":518,"o":"m -125 1131 l 518 1131 l 518 1025 l -125 1025 l -125 1131 m 139 0 l 139 963 l 292 963 l 292 0 l 139 0 z "},"į":{"ha":335,"x_min":53,"x_max":368,"o":"m 139 0 l 139 963 l 292 963 l 292 0 l 139 0 m 169 -243 q 127 -235 148 -243 q 90 -214 106 -228 q 64 -182 74 -201 q 54 -140 54 -163 l 54 -138 q 71 -73 54 -103 q 114 -22 87 -43 l 136 -2 l 249 -2 l 164 -83 q 143 -107 153 -94 q 133 -133 133 -120 q 136 -145 133 -139 q 151 -159 142 -157 q 172 -164 159 -162 l 369 -164 l 369 -243 l 169 -243 z "},"ĵ":{"ha":1472,"x_min":135,"x_max":1281,"o":"m 1032 28 q 890 0 964 0 l 526 0 q 374 31 444 0 q 250 114 303 61 q 165 240 196 168 q 135 390 135 311 l 135 493 l 283 493 l 283 390 q 302 298 283 342 q 353 221 321 254 q 430 168 386 188 q 524 149 474 149 l 890 149 q 966 161 931 149 q 1032 196 1001 174 l 1032 28 m 1281 961 l 1281 390 q 1250 240 1281 311 q 1165 114 1219 168 l 1132 85 l 1132 811 l 293 811 l 293 961 l 1281 961 m 804 1222 l 410 1035 l 364 1131 l 804 1339 l 1244 1131 l 1199 1035 l 804 1222 z "},"ķ":{"ha":1510,"x_min":139,"x_max":1393,"o":"m 1035 536 q 1150 483 1097 519 q 1241 397 1203 447 q 1301 286 1279 347 q 1322 158 1322 225 l 1322 0 l 1174 0 l 1174 161 q 1154 253 1174 210 q 1101 330 1135 297 q 1024 381 1068 363 q 931 400 981 400 l 388 400 l 388 550 l 849 550 q 1020 756 933 650 q 1190 961 1107 861 l 1393 961 l 1035 536 m 288 0 l 139 0 l 139 961 l 288 961 l 288 0 m 572 -210 l 693 49 l 789 4 l 668 -254 l 572 -210 z "},"ľ":{"ha":1379,"x_min":-249,"x_max":1318,"o":"m 278 86 q 165 223 206 138 q 125 401 125 308 l 125 963 l 278 963 l 278 86 m 1318 153 l 1318 0 l 525 0 q 448 8 485 0 q 376 29 411 15 l 376 204 q 444 167 407 181 q 525 153 482 153 l 1318 153 m 586 1325 l 632 1229 l 192 1021 l -249 1229 l -203 1325 l 192 1138 l 586 1325 z "},"ń":{"ha":1426,"x_min":139,"x_max":1313,"o":"m 288 811 l 288 0 l 139 0 l 139 963 l 922 963 q 1095 922 1015 963 q 1228 811 1175 881 l 288 811 m 1285 714 q 1313 569 1313 646 l 1313 0 l 1164 0 l 1164 569 q 1151 647 1164 610 q 1117 714 1139 683 l 1285 714 m 893 1372 l 626 1107 l 521 1213 l 788 1476 l 893 1372 z "},"ň":{"ha":1432,"x_min":139,"x_max":1313,"o":"m 288 811 l 288 0 l 139 0 l 139 963 l 922 963 q 1095 922 1015 963 q 1228 811 1175 881 l 288 811 m 1285 714 q 1313 569 1313 646 l 1313 0 l 1164 0 l 1164 569 q 1151 647 1164 610 q 1117 714 1139 683 l 1285 714 m 1075 1342 l 1121 1246 l 681 1038 l 240 1246 l 286 1342 l 681 1154 l 1075 1342 z "},"ņ":{"ha":1446,"x_min":139,"x_max":1313,"o":"m 288 811 l 288 0 l 139 0 l 139 963 l 922 963 q 1095 922 1015 963 q 1228 811 1175 881 l 288 811 m 1285 714 q 1313 569 1313 646 l 1313 0 l 1164 0 l 1164 569 q 1151 647 1164 610 q 1117 714 1139 683 l 1285 714 m 590 -210 l 711 49 l 807 4 l 686 -254 l 590 -210 z "},"ő":{"ha":1700,"x_min":138,"x_max":1494,"o":"m 913 1258 l 649 996 l 574 1071 l 838 1333 l 913 1258 m 1218 1258 l 954 996 l 879 1071 l 1143 1333 l 1218 1258 m 1246 26 q 1176 7 1213 14 q 1103 0 1140 0 l 528 0 q 376 31 447 0 q 252 115 306 61 q 168 239 199 168 q 138 390 138 310 l 138 571 q 177 744 138 664 q 286 878 217 824 l 286 390 q 306 297 286 340 q 358 220 325 253 q 434 168 390 188 q 528 149 478 149 l 1103 149 q 1179 161 1143 149 q 1246 196 1215 174 l 1246 26 m 1103 963 q 1255 931 1183 963 q 1380 847 1326 900 q 1464 723 1433 794 q 1494 571 1494 651 l 1494 390 q 1454 217 1494 297 q 1346 85 1414 138 l 1346 571 q 1326 665 1346 621 q 1274 741 1307 708 q 1197 793 1242 774 q 1103 813 1153 813 l 528 813 q 451 800 488 813 q 385 765 415 788 l 385 936 q 453 956 418 949 q 528 963 489 963 l 1103 963 z "},"ō":{"ha":1700,"x_min":138,"x_max":1494,"o":"m 571 1144 l 1214 1144 l 1214 1039 l 571 1039 l 571 1144 m 1246 26 q 1176 7 1213 14 q 1103 0 1140 0 l 528 0 q 376 31 447 0 q 252 115 306 61 q 168 239 199 168 q 138 390 138 310 l 138 571 q 177 744 138 664 q 286 878 217 824 l 286 390 q 306 297 286 340 q 358 220 325 253 q 434 168 390 188 q 528 149 478 149 l 1103 149 q 1179 161 1143 149 q 1246 196 1215 174 l 1246 26 m 1103 963 q 1255 931 1183 963 q 1380 847 1326 900 q 1464 723 1433 794 q 1494 571 1494 651 l 1494 390 q 1454 217 1494 297 q 1346 85 1414 138 l 1346 571 q 1326 665 1346 621 q 1274 741 1307 708 q 1197 793 1242 774 q 1103 813 1153 813 l 528 813 q 451 800 488 813 q 385 765 415 788 l 385 936 q 453 956 418 949 q 528 963 489 963 l 1103 963 z "},"ŕ":{"ha":1324,"x_min":138,"x_max":1331,"o":"m 290 0 l 138 0 l 138 561 q 178 739 138 658 q 290 876 219 819 l 290 0 m 538 810 q 457 796 494 810 q 389 758 419 782 l 389 933 q 460 955 424 947 q 538 963 497 963 l 1331 963 l 1331 810 l 538 810 m 946 1275 l 679 1010 l 574 1115 l 840 1379 l 946 1275 z "},"ř":{"ha":1324,"x_min":138,"x_max":1331,"o":"m 290 0 l 138 0 l 138 561 q 178 739 138 658 q 290 876 219 819 l 290 0 m 538 810 q 457 796 494 810 q 389 758 419 782 l 389 933 q 460 955 424 947 q 538 963 497 963 l 1331 963 l 1331 810 l 538 810 m 1126 1342 l 1172 1246 l 732 1038 l 292 1246 l 338 1342 l 732 1154 l 1126 1342 z "},"ŗ":{"ha":1236,"x_min":67,"x_max":1331,"o":"m 290 0 l 138 0 l 138 561 q 178 739 138 658 q 290 876 219 819 l 290 0 m 538 810 q 457 796 494 810 q 389 758 419 782 l 389 933 q 460 955 424 947 q 538 963 497 963 l 1331 963 l 1331 810 l 538 810 m 67 -286 l 188 -28 l 283 -72 l 163 -331 l 67 -286 z "},"ś":{"ha":1414,"x_min":89,"x_max":1313,"o":"m 908 1275 l 642 1010 l 536 1115 l 803 1379 l 908 1275 m 342 964 l 368 965 l 1263 965 l 1263 814 l 368 814 q 355 813 361 814 q 342 811 349 813 l 342 964 m 1035 558 q 1142 536 1092 558 q 1231 476 1193 514 q 1290 388 1268 439 q 1313 281 1313 338 q 1270 131 1313 197 q 1160 29 1228 64 l 1160 279 q 1124 369 1160 332 q 1035 406 1088 406 l 368 406 q 260 427 311 406 q 172 487 210 449 q 111 576 133 525 q 89 685 89 626 q 131 833 89 768 q 242 935 172 899 l 242 688 q 281 596 246 633 q 368 558 317 558 l 1035 558 m 1060 1 q 1047 0 1053 0 q 1035 0 1042 0 l 139 0 l 139 153 l 1035 153 q 1047 153 1042 153 q 1060 156 1053 153 l 1060 1 z "},"ş":{"ha":1519,"x_min":449,"x_max":800,"o":"m 449 -358 l 449 -215 l 604 -215 q 642 -198 628 -215 q 657 -158 657 -181 l 657 1 l 800 1 l 800 -158 q 784 -233 800 -197 q 741 -297 768 -269 q 678 -342 714 -325 q 600 -358 642 -358 l 449 -358 z "},"ŝ":{"ha":1492,"x_min":89,"x_max":1313,"o":"m 729 1225 l 335 1038 l 289 1133 l 729 1342 l 1169 1133 l 1124 1038 l 729 1225 m 342 964 l 368 965 l 1263 965 l 1263 814 l 368 814 q 355 813 361 814 q 342 811 349 813 l 342 964 m 1035 558 q 1142 536 1092 558 q 1231 476 1193 514 q 1290 388 1268 439 q 1313 281 1313 338 q 1270 131 1313 197 q 1160 29 1228 64 l 1160 279 q 1124 369 1160 332 q 1035 406 1088 406 l 368 406 q 260 427 311 406 q 172 487 210 449 q 111 576 133 525 q 89 685 89 626 q 131 833 89 768 q 242 935 172 899 l 242 688 q 281 596 246 633 q 368 558 317 558 l 1035 558 m 1060 1 q 1047 0 1053 0 q 1035 0 1042 0 l 139 0 l 139 153 l 1035 153 q 1047 153 1042 153 q 1060 156 1053 153 l 1060 1 z "},"ș":{"ha":1493,"x_min":89,"x_max":1313,"o":"m 342 964 l 368 965 l 1263 965 l 1263 814 l 368 814 q 355 813 361 814 q 342 811 349 813 l 342 964 m 1035 558 q 1142 536 1092 558 q 1231 476 1193 514 q 1290 388 1268 439 q 1313 281 1313 338 q 1270 131 1313 197 q 1160 29 1228 64 l 1160 279 q 1124 369 1160 332 q 1035 406 1088 406 l 368 406 q 260 427 311 406 q 172 487 210 449 q 111 576 133 525 q 89 685 89 626 q 131 833 89 768 q 242 935 172 899 l 242 688 q 281 596 246 633 q 368 558 317 558 l 1035 558 m 1060 1 q 1047 0 1053 0 q 1035 0 1042 0 l 139 0 l 139 153 l 1035 153 q 1047 153 1042 153 q 1060 156 1053 153 l 1060 1 m 576 -310 l 697 -51 l 793 -96 l 672 -354 l 576 -310 z "},"ț":{"ha":1449,"x_min":519,"x_max":1688,"o":"m 668 85 q 558 219 597 139 q 519 392 519 299 l 519 1113 l 668 1113 l 668 961 l 1519 961 l 1519 811 l 668 811 l 668 85 m 1688 149 l 1688 0 l 910 0 q 767 28 835 0 l 767 194 q 833 161 797 174 q 910 149 869 149 l 1688 149 m 638 -301 l 758 -43 l 854 -87 l 733 -346 l 638 -301 z "},"ŭ":{"ha":1615,"x_min":139,"x_max":1313,"o":"m 288 85 q 179 219 219 139 q 139 393 139 300 l 139 963 l 288 963 l 288 85 m 1313 963 l 1313 0 l 529 0 q 386 28 454 0 l 386 197 q 452 163 417 175 q 526 150 488 150 l 1164 150 l 1164 963 l 1313 963 m 568 1178 q 585 1133 568 1151 q 629 1115 603 1115 l 846 1115 q 890 1133 871 1115 q 908 1178 908 1151 l 908 1219 l 1036 1219 l 1036 1178 q 1022 1105 1036 1139 q 981 1045 1007 1071 q 919 1004 954 1019 q 846 989 885 989 l 629 989 q 496 1043 553 989 q 455 1104 469 1069 q 440 1178 440 1139 l 440 1219 l 568 1219 l 568 1178 z "},"ű":{"ha":1538,"x_min":139,"x_max":1313,"o":"m 288 85 q 179 219 219 139 q 139 393 139 300 l 139 963 l 288 963 l 288 85 m 1313 963 l 1313 0 l 529 0 q 386 28 454 0 l 386 197 q 452 163 417 175 q 526 150 488 150 l 1164 150 l 1164 963 l 1313 963 m 804 1232 l 540 969 l 465 1044 l 729 1307 l 804 1232 m 1110 1232 l 846 969 l 771 1044 l 1035 1307 l 1110 1232 z "},"ū":{"ha":1439,"x_min":139,"x_max":1313,"o":"m 288 85 q 179 219 219 139 q 139 393 139 300 l 139 963 l 288 963 l 288 85 m 1313 963 l 1313 0 l 529 0 q 386 28 454 0 l 386 197 q 452 163 417 175 q 526 150 488 150 l 1164 150 l 1164 963 l 1313 963 m 419 1131 l 1063 1131 l 1063 1025 l 419 1025 l 419 1131 z "},"ų":{"ha":1615,"x_min":139,"x_max":1313,"o":"m 288 85 q 179 219 219 139 q 139 393 139 300 l 139 963 l 288 963 l 288 85 m 1313 963 l 1313 0 l 529 0 q 386 28 454 0 l 386 197 q 452 163 417 175 q 526 150 488 150 l 1164 150 l 1164 963 l 1313 963 m 749 -304 q 692 -294 719 -304 q 642 -265 664 -283 q 606 -222 619 -247 q 593 -165 593 -196 l 593 -162 q 615 -74 593 -115 q 674 -6 638 -33 l 704 22 l 857 22 l 742 -87 q 713 -120 726 -103 q 700 -156 700 -137 q 704 -172 700 -164 q 724 -191 713 -187 q 753 -197 735 -194 l 1019 -197 l 1019 -304 l 749 -304 z "},"ů":{"ha":1615,"x_min":139,"x_max":1313,"o":"m 288 85 q 179 219 219 139 q 139 393 139 300 l 139 963 l 288 963 l 288 85 m 1313 963 l 1313 0 l 529 0 q 386 28 454 0 l 386 197 q 452 163 417 175 q 526 150 488 150 l 1164 150 l 1164 963 l 1313 963 m 646 1015 q 513 1071 568 1015 q 472 1131 486 1097 q 457 1204 457 1165 l 457 1222 q 472 1296 457 1261 q 512 1356 486 1331 q 572 1397 538 1382 q 646 1413 607 1413 l 836 1413 q 910 1397 875 1413 q 970 1356 944 1382 q 1011 1296 996 1331 q 1026 1222 1026 1261 l 1026 1204 q 1012 1131 1026 1165 q 971 1072 997 1097 q 910 1031 944 1046 q 836 1015 875 1015 l 646 1015 m 603 1267 q 585 1222 585 1249 l 585 1204 q 602 1160 585 1178 q 646 1143 619 1143 l 836 1143 q 881 1160 863 1143 q 900 1204 900 1178 l 900 1222 q 881 1267 900 1249 q 836 1285 863 1285 l 646 1285 q 621 1279 632 1285 q 603 1267 610 1274 z "},"ź":{"ha":1514,"x_min":139,"x_max":1435,"o":"m 954 811 l 142 811 l 142 963 l 1175 963 l 954 811 m 1417 149 l 1417 0 l 139 0 l 139 139 l 154 149 l 426 149 l 1417 149 m 1353 963 l 1435 963 l 1435 831 l 574 247 l 301 247 l 1353 963 m 976 1272 l 710 1007 l 604 1113 l 871 1376 l 976 1272 z "},"ż":{"ha":1514,"x_min":139,"x_max":1435,"o":"m 672 1250 l 856 1250 l 856 1099 l 672 1099 l 672 1250 m 954 811 l 142 811 l 142 963 l 1175 963 l 954 811 m 1417 149 l 1417 0 l 139 0 l 139 139 l 154 149 l 426 149 l 1417 149 m 1353 963 l 1435 963 l 1435 831 l 574 247 l 301 247 l 1353 963 z "},"S":{"ha":1414,"x_min":89,"x_max":1313,"o":"m 342 964 l 368 965 l 1263 965 l 1263 814 l 368 814 q 355 813 361 814 q 342 811 349 813 l 342 964 m 1035 558 q 1142 536 1092 558 q 1231 476 1193 514 q 1290 388 1268 439 q 1313 281 1313 338 q 1270 131 1313 197 q 1160 29 1228 64 l 1160 279 q 1124 369 1160 332 q 1035 406 1088 406 l 368 406 q 260 427 311 406 q 172 487 210 449 q 111 576 133 525 q 89 685 89 626 q 131 833 89 768 q 242 935 172 899 l 242 688 q 281 596 246 633 q 368 558 317 558 l 1035 558 m 1060 1 q 1047 0 1053 0 q 1035 0 1042 0 l 139 0 l 139 153 l 1035 153 q 1047 153 1042 153 q 1060 156 1053 153 l 1060 1 z "},"R":{"ha":1571,"x_min":139,"x_max":1478,"o":"m 289 0 l 139 0 l 139 963 l 289 963 l 289 0 m 1478 0 l 1286 0 l 1022 353 l 389 353 l 389 506 l 1118 506 q 1180 517 1150 506 q 1232 550 1210 529 q 1267 599 1254 571 q 1281 658 1281 626 q 1267 718 1281 690 q 1230 767 1253 746 q 1177 799 1207 788 q 1114 811 1147 811 l 389 811 l 389 963 l 1114 963 q 1289 913 1211 963 q 1393 805 1354 872 q 1432 658 1432 738 q 1374 471 1432 542 q 1203 367 1317 400 l 1478 0 z "},"H":{"ha":1410,"x_min":139,"x_max":1308,"o":"m 292 0 l 139 0 l 139 963 l 292 963 l 292 0 m 442 594 l 1154 594 l 1154 963 l 1308 963 l 1308 0 l 1154 0 l 1154 440 l 443 440 l 442 594 z "},"I":{"ha":442,"x_min":139,"x_max":292,"o":"m 139 0 l 139 963 l 292 963 l 292 0 l 139 0 z "},"O":{"ha":1571,"x_min":122,"x_max":1479,"o":"m 1231 26 q 1161 7 1197 14 q 1088 0 1125 0 l 513 0 q 361 31 432 0 q 237 115 290 61 q 153 239 183 168 q 122 390 122 310 l 122 571 q 162 744 122 664 q 271 878 201 824 l 271 390 q 290 297 271 340 q 342 220 310 253 q 419 168 375 188 q 513 149 463 149 l 1088 149 q 1164 161 1128 149 q 1231 196 1200 174 l 1231 26 m 1088 963 q 1240 931 1168 963 q 1365 847 1311 900 q 1449 723 1418 794 q 1479 571 1479 651 l 1479 390 q 1439 217 1479 297 q 1331 85 1399 138 l 1331 571 q 1311 665 1331 621 q 1259 741 1292 708 q 1182 793 1226 774 q 1088 813 1138 813 l 513 813 q 436 800 472 813 q 369 765 400 788 l 369 936 q 438 956 403 949 q 513 963 474 963 l 1088 963 z "},"o":{"ha":1618,"x_min":138,"x_max":1494,"o":"m 221 813 q 355 922 275 882 q 528 963 435 963 l 1103 963 q 1255 931 1183 963 q 1380 847 1326 900 q 1464 723 1433 794 q 1494 571 1494 651 l 1494 390 q 1468 249 1494 317 l 1299 249 q 1346 390 1346 308 l 1346 571 q 1326 665 1346 621 q 1274 741 1307 708 q 1197 793 1242 774 q 1103 813 1153 813 l 528 813 l 221 813 m 1411 149 q 1277 40 1357 81 q 1103 0 1197 0 l 528 0 q 376 31 447 0 q 252 115 306 61 q 168 239 199 168 q 138 390 138 310 l 138 571 q 165 713 138 644 l 333 713 q 299 647 311 682 q 286 571 286 611 l 286 390 q 306 297 286 340 q 358 220 325 253 q 434 168 390 188 q 528 149 478 149 l 1103 149 l 1411 149 z "},"T":{"ha":1311,"x_min":54,"x_max":1244,"o":"m 725 711 l 725 0 l 574 0 l 574 711 l 725 711 m 1244 963 l 1244 811 l 54 811 l 54 963 l 1244 963 z "},"N":{"ha":1519,"x_min":139,"x_max":1386,"o":"m 1386 965 l 1386 179 q 1335 63 1378 110 q 1233 -1 1292 15 l 1233 965 l 1386 965 m 290 0 l 139 0 l 139 781 q 146 844 140 813 q 167 901 151 875 q 211 946 182 928 q 290 971 240 964 l 290 0 m 1133 -6 q 1018 65 1069 6 q 703 435 860 251 q 389 804 547 618 l 389 971 q 453 948 422 965 q 510 901 485 931 q 820 532 665 715 q 1133 164 975 349 l 1133 -6 z "},"D":{"ha":1507,"x_min":142,"x_max":1450,"o":"m 1050 963 q 1206 931 1133 963 q 1333 844 1279 899 q 1419 718 1388 790 q 1450 564 1450 646 l 1450 400 q 1408 223 1450 304 q 1297 86 1367 142 l 1297 567 q 1278 661 1297 617 q 1224 739 1258 706 q 1145 792 1190 772 q 1050 811 1100 811 l 293 811 l 293 153 l 1053 153 q 1129 165 1093 153 q 1197 201 1165 178 l 1197 28 q 1050 0 1126 0 l 142 0 l 142 963 l 1050 963 l 1050 963 z "},"E":{"ha":1475,"x_min":133,"x_max":1328,"o":"m 286 557 l 1328 557 l 1328 404 l 286 404 l 286 86 q 174 223 215 142 q 133 400 133 304 l 133 564 q 174 740 133 660 q 286 876 215 821 l 286 557 m 1328 963 l 1328 811 l 533 811 q 454 798 492 811 q 386 763 417 785 l 386 933 q 458 955 421 947 q 533 963 494 963 l 1328 963 m 386 201 q 454 165 417 178 q 533 153 492 153 l 1328 153 l 1328 0 l 533 0 q 386 28 457 0 l 386 201 z "},"G":{"ha":1511,"x_min":111,"x_max":1396,"o":"m 363 933 q 510 963 431 963 l 1129 963 l 1129 811 l 510 811 q 432 798 469 811 q 363 761 394 785 l 363 933 m 1396 561 l 1396 400 q 1365 245 1396 318 q 1279 118 1333 172 q 1152 32 1225 64 q 996 0 1079 0 l 510 0 q 356 31 428 0 q 229 117 283 63 q 143 244 175 171 q 111 400 111 317 l 111 564 q 152 740 111 658 q 263 876 193 821 l 263 400 q 282 305 263 350 q 335 226 301 260 q 413 172 368 192 q 507 153 457 153 l 996 153 q 1091 172 1046 153 q 1169 225 1136 192 q 1223 303 1203 258 q 1243 397 1243 347 l 1243 408 l 828 408 l 828 561 l 1396 561 z "},"U":{"ha":1494,"x_min":151,"x_max":1379,"o":"m 1126 28 q 979 0 1058 0 l 551 0 q 396 31 468 0 q 269 117 324 63 q 183 244 214 172 q 151 400 151 317 l 151 963 l 304 963 l 304 400 q 324 305 304 350 q 376 226 343 260 q 454 172 410 192 q 550 153 499 153 l 979 153 q 1058 165 1021 153 q 1126 201 1096 178 l 1126 28 m 1379 963 l 1379 400 q 1340 224 1379 304 q 1226 85 1300 143 l 1226 963 l 1379 963 z "},"C":{"ha":1458,"x_min":119,"x_max":1328,"o":"m 238 117 q 151 244 182 172 q 119 400 119 317 l 119 564 q 160 741 119 660 q 272 876 201 822 l 272 400 q 292 305 272 350 q 344 226 311 260 q 422 172 378 192 q 518 153 467 153 l 1328 153 l 1328 0 l 521 0 q 365 31 438 0 q 238 117 292 63 m 521 963 l 1328 963 l 1328 811 l 521 811 q 424 792 469 811 l 424 950 q 521 963 469 963 z "},"P":{"ha":1543,"x_min":139,"x_max":1407,"o":"m 1160 372 q 1094 365 1125 365 l 290 365 l 290 0 l 139 0 l 139 963 l 290 963 l 290 514 l 1097 514 q 1160 526 1131 514 l 1160 372 m 1101 963 q 1218 939 1163 963 q 1315 874 1274 915 q 1382 779 1357 833 q 1407 664 1407 725 q 1366 517 1407 583 q 1258 411 1325 451 l 1258 664 q 1244 719 1258 693 q 1208 767 1231 746 q 1156 800 1186 788 q 1094 813 1126 813 l 390 813 l 390 963 l 1101 963 z "},"Q":{"ha":1756,"x_min":135,"x_max":1693,"o":"m 388 938 q 533 965 458 965 l 1210 965 q 1366 934 1293 965 q 1493 849 1439 903 q 1578 722 1547 794 q 1610 567 1610 649 l 1610 400 q 1583 253 1610 319 l 1410 253 q 1457 400 1457 317 l 1457 567 q 1438 662 1457 617 q 1385 741 1418 707 q 1306 794 1351 775 q 1210 814 1261 814 l 533 814 q 456 801 493 814 q 388 765 419 789 l 388 938 m 1693 153 l 1693 0 l 533 0 q 378 31 451 0 q 251 117 306 63 q 166 244 197 171 q 135 400 135 317 l 135 567 q 176 744 135 663 q 288 881 218 825 l 288 400 q 307 303 288 349 q 360 225 326 258 q 438 172 393 192 q 533 153 483 153 l 1693 153 z "},"J":{"ha":1413,"x_min":139,"x_max":1311,"o":"m 257 117 q 170 244 201 172 q 139 400 139 317 l 139 503 l 292 503 l 292 400 q 311 305 292 350 q 364 226 331 260 q 442 172 397 192 q 538 153 486 153 l 911 153 q 1007 172 960 153 l 1007 11 q 959 2 983 4 q 911 0 935 0 l 539 0 q 383 31 456 0 q 257 117 311 63 m 1158 963 l 1311 963 l 1311 400 q 1280 244 1311 317 q 1193 117 1249 172 q 1176 100 1185 108 q 1158 85 1168 92 l 1158 963 z "},"L":{"ha":1361,"x_min":125,"x_max":1318,"o":"m 278 86 q 165 223 206 138 q 125 401 125 308 l 125 963 l 278 963 l 278 86 m 1318 153 l 1318 0 l 525 0 q 448 8 485 0 q 376 29 411 15 l 376 204 q 444 167 407 181 q 525 153 482 153 l 1318 153 z "},"F":{"ha":1435,"x_min":139,"x_max":1332,"o":"m 292 553 l 1274 553 l 1274 401 l 292 401 l 292 0 l 139 0 l 139 563 q 170 718 139 646 q 256 844 201 790 q 292 876 272 861 l 292 563 l 292 553 m 1332 963 l 1332 811 l 539 811 q 443 792 489 811 l 443 951 q 539 963 492 963 l 1332 963 z "},"A":{"ha":1565,"x_min":139,"x_max":1410,"o":"m 1292 846 q 1378 718 1346 790 q 1410 564 1410 646 l 1410 0 l 1257 0 l 1257 418 l 290 418 l 290 0 l 139 0 l 139 564 q 180 740 139 660 q 290 876 221 821 l 290 571 l 1257 571 q 1235 663 1256 619 q 1182 740 1215 707 q 1104 792 1149 772 q 1010 811 1060 811 l 535 811 q 458 798 494 811 q 390 761 421 785 l 390 933 q 538 963 458 963 l 1010 963 q 1164 931 1092 963 q 1292 846 1236 900 z "},"Z":{"ha":1457,"x_min":125,"x_max":1347,"o":"m 1097 811 l 133 811 l 133 963 l 1097 963 l 1097 811 m 275 6 q 210 35 238 14 q 163 85 182 57 q 135 147 144 114 q 125 214 125 181 q 144 301 125 267 q 188 357 164 336 q 250 394 214 382 q 469 470 356 431 q 699 551 583 510 q 928 631 814 592 q 1149 708 1043 671 q 1180 723 1164 714 q 1196 756 1196 732 l 1196 958 q 1277 920 1247 950 q 1322 856 1307 890 q 1342 793 1338 822 q 1347 757 1347 764 q 1331 672 1347 706 q 1296 618 1315 638 q 1246 581 1274 593 l 303 251 q 281 233 288 244 q 275 208 275 221 l 275 6 m 375 153 l 1339 153 l 1339 0 l 375 0 l 375 153 z "},"M":{"ha":1690,"x_min":139,"x_max":1589,"o":"m 1006 107 q 983 68 996 88 q 955 33 971 49 q 919 8 939 18 q 879 -1 900 -1 l 857 -1 q 781 22 810 1 q 732 88 753 43 l 313 960 q 335 963 326 963 l 347 963 q 413 952 382 963 q 468 925 443 942 q 510 888 493 908 q 539 846 528 867 q 704 499 625 667 q 864 161 783 331 q 1024 494 944 329 q 1185 826 1104 660 q 1274 927 1217 893 q 1392 961 1332 961 l 1411 960 l 1326 778 q 1321 769 1324 775 l 1006 107 m 139 771 q 162 853 139 814 q 221 919 185 892 l 293 771 q 292 765 292 769 l 292 0 l 139 0 l 139 771 m 1504 924 q 1560 858 1539 897 q 1589 774 1582 819 l 1589 0 l 1438 0 l 1438 765 q 1436 778 1438 774 l 1504 924 z "},"Y":{"ha":1413,"x_min":125,"x_max":1297,"o":"m 639 0 l 639 289 l 525 289 q 476 291 500 289 q 429 300 453 293 l 429 460 q 524 442 471 442 l 897 442 q 992 461 947 442 q 1072 514 1038 481 q 1125 592 1106 547 q 1144 686 1144 636 l 1144 963 l 1297 963 l 1297 689 q 1266 533 1297 606 q 1179 406 1235 461 q 1053 320 1125 351 q 897 289 981 289 l 792 289 l 792 0 l 639 0 m 243 406 q 156 533 188 461 q 125 689 125 606 l 125 963 l 278 963 l 278 374 q 260 389 268 381 q 243 406 251 397 z "},"X":{"ha":1413,"x_min":139,"x_max":1311,"o":"m 1283 308 q 1311 161 1311 238 l 1311 0 l 1158 0 l 1158 161 q 1146 239 1158 201 q 1110 308 1133 276 l 1283 308 m 167 660 q 139 808 139 731 l 139 963 l 292 963 l 292 808 q 304 729 292 767 q 340 660 317 692 l 167 660 m 1311 963 l 1311 808 q 1280 653 1311 725 q 1193 525 1249 581 q 1169 503 1181 514 q 1146 483 1158 493 q 1172 465 1161 474 q 1193 444 1182 456 q 1210 426 1201 435 q 1225 408 1218 418 l 538 408 q 443 389 488 408 q 365 336 399 369 q 311 258 331 303 q 292 164 292 214 l 292 0 l 139 0 l 139 161 q 170 317 139 244 q 257 444 201 389 q 280 466 268 456 q 303 485 292 476 q 261 520 279 503 q 225 561 243 538 l 922 561 q 1014 581 971 561 q 1089 635 1057 601 q 1140 713 1121 668 q 1158 806 1158 757 l 1158 963 l 1311 963 z "},"B":{"ha":1475,"x_min":139,"x_max":1385,"o":"m 1290 496 q 1360 402 1335 456 q 1385 288 1385 349 q 1342 142 1385 208 q 1233 40 1300 76 l 1233 288 q 1221 339 1233 314 q 1188 382 1208 364 q 1142 411 1168 400 q 1086 422 1115 422 l 290 422 l 290 153 l 1086 153 q 1133 161 1110 153 l 1133 4 q 1083 0 1108 0 l 139 0 l 139 963 l 1079 963 q 1133 958 1106 963 l 1133 803 q 1079 811 1106 811 l 290 811 l 290 575 l 1085 575 q 1136 583 1110 575 q 1184 607 1163 592 q 1219 644 1206 622 q 1233 692 1233 665 l 1233 928 q 1342 831 1300 896 q 1385 693 1385 767 q 1360 585 1385 638 q 1290 496 1336 532 z "},"g":{"ha":1475,"x_min":144,"x_max":1314,"o":"m 589 549 l 1314 549 l 1314 0 l 536 0 q 384 31 456 0 q 260 115 313 63 q 176 238 207 168 q 144 388 144 308 l 144 569 q 185 742 144 663 q 293 875 225 822 l 293 390 q 312 298 293 342 q 363 221 331 254 q 440 168 396 188 q 533 149 483 149 l 1164 149 l 1164 400 l 589 400 l 589 549 m 1314 961 l 1314 811 l 536 811 q 459 799 496 811 q 392 764 422 786 l 392 933 q 536 961 460 961 l 1314 961 z "},"K":{"ha":1497,"x_min":139,"x_max":1335,"o":"m 1335 814 q 1289 629 1335 714 q 1168 490 1243 544 q 1289 349 1243 435 q 1335 165 1335 264 l 1335 0 l 1182 0 l 1182 165 q 1162 262 1182 217 q 1108 340 1142 307 q 1030 393 1075 374 q 933 413 985 413 l 392 413 l 392 567 l 933 567 q 1030 586 985 567 q 1109 639 1075 606 q 1163 717 1143 672 q 1182 814 1182 763 l 1182 963 l 1335 963 l 1335 814 m 292 0 l 139 0 l 139 963 l 292 963 l 292 0 z "},"V":{"ha":1539,"x_min":-3,"x_max":1510,"o":"m 811 276 q 1067 621 939 446 q 1321 963 1194 796 l 1510 963 l 901 153 l 811 276 m 840 69 l 789 1 l 710 1 l -3 963 l 183 963 l 840 69 z "},"W":{"ha":2303,"x_min":139,"x_max":2147,"o":"m 292 86 q 180 223 221 142 q 139 400 139 304 l 139 963 l 292 963 l 292 86 m 1219 86 q 1179 123 1197 103 q 1143 164 1161 143 q 1003 44 1086 89 q 819 0 919 0 l 539 0 q 390 28 461 0 l 390 201 q 460 165 422 178 q 539 153 497 153 l 819 153 q 917 172 872 153 q 994 225 961 192 q 1047 303 1028 258 q 1067 400 1067 349 l 1067 963 l 1219 963 l 1219 400 l 1219 86 m 2147 963 l 2147 400 q 2115 245 2147 318 q 2029 118 2083 172 q 1902 32 1975 64 q 1746 0 1829 0 l 1467 0 q 1318 28 1389 0 l 1318 201 q 1388 165 1350 178 q 1467 153 1425 153 l 1749 153 q 1844 172 1800 153 q 1922 225 1889 192 q 1975 303 1956 258 q 1994 400 1994 349 l 1994 963 l 2147 963 z "},"А":{"ha":1488,"x_min":139,"x_max":1410,"o":"m 1292 846 q 1378 718 1346 790 q 1410 564 1410 646 l 1410 0 l 1257 0 l 1257 418 l 290 418 l 290 0 l 139 0 l 139 564 q 180 740 139 660 q 290 876 221 821 l 290 571 l 1257 571 q 1235 663 1256 619 q 1182 740 1215 707 q 1104 792 1149 772 q 1010 811 1060 811 l 535 811 q 458 798 494 811 q 390 761 421 785 l 390 933 q 538 963 458 963 l 1010 963 q 1164 931 1092 963 q 1292 846 1236 900 z "},"В":{"ha":1475,"x_min":139,"x_max":1385,"o":"m 1290 496 q 1360 402 1335 456 q 1385 288 1385 349 q 1342 142 1385 208 q 1233 40 1300 76 l 1233 288 q 1221 339 1233 314 q 1188 382 1208 364 q 1142 411 1168 400 q 1086 422 1115 422 l 290 422 l 290 153 l 1086 153 q 1133 161 1110 153 l 1133 4 q 1083 0 1108 0 l 139 0 l 139 963 l 1079 963 q 1133 958 1106 963 l 1133 803 q 1079 811 1106 811 l 290 811 l 290 575 l 1085 575 q 1136 583 1110 575 q 1184 607 1163 592 q 1219 644 1206 622 q 1233 692 1233 665 l 1233 928 q 1342 831 1300 896 q 1385 693 1385 767 q 1360 585 1385 638 q 1290 496 1336 532 z "},"Е":{"ha":1475,"x_min":133,"x_max":1328,"o":"m 286 557 l 1328 557 l 1328 404 l 286 404 l 286 86 q 174 223 215 142 q 133 400 133 304 l 133 564 q 174 740 133 660 q 286 876 215 821 l 286 557 m 1328 963 l 1328 811 l 533 811 q 454 798 492 811 q 386 763 417 785 l 386 933 q 458 955 421 947 q 533 963 494 963 l 1328 963 m 386 201 q 454 165 417 178 q 533 153 492 153 l 1328 153 l 1328 0 l 533 0 q 386 28 457 0 l 386 201 z "},"е":{"ha":1511,"x_min":139,"x_max":1360,"o":"m 288 36 q 182 120 225 67 q 139 247 139 174 l 139 671 q 180 813 139 749 q 288 917 221 878 l 288 514 l 1053 514 q 1113 526 1083 514 q 1163 557 1142 538 q 1198 603 1185 576 q 1211 663 1211 631 q 1198 722 1211 694 q 1163 768 1185 749 q 1111 799 1140 788 q 1050 810 1082 810 l 1047 810 l 436 810 l 436 960 l 451 961 l 1053 961 q 1169 938 1114 961 q 1267 873 1225 914 q 1335 778 1310 832 q 1360 663 1360 724 q 1335 546 1360 600 q 1267 451 1310 492 q 1167 387 1224 410 q 1047 364 1110 364 l 288 364 l 288 251 l 288 36 m 1333 149 l 1333 0 l 436 0 l 436 149 l 1333 149 z "},"о":{"ha":1733,"x_min":138,"x_max":1494,"o":"m 1246 26 q 1176 7 1213 14 q 1103 0 1140 0 l 528 0 q 376 31 447 0 q 252 115 306 61 q 168 239 199 168 q 138 390 138 310 l 138 571 q 177 744 138 664 q 286 878 217 824 l 286 390 q 306 297 286 340 q 358 220 325 253 q 434 168 390 188 q 528 149 478 149 l 1103 149 q 1179 161 1143 149 q 1246 196 1215 174 l 1246 26 m 1103 963 q 1255 931 1183 963 q 1380 847 1326 900 q 1464 723 1433 794 q 1494 571 1494 651 l 1494 390 q 1454 217 1494 297 q 1346 85 1414 138 l 1346 571 q 1326 665 1346 621 q 1274 741 1307 708 q 1197 793 1242 774 q 1103 813 1153 813 l 528 813 q 451 800 488 813 q 385 765 415 788 l 385 936 q 453 956 418 949 q 528 963 489 963 l 1103 963 z "},"р":{"ha":1543,"x_min":139,"x_max":1407,"o":"m 290 0 l 139 0 l 139 961 l 1101 961 q 1131 960 1117 961 q 1158 956 1144 958 l 1158 799 q 1094 811 1129 811 l 290 811 l 290 0 m 1258 917 q 1366 809 1325 876 q 1407 663 1407 742 q 1381 546 1407 600 q 1313 451 1356 492 q 1213 387 1269 410 q 1094 364 1156 364 l 390 364 l 390 513 l 1097 513 q 1158 524 1129 513 q 1210 556 1188 536 q 1245 603 1232 576 q 1258 661 1258 631 l 1258 917 z "},"Р":{"ha":1543,"x_min":139,"x_max":1407,"o":"m 290 0 l 139 0 l 139 961 l 1101 961 q 1131 960 1117 961 q 1158 956 1144 958 l 1158 799 q 1094 811 1129 811 l 290 811 l 290 0 m 1258 917 q 1366 809 1325 876 q 1407 663 1407 742 q 1381 546 1407 600 q 1313 451 1356 492 q 1213 387 1269 410 q 1094 364 1156 364 l 390 364 l 390 513 l 1097 513 q 1158 524 1129 513 q 1210 556 1188 536 q 1245 603 1232 576 q 1258 661 1258 631 l 1258 917 z "},"С":{"ha":1436,"x_min":119,"x_max":1328,"o":"m 238 117 q 151 244 182 172 q 119 400 119 317 l 119 564 q 160 741 119 660 q 272 876 201 822 l 272 400 q 292 305 272 350 q 344 226 311 260 q 422 172 378 192 q 518 153 467 153 l 1328 153 l 1328 0 l 521 0 q 365 31 438 0 q 238 117 292 63 m 521 963 l 1328 963 l 1328 811 l 521 811 q 424 792 469 811 l 424 950 q 521 963 469 963 z "},"Т":{"ha":1432,"x_min":118,"x_max":1308,"o":"m 789 711 l 789 0 l 638 0 l 638 711 l 789 711 m 1308 963 l 1308 811 l 118 811 l 118 963 l 1308 963 z "},"т":{"ha":2094,"x_min":138,"x_max":1915,"o":"m 1767 876 q 1875 744 1835 824 q 1915 569 1915 664 l 1915 0 l 1767 0 l 1767 569 l 1767 876 m 910 961 l 1525 961 q 1598 954 1563 961 q 1667 935 1633 947 l 1667 765 q 1601 800 1636 788 q 1528 813 1567 813 l 1060 813 l 1060 0 l 910 0 l 910 813 l 910 961 m 138 0 l 138 961 l 810 961 l 810 813 l 286 813 l 286 0 l 138 0 z "},"О":{"ha":1733,"x_min":138,"x_max":1494,"o":"m 1246 26 q 1176 7 1213 14 q 1103 0 1140 0 l 528 0 q 376 31 447 0 q 252 115 306 61 q 168 239 199 168 q 138 390 138 310 l 138 571 q 177 744 138 664 q 286 878 217 824 l 286 390 q 306 297 286 340 q 358 220 325 253 q 434 168 390 188 q 528 149 478 149 l 1103 149 q 1179 161 1143 149 q 1246 196 1215 174 l 1246 26 m 1103 963 q 1255 931 1183 963 q 1380 847 1326 900 q 1464 723 1433 794 q 1494 571 1494 651 l 1494 390 q 1454 217 1494 297 q 1346 85 1414 138 l 1346 571 q 1326 665 1346 621 q 1274 741 1307 708 q 1197 793 1242 774 q 1103 813 1153 813 l 528 813 q 451 800 488 813 q 385 765 415 788 l 385 936 q 453 956 418 949 q 528 963 489 963 l 1103 963 z "},"Н":{"ha":1410,"x_min":139,"x_max":1308,"o":"m 292 0 l 139 0 l 139 963 l 292 963 l 292 0 m 442 594 l 1154 594 l 1154 963 l 1308 963 l 1308 0 l 1154 0 l 1154 440 l 443 440 l 442 594 z "},"М":{"ha":1690,"x_min":139,"x_max":1589,"o":"m 1006 107 q 983 68 996 88 q 955 33 971 49 q 919 8 939 18 q 879 -1 900 -1 l 857 -1 q 781 22 810 1 q 732 88 753 43 l 313 960 q 335 963 326 963 l 347 963 q 413 952 382 963 q 468 925 443 942 q 510 888 493 908 q 539 846 528 867 q 704 499 625 667 q 864 161 783 331 q 1024 494 944 329 q 1185 826 1104 660 q 1274 927 1217 893 q 1392 961 1332 961 l 1411 960 l 1326 778 q 1321 769 1324 775 l 1006 107 m 139 771 q 162 853 139 814 q 221 919 185 892 l 293 771 q 292 765 292 769 l 292 0 l 139 0 l 139 771 m 1504 924 q 1560 858 1539 897 q 1589 774 1582 819 l 1589 0 l 1438 0 l 1438 765 q 1436 778 1438 774 l 1504 924 z "},"а":{"ha":1504,"x_min":129,"x_max":1325,"o":"m 1011 961 q 1133 937 1076 961 q 1233 870 1190 913 q 1301 771 1276 828 q 1325 649 1325 714 l 1325 0 l 1176 0 l 1176 446 l 440 446 q 379 435 410 446 l 379 592 q 436 596 408 596 l 1176 596 l 1176 649 q 1163 712 1176 682 q 1126 764 1149 742 q 1074 799 1104 786 q 1011 811 1044 811 l 339 811 l 339 961 l 1011 961 m 1076 0 l 440 0 q 323 24 379 0 q 224 88 267 47 q 155 183 181 129 q 129 297 129 236 q 172 447 129 381 q 281 553 214 514 l 281 296 q 293 238 281 265 q 327 192 306 211 q 376 160 349 172 q 436 149 404 149 l 1076 149 l 1076 0 z "},"с":{"ha":1436,"x_min":163,"x_max":1371,"o":"m 281 117 q 194 244 225 172 q 163 400 163 317 l 163 564 q 203 741 163 660 q 315 876 244 822 l 315 400 q 335 305 315 350 q 388 226 354 260 q 465 172 421 192 q 561 153 510 153 l 1371 153 l 1371 0 l 564 0 q 408 31 481 0 q 281 117 335 63 m 564 963 l 1371 963 l 1371 811 l 564 811 q 467 792 513 811 l 467 950 q 564 963 513 963 z "},"х":{"ha":1413,"x_min":153,"x_max":1325,"o":"m 1297 308 q 1325 161 1325 238 l 1325 0 l 1172 0 l 1172 161 q 1160 239 1172 201 q 1124 308 1147 276 l 1297 308 m 181 660 q 153 808 153 731 l 153 963 l 306 963 l 306 808 q 318 729 306 767 q 354 660 331 692 l 181 660 m 1325 963 l 1325 808 q 1294 653 1325 725 q 1207 525 1263 581 q 1183 503 1194 514 q 1160 483 1172 493 q 1185 465 1175 474 q 1207 444 1196 456 q 1224 426 1215 435 q 1239 408 1232 418 l 551 408 q 457 389 501 408 q 378 336 413 369 q 325 258 344 303 q 306 164 306 214 l 306 0 l 153 0 l 153 161 q 184 317 153 244 q 271 444 215 389 q 294 466 282 456 q 317 485 306 476 q 275 520 293 503 q 239 561 257 538 l 936 561 q 1028 581 985 561 q 1103 635 1071 601 q 1153 713 1135 668 q 1172 806 1172 757 l 1172 963 l 1325 963 z "},"Х":{"ha":1413,"x_min":139,"x_max":1311,"o":"m 1283 308 q 1311 161 1311 238 l 1311 0 l 1158 0 l 1158 161 q 1146 239 1158 201 q 1110 308 1133 276 l 1283 308 m 167 660 q 139 808 139 731 l 139 963 l 292 963 l 292 808 q 304 729 292 767 q 340 660 317 692 l 167 660 m 1311 963 l 1311 808 q 1280 653 1311 725 q 1193 525 1249 581 q 1169 503 1181 514 q 1146 483 1158 493 q 1172 465 1161 474 q 1193 444 1182 456 q 1210 426 1201 435 q 1225 408 1218 418 l 538 408 q 443 389 488 408 q 365 336 399 369 q 311 258 331 303 q 292 164 292 214 l 292 0 l 139 0 l 139 161 q 170 317 139 244 q 257 444 201 389 q 280 466 268 456 q 303 485 292 476 q 261 520 279 503 q 225 561 243 538 l 922 561 q 1014 581 971 561 q 1089 635 1057 601 q 1140 713 1121 668 q 1158 806 1158 757 l 1158 963 l 1311 963 z "},"К":{"ha":1497,"x_min":139,"x_max":1335,"o":"m 1335 814 q 1289 629 1335 714 q 1168 490 1243 544 q 1289 349 1243 435 q 1335 165 1335 264 l 1335 0 l 1182 0 l 1182 165 q 1162 262 1182 217 q 1108 340 1142 307 q 1030 393 1075 374 q 933 413 985 413 l 392 413 l 392 567 l 933 567 q 1030 586 985 567 q 1109 639 1075 606 q 1163 717 1143 672 q 1182 814 1182 763 l 1182 963 l 1335 963 l 1335 814 m 292 0 l 139 0 l 139 963 l 292 963 l 292 0 z "},"к":{"ha":1510,"x_min":139,"x_max":1393,"o":"m 1035 536 q 1150 483 1097 519 q 1241 397 1203 447 q 1301 286 1279 347 q 1322 158 1322 225 l 1322 0 l 1174 0 l 1174 161 q 1154 253 1174 210 q 1101 330 1135 297 q 1024 381 1068 363 q 931 400 981 400 l 388 400 l 388 550 l 849 550 q 1020 756 933 650 q 1190 961 1107 861 l 1393 961 l 1035 536 m 288 0 l 139 0 l 139 961 l 288 961 l 288 0 z "},"п":{"ha":1413,"x_min":139,"x_max":1313,"o":"m 288 811 l 288 0 l 139 0 l 139 963 l 922 963 q 1095 922 1015 963 q 1228 811 1175 881 l 288 811 m 1285 714 q 1313 569 1313 646 l 1313 0 l 1164 0 l 1164 569 q 1151 647 1164 610 q 1117 714 1139 683 l 1285 714 z "},"у":{"ha":1413,"x_min":110,"x_max":1256,"o":"m 500 386 q 349 417 419 386 q 224 501 278 449 q 140 626 171 554 q 110 778 110 697 l 110 963 l 258 963 l 258 778 q 277 685 258 729 q 328 607 296 640 q 405 554 361 574 q 497 535 449 535 l 1107 535 l 1107 963 l 1256 963 l 1256 390 q 1249 317 1256 353 q 1229 249 1243 281 l 1060 249 q 1094 313 1082 278 q 1107 386 1107 347 l 500 386 m 1172 149 q 1040 40 1119 81 q 865 0 960 0 l 138 0 l 138 149 l 867 149 l 1172 149 z "},"Ё":{"ha":1475,"x_min":574,"x_max":1108,"o":"m 574 1007 l 574 1175 l 735 1175 l 735 1007 l 574 1007 m 946 1007 l 946 1175 l 1108 1175 l 1108 1007 l 946 1007 z "},"Ї":{"ha":1157,"x_min":0,"x_max":0,"o":""},"ё":{"ha":1478,"x_min":474,"x_max":1008,"o":"m 474 1015 l 474 1183 l 635 1183 l 635 1015 l 474 1015 m 846 1015 l 846 1183 l 1008 1183 l 1008 1015 l 846 1015 z "},"Ѕ":{"ha":1414,"x_min":74,"x_max":1297,"o":"m 124 0 l 124 153 l 1019 153 q 1069 163 1046 153 q 1108 190 1092 172 q 1135 230 1125 207 q 1144 279 1144 253 q 1108 369 1144 332 q 1019 406 1072 406 l 353 406 q 245 427 296 406 q 156 487 194 449 q 96 576 118 525 q 74 685 74 626 q 95 794 74 743 q 155 883 117 844 q 244 943 193 921 q 353 965 294 965 l 1247 965 l 1247 814 l 353 814 q 265 777 299 814 q 226 689 231 740 q 266 596 231 633 q 353 558 301 558 l 1019 558 q 1127 536 1076 558 q 1215 476 1178 514 q 1275 388 1253 439 q 1297 281 1297 338 q 1276 171 1297 222 q 1217 82 1254 119 q 1128 22 1179 44 q 1019 0 1078 0 l 124 0 z "},"ѕ":{"ha":1414,"x_min":108,"x_max":1306,"o":"m 157 0 l 157 149 l 1032 149 q 1119 185 1083 149 q 1156 272 1156 221 q 1120 361 1156 325 q 1032 397 1085 397 l 381 397 q 276 419 325 397 q 189 477 226 440 q 130 563 151 514 q 108 669 108 613 q 130 778 108 728 q 188 865 151 828 q 274 924 225 903 q 381 946 324 946 l 1257 946 l 1257 796 l 381 796 q 294 760 328 796 q 257 674 261 724 q 296 583 261 619 q 381 547 331 547 l 1032 547 q 1139 526 1089 547 q 1226 467 1189 504 q 1284 381 1263 431 q 1306 274 1306 331 q 1284 167 1306 217 q 1226 80 1263 117 q 1139 22 1189 43 q 1032 0 1089 0 l 157 0 z "},"ј":{"ha":1472,"x_min":131,"x_max":1276,"o":"m 289 943 l 1276 943 l 1276 390 q 1246 240 1276 311 q 1161 114 1215 168 q 1038 31 1108 61 q 886 0 967 0 l 522 0 q 369 31 440 0 q 246 114 299 61 q 161 240 192 168 q 131 390 131 311 l 131 493 l 279 493 l 279 390 q 298 298 279 342 q 349 221 317 254 q 426 168 382 188 q 519 149 469 149 l 886 149 q 978 167 935 149 q 1056 219 1022 186 q 1108 295 1089 251 q 1128 389 1128 339 l 1128 793 l 289 793 l 289 943 z "},"ї":{"ha":646,"x_min":60,"x_max":594,"o":"m 60 1015 l 60 1183 l 221 1183 l 221 1015 l 60 1015 m 432 1015 l 432 1183 l 594 1183 l 594 1015 l 432 1015 z "},"Ќ":{"ha":1444,"x_min":528,"x_max":900,"o":"m 900 1264 l 633 999 l 528 1104 l 794 1368 l 900 1264 z "},"н":{"ha":1410,"x_min":139,"x_max":1308,"o":"m 292 0 l 139 0 l 139 963 l 292 963 l 292 0 m 442 594 l 1154 594 l 1154 963 l 1308 963 l 1308 0 l 1154 0 l 1154 440 l 443 440 l 442 594 z "},"Æ":{"ha":2608,"x_min":139,"x_max":2453,"o":"m 1410 558 l 2451 558 l 2451 406 l 1410 406 l 1410 346 q 1440 268 1418 304 q 1492 206 1461 232 q 1563 164 1524 179 q 1647 149 1603 149 l 2451 149 l 2451 0 l 1647 0 q 1496 28 1567 0 q 1372 108 1425 57 q 1288 228 1318 158 q 1257 378 1257 297 l 1257 406 l 290 406 l 290 0 l 139 0 l 139 564 q 180 740 139 660 q 290 876 221 821 l 290 558 l 1257 558 q 1235 653 1256 607 q 1182 734 1215 699 q 1104 790 1149 769 q 1010 811 1060 811 l 535 811 q 458 798 494 811 q 390 761 421 785 l 390 933 q 538 963 458 963 l 1010 963 q 1164 931 1092 963 q 1292 846 1236 900 q 1313 822 1303 835 q 1332 796 1322 810 q 1368 839 1349 819 q 1410 876 1388 858 l 1410 558 m 2453 963 l 2453 811 l 1658 811 q 1579 798 1617 811 q 1511 763 1542 785 l 1511 933 q 1583 955 1546 947 q 1658 963 1619 963 l 2453 963 z "},"ﬂ":{"ha":2781,"x_min":139,"x_max":2779,"o":"m 329 771 q 267 680 289 732 q 244 567 244 628 l 244 529 l 1282 529 l 1282 424 l 244 424 l 244 0 l 139 0 l 139 567 q 170 722 139 650 q 254 846 201 793 q 380 931 308 900 q 533 963 451 963 l 1344 963 l 1344 857 l 533 857 q 422 834 474 857 q 329 771 369 811 m 1679 963 l 1679 396 q 1701 283 1679 335 q 1764 192 1724 231 q 1856 128 1804 151 q 1968 106 1908 106 l 2779 106 l 2779 0 l 1968 0 q 1815 31 1886 0 q 1689 117 1743 63 q 1605 241 1636 169 q 1574 396 1574 313 l 1574 963 l 1679 963 z "},"Ĺ":{"ha":1435,"x_min":125,"x_max":1318,"o":"m 278 86 q 165 223 206 138 q 125 401 125 308 l 125 963 l 278 963 l 278 86 m 1318 153 l 1318 0 l 525 0 q 448 8 485 0 q 376 29 411 15 l 376 204 q 444 167 407 181 q 525 153 482 153 l 1318 153 m 894 1274 l 628 1008 l 522 1114 l 789 1378 l 894 1274 z "},"Ļ":{"ha":1435,"x_min":125,"x_max":1318,"o":"m 278 86 q 165 223 206 138 q 125 401 125 308 l 125 963 l 278 963 l 278 86 m 1318 153 l 1318 0 l 525 0 q 448 8 485 0 q 376 29 411 15 l 376 204 q 444 167 407 181 q 525 153 482 153 l 1318 153 m 608 -210 l 729 49 l 825 4 l 704 -254 l 608 -210 z "},"ĺ":{"ha":1346,"x_min":139,"x_max":1307,"o":"m 529 149 l 1307 149 l 1307 0 l 529 0 q 482 2 506 0 q 436 11 458 4 l 436 167 q 529 149 481 149 m 288 963 l 288 83 q 269 99 278 90 q 253 115 261 107 q 169 240 200 168 q 139 392 139 311 l 139 963 l 288 963 m 850 1272 l 583 1007 l 478 1113 l 744 1376 l 850 1272 z "},"ļ":{"ha":1346,"x_min":139,"x_max":1307,"o":"m 529 149 l 1307 149 l 1307 0 l 529 0 q 482 2 506 0 q 436 11 458 4 l 436 167 q 529 149 481 149 m 288 963 l 288 83 q 269 99 278 90 q 253 115 261 107 q 169 240 200 168 q 139 392 139 311 l 139 963 l 288 963 m 564 -210 l 685 49 l 781 4 l 660 -254 l 564 -210 z "},"Ť":{"ha":1432,"x_min":118,"x_max":1308,"o":"m 789 711 l 789 0 l 638 0 l 638 711 l 789 711 m 1308 963 l 1308 811 l 118 811 l 118 963 l 1308 963 m 1110 1340 l 1156 1244 l 715 1036 l 275 1244 l 321 1340 l 715 1153 l 1110 1340 z "},"ť":{"ha":1792,"x_min":139,"x_max":1651,"o":"m 1449 663 l 1533 972 l 1651 972 l 1567 663 l 1449 663 m 288 85 q 178 219 217 139 q 139 392 139 299 l 139 1113 l 288 1113 l 288 961 l 1139 961 l 1139 811 l 288 811 l 288 85 m 1307 149 l 1307 0 l 529 0 q 386 28 454 0 l 386 194 q 453 161 417 174 q 529 149 489 149 l 1307 149 z "},"«":{"ha":0,"x_min":0,"x_max":0,"o":""},"‹":{"ha":0,"x_min":0,"x_max":0,"o":""},"›":{"ha":0,"x_min":0,"x_max":0,"o":""},"»":{"ha":0,"x_min":0,"x_max":0,"o":""},"®":{"ha":0,"x_min":0,"x_max":0,"o":""},"™":{"ha":2990,"x_min":0,"x_max":0,"o":""},"И":{"ha":1519,"x_min":139,"x_max":1386,"o":"m 292 965 l 292 190 q 292 188 292 190 q 293 167 293 185 q 293 110 293 149 q 293 -1 293 71 q 190 63 233 15 q 139 179 147 110 l 139 965 l 292 965 m 1235 967 q 1338 906 1294 950 q 1385 790 1381 861 l 1386 776 l 1386 0 l 1235 0 l 1235 967 m 392 164 q 705 532 550 349 q 1015 901 860 715 q 1072 948 1040 931 q 1136 971 1103 965 l 1136 804 q 822 435 978 618 q 507 65 665 251 q 472 32 489 44 q 436 11 456 19 q 392 -6 418 -1 l 392 164 z "},"З":{"ha":1586,"x_min":139,"x_max":1489,"o":"m 1443 481 q 1481 436 1474 461 q 1489 382 1489 411 l 1489 176 q 1475 123 1486 150 q 1440 68 1464 96 q 1362 15 1406 31 q 1261 0 1318 0 l 371 0 q 338 2 357 0 q 297 9 318 4 q 256 22 276 14 q 218 42 235 29 q 139 208 139 100 l 139 261 l 244 261 l 244 208 q 251 162 246 179 q 276 129 257 144 q 314 111 293 115 q 354 106 335 107 l 1261 106 q 1308 110 1289 106 q 1339 121 1326 114 q 1369 144 1356 131 q 1383 182 1383 158 l 1383 381 q 1363 418 1383 408 q 1319 428 1342 428 l 326 428 l 326 535 l 1321 535 q 1361 547 1339 535 q 1383 582 1383 558 l 1383 776 q 1342 835 1375 814 q 1271 857 1308 857 l 356 857 q 316 851 338 857 q 279 835 294 846 q 251 799 258 819 q 244 754 244 779 l 244 701 l 139 701 l 139 760 q 158 850 139 808 q 213 919 176 892 q 288 953 244 943 q 371 963 331 963 l 1263 963 q 1345 947 1306 961 q 1415 910 1385 933 q 1465 855 1446 886 q 1489 788 1485 824 l 1489 569 q 1484 538 1488 550 q 1475 517 1481 526 q 1461 500 1469 508 q 1443 481 1453 492 z "},"я":{"ha":1556,"x_min":119,"x_max":1451,"o":"m 232 460 q 163 553 188 500 q 139 668 139 607 q 177 809 139 744 q 278 914 215 874 q 358 950 314 938 q 449 963 401 963 l 1451 963 l 1451 0 l 1346 0 l 1346 374 l 531 374 l 251 0 l 119 0 l 401 378 q 232 460 301 393 m 1346 857 l 449 857 q 372 842 408 857 q 306 803 335 828 q 261 743 278 778 q 244 668 244 708 q 261 594 244 628 q 305 534 278 560 q 368 494 332 508 q 443 479 404 479 l 1346 479 l 1346 857 z "},"ь":{"ha":1564,"x_min":139,"x_max":1453,"o":"m 246 589 l 1143 589 q 1260 566 1204 589 q 1359 503 1317 543 q 1427 410 1401 464 q 1453 294 1453 356 q 1428 181 1453 235 q 1361 88 1403 128 q 1265 24 1319 47 q 1150 0 1210 0 l 139 0 l 139 963 l 246 963 l 246 589 m 246 483 l 246 106 l 1143 106 q 1220 120 1183 106 q 1285 160 1257 135 q 1329 220 1313 186 q 1347 294 1346 254 q 1329 368 1346 333 q 1285 428 1313 403 q 1222 469 1258 454 q 1146 483 1186 483 l 246 483 z "},"Ь":{"ha":1543,"x_min":139,"x_max":1453,"o":"m 246 589 l 1143 589 q 1260 566 1204 589 q 1359 503 1317 543 q 1427 410 1401 464 q 1453 294 1453 356 q 1428 181 1453 235 q 1361 88 1403 128 q 1265 24 1319 47 q 1150 0 1210 0 l 139 0 l 139 963 l 246 963 l 246 589 m 246 483 l 246 106 l 1143 106 q 1220 120 1183 106 q 1285 160 1257 135 q 1329 220 1313 186 q 1347 294 1346 254 q 1329 368 1346 333 q 1285 428 1313 403 q 1222 469 1258 454 q 1146 483 1186 483 l 246 483 z "},"Ы":{"ha":1721,"x_min":139,"x_max":1667,"o":"m 246 589 l 1143 589 q 1260 566 1204 589 q 1359 503 1317 543 q 1427 410 1401 464 q 1453 294 1453 356 q 1428 181 1453 235 q 1361 88 1403 128 q 1265 24 1319 47 q 1150 0 1210 0 l 139 0 l 139 963 l 246 963 l 246 589 m 246 483 l 246 106 l 1143 106 q 1220 120 1183 106 q 1285 160 1257 135 q 1329 220 1313 186 q 1347 294 1346 254 q 1329 368 1346 333 q 1285 428 1313 403 q 1222 469 1258 454 q 1146 483 1186 483 l 246 483 m 1514 0 l 1514 963 l 1667 963 l 1667 0 l 1514 0 z "},"Г":{"ha":1193,"x_min":139,"x_max":1247,"o":"m 139 0 l 139 568 q 170 721 139 649 q 255 847 201 793 q 380 931 308 900 q 533 963 451 963 l 1247 963 l 1247 857 l 533 857 q 422 834 474 857 q 330 772 369 811 q 267 680 290 732 q 244 568 244 628 l 244 0 l 139 0 z "},"Й":{"ha":1542,"x_min":139,"x_max":1386,"o":"m 292 965 l 292 190 q 292 188 292 190 q 293 167 293 185 q 293 110 293 149 q 293 -1 293 71 q 190 63 233 15 q 139 179 147 110 l 139 965 l 292 965 m 1235 967 q 1338 906 1294 950 q 1385 790 1381 861 l 1386 776 l 1386 0 l 1235 0 l 1235 967 m 392 164 q 705 532 550 349 q 1015 901 860 715 q 1072 948 1040 931 q 1136 971 1103 965 l 1136 804 q 822 435 978 618 q 507 65 665 251 q 472 32 489 44 q 436 11 456 19 q 392 -6 418 -1 l 392 164 m 525 1179 q 542 1135 525 1153 q 586 1117 560 1117 l 803 1117 q 847 1135 828 1117 q 865 1179 865 1153 l 865 1221 l 993 1221 l 993 1179 q 978 1106 993 1140 q 938 1047 964 1072 q 876 1006 911 1021 q 803 990 842 990 l 586 990 q 453 1044 510 990 q 412 1106 426 1071 q 397 1179 397 1140 l 397 1221 l 525 1221 l 525 1179 z "},"\"":{"ha":579,"x_min":138,"x_max":513,"o":"m 138 675 l 138 963 l 289 963 l 289 675 l 138 675 m 361 675 l 361 963 l 513 963 l 513 675 l 361 675 z "},"!":{"ha":540,"x_min":190,"x_max":339,"o":"m 339 963 l 339 325 l 190 325 l 190 963 l 339 963 m 339 211 l 339 0 l 190 0 l 190 211 l 339 211 z "},"У":{"ha":1413,"x_min":110,"x_max":1256,"o":"m 500 386 q 349 417 419 386 q 224 501 278 449 q 140 626 171 554 q 110 778 110 697 l 110 963 l 258 963 l 258 778 q 277 685 258 729 q 328 607 296 640 q 405 554 361 574 q 497 535 449 535 l 1107 535 l 1107 963 l 1256 963 l 1256 390 q 1249 317 1256 353 q 1229 249 1243 281 l 1060 249 q 1094 313 1082 278 q 1107 386 1107 347 l 500 386 m 1172 149 q 1040 40 1119 81 q 865 0 960 0 l 138 0 l 138 149 l 867 149 l 1172 149 z "},"þ":{"ha":1554,"x_min":139,"x_max":1397,"o":"m 390 836 l 1042 836 q 1178 810 1114 836 q 1293 733 1243 783 q 1371 617 1344 682 q 1397 481 1397 551 q 1394 428 1397 454 q 1382 376 1390 401 l 1217 376 q 1238 426 1231 400 q 1246 481 1246 453 q 1230 560 1246 522 q 1186 625 1214 597 q 1121 669 1158 653 q 1042 685 1083 685 l 390 685 l 390 836 m 1333 276 q 1206 165 1283 206 q 1042 125 1129 125 l 292 125 l 292 0 l 139 0 l 139 963 l 292 963 l 292 276 l 1042 276 l 1333 276 z "}}}
